<svg xmlns="http://www.w3.org/2000/svg" viewBox="0 0 300.06 129.93"><defs><style>.cls-1{fill:#1e1f1d;stroke:#f09005;}.cls-1,.cls-2{stroke-miterlimit:10;stroke-width:0.41px;}.cls-2,.cls-3{fill:#f09005;}.cls-2{stroke:#1e1f1d;}.cls-4{fill:#1e1e1c;}.cls-5{fill:#fff;}</style></defs><g id="Capa_2" data-name="Capa 2"><g id="Capa_1-2" data-name="Capa 1"><path class="cls-1" d="M90.76,39.13V.2H.2V90.76H39.13v38.93h90.56V39.13ZM12.91,78.05V12.91H78.05V39.13H39.13V78.05ZM81.23,61.43l-13.63,9L61.77,87.33,48.66,51.84ZM117,117H51.84V90.76H90.76V51.84H117Z"/><polygon class="cls-2" points="81.23 61.43 67.59 70.39 61.77 87.33 48.66 51.84 81.23 61.43"/><rect class="cls-3" x="141.41" y="84.41" width="158.66" height="32.81"/><path class="cls-4" d="M152,43.85h18.9v7.71h-9.56v6.58h8.42v7.48h-8.42V79.86H152Z"/><path class="cls-4" d="M177,43.85h10.89q6.6,0,10.42,3a9.67,9.67,0,0,1,3.82,8.07,9.77,9.77,0,0,1-1.45,5.06,9,9,0,0,1-4.22,3.68L204,79.86H194.1l-7.56-16.4h-.15v16.4H177Zm9.35,7v8.55q6.2-.11,6.2-3.81A4.18,4.18,0,0,0,191.15,52,8.37,8.37,0,0,0,186.39,50.81Z"/><path class="cls-4" d="M209.23,43.85h18.91v7.66h-9.56v6.63h8.29v7.48h-8.29v6.55h9.62v7.69h-19Z"/><path class="cls-4" d="M235.57,43.85h8.72q9.08,0,13.79,4.51t4.71,13.21q0,6.58-2.32,10.63A13.54,13.54,0,0,1,254,78.05a22.94,22.94,0,0,1-9.24,1.81h-9.15Zm9.34,7.66V72.17q4.26-.32,6-2.63c1.17-1.53,1.76-4.07,1.76-7.59a19.67,19.67,0,0,0-.62-5.3,7.31,7.31,0,0,0-1.83-3.35,5.23,5.23,0,0,0-2.38-1.44A16.21,16.21,0,0,0,244.91,51.51Z"/><path class="cls-4" d="M262.89,43.85h10.48q3.48,7.77,5.06,12h.12c1.05-2.87,2.71-6.87,5-12h10.73l-11,19.72V79.86h-9.47V63.57Z"/><path class="cls-4" d="M146.52,120.85h2.84a3.68,3.68,0,0,1,2.41.75,2.64,2.64,0,0,1,0,4,4,4,0,0,1-2.54.73h-.39v3.37h-2.3Zm2.3,1.69v2.09a2.16,2.16,0,0,0,1.13-.26.85.85,0,0,0,.37-.77.92.92,0,0,0-.35-.81A2.2,2.2,0,0,0,148.82,122.54Z"/><path class="cls-4" d="M154.41,120.85h2.67a4,4,0,0,1,2.55.73,2.35,2.35,0,0,1,.94,2,2.48,2.48,0,0,1-.35,1.24,2.24,2.24,0,0,1-1,.9l1.83,4h-2.42l-1.85-4h0v4h-2.29Zm2.29,1.71v2.09c1,0,1.52-.32,1.52-.93a1,1,0,0,0-.35-.88A2,2,0,0,0,156.7,122.56Z"/><path class="cls-4" d="M165.6,129.9a3.37,3.37,0,0,1-2.8-1.22,5.66,5.66,0,0,1-1-3.55,5.18,5.18,0,0,1,1-3.33,3.25,3.25,0,0,1,2.69-1.2,3.42,3.42,0,0,1,2.81,1.2,5.3,5.3,0,0,1,1,3.42,5.5,5.5,0,0,1-1,3.46A3.25,3.25,0,0,1,165.6,129.9Zm-.09-7.29c-.82,0-1.24.85-1.24,2.55a5,5,0,0,0,.32,2.19,1,1,0,0,0,.91.55,1.09,1.09,0,0,0,1-.55,4.49,4.49,0,0,0,.35-2.15C166.83,123.47,166.39,122.61,165.51,122.61Z"/><path class="cls-4" d="M171,120.85h2.14a4.73,4.73,0,0,1,3.39,1.11,4.29,4.29,0,0,1,1.15,3.24,5.26,5.26,0,0,1-.57,2.61,3.29,3.29,0,0,1-1.59,1.43,5.61,5.61,0,0,1-2.27.45H171Zm2.29,1.88v5.07a1.93,1.93,0,0,0,1.48-.65,3.09,3.09,0,0,0,.43-1.86A4.84,4.84,0,0,0,175,124a1.74,1.74,0,0,0-.45-.82,1.38,1.38,0,0,0-.58-.36A4.26,4.26,0,0,0,173.27,122.73Z"/><path class="cls-4" d="M179.15,120.85h2.35v6.22a.94.94,0,0,0,.26.69,1,1,0,0,0,.71.26,1,1,0,0,0,.73-.27,1,1,0,0,0,.27-.75v-6.15h2.34v5.8a4.41,4.41,0,0,1-.35,1.9,2.32,2.32,0,0,1-1.05,1,4.61,4.61,0,0,1-1.94.33,3.33,3.33,0,0,1-2.57-.82,4.08,4.08,0,0,1-.75-2.77Z"/><path class="cls-4" d="M193.19,127.6v2.1a4.74,4.74,0,0,1-1.3.2,4.23,4.23,0,0,1-3.23-1.3,4.84,4.84,0,0,1-1.24-3.44,4.52,4.52,0,0,1,1.25-3.27,4.2,4.2,0,0,1,3.16-1.29,4.92,4.92,0,0,1,1.36.18v2.1a4.35,4.35,0,0,0-1.24-.19,1.87,1.87,0,0,0-1.49.71,3.19,3.19,0,0,0,0,3.71,2,2,0,0,0,1.58.69A4.09,4.09,0,0,0,193.19,127.6Z"/><path class="cls-4" d="M193.91,120.85h5.47v2H197.8v6.82h-2.32v-6.82h-1.57Z"/><path class="cls-4" d="M204,129.9a3.35,3.35,0,0,1-2.79-1.22,5.66,5.66,0,0,1-1-3.55,5.18,5.18,0,0,1,1-3.33,3.27,3.27,0,0,1,2.69-1.2,3.4,3.4,0,0,1,2.81,1.2,5.3,5.3,0,0,1,1,3.42,5.5,5.5,0,0,1-1,3.46A3.28,3.28,0,0,1,204,129.9Zm-.08-7.29c-.83,0-1.24.85-1.24,2.55a5.06,5.06,0,0,0,.31,2.19,1,1,0,0,0,.91.55,1.12,1.12,0,0,0,1-.55,4.52,4.52,0,0,0,.34-2.15C205.19,123.47,204.76,122.61,203.88,122.61Z"/><path class="cls-4" d="M209.35,120.85H212a4.06,4.06,0,0,1,2.56.73,2.5,2.5,0,0,1,.58,3.22,2.19,2.19,0,0,1-1,.9l1.83,4h-2.42l-1.85-4h0v4h-2.29Zm2.29,1.71v2.09c1,0,1.52-.32,1.52-.93a1,1,0,0,0-.35-.88A2,2,0,0,0,211.64,122.56Z"/><path class="cls-4" d="M221.78,120.85h2.9c.41,1.9.73,3.54,1,4.92l.25-1.37c.1-.54.21-1.06.33-1.57l.44-2h3l1.15,8.84h-2.27l-.61-6.08-1.42,6.08h-1.55l-1.48-6.09-.59,6.09h-2.17Z"/><path class="cls-4" d="M232.53,120.85h2.35v6.22a.9.9,0,0,0,.27.69,1,1,0,0,0,.71.26,1,1,0,0,0,.73-.27,1,1,0,0,0,.27-.75v-6.15h2.33v5.8a4.27,4.27,0,0,1-.35,1.9,2.32,2.32,0,0,1-1.05,1,4.59,4.59,0,0,1-1.93.33,3.37,3.37,0,0,1-2.58-.82,4.08,4.08,0,0,1-.75-2.77Z"/><path class="cls-4" d="M241.27,120.85h2.29v6.79h1.82v2h-4.11Z"/><path class="cls-4" d="M245.89,120.85h5.47v2h-1.58v6.82h-2.32v-6.82h-1.57Z"/><path class="cls-4" d="M252.86,120.85h2.3v8.84h-2.3Z"/><path class="cls-4" d="M258.13,120.85H261c.41,1.9.74,3.54,1,4.92l.25-1.37c.1-.54.21-1.06.33-1.57l.44-2h3l1.15,8.84h-2.27l-.61-6.08-1.41,6.08h-1.55l-1.49-6.09-.59,6.09H257Z"/><path class="cls-4" d="M268.94,120.85h4.64v1.88h-2.35v1.63h2v1.83h-2v1.61h2.36v1.89h-4.65Z"/><path class="cls-4" d="M275.4,120.85h2.14a4.68,4.68,0,0,1,3.38,1.11,4.25,4.25,0,0,1,1.16,3.24,5.26,5.26,0,0,1-.57,2.61,3.29,3.29,0,0,1-1.59,1.43,5.61,5.61,0,0,1-2.27.45H275.4Zm2.29,1.88v5.07a1.93,1.93,0,0,0,1.48-.65,3.09,3.09,0,0,0,.43-1.86,4.84,4.84,0,0,0-.15-1.3,1.74,1.74,0,0,0-.45-.82,1.38,1.38,0,0,0-.58-.36A4.26,4.26,0,0,0,277.69,122.73Z"/><path class="cls-4" d="M283.71,120.85H286v8.84h-2.29Z"/><path class="cls-4" d="M295.31,129.69h-2.39l-.38-1.48h-2.42l-.4,1.48h-2.34l2.68-8.84h2.57Zm-3.21-3.07a34.79,34.79,0,0,1-.77-3.75h0a36.24,36.24,0,0,1-.77,3.75Z"/><path class="cls-5" d="M151.7,101A11,11,0,0,1,153,95.8a10.81,10.81,0,0,1,4-4.19,9.77,9.77,0,0,1,2-1,12.87,12.87,0,0,1,2.22-.55,16.72,16.72,0,0,1,2.51-.19q5.75,0,8.88,3.36A11.51,11.51,0,0,1,175,96.87a10.47,10.47,0,0,1,.8,4.09,10.7,10.7,0,0,1-3.25,7.77,11.82,11.82,0,0,1-8.79,3.29,12.21,12.21,0,0,1-8.68-3.1A10.31,10.31,0,0,1,151.7,101Zm9.26,0a11.19,11.19,0,0,0,.69,4.81,2.19,2.19,0,0,0,2.07,1.25,2.25,2.25,0,0,0,2.09-1.21c.46-.82.69-2.43.69-4.85a11.42,11.42,0,0,0-.68-4.78,2.21,2.21,0,0,0-2.1-1.26,2.25,2.25,0,0,0-2.07,1.21Q161,97.35,161,101Z"/><path class="cls-5" d="M191.51,111.87h-6.64l-6.81-16.41h-1.58V90.35H188v5.11h-1.81l3.17,9.09,3.33-9.09H190.9V90.35h8.6v5.11h-1.58Z"/><path class="cls-5" d="M213,111.69H200.87v-5.11h2V95.46h-2V90.35H213v5.11h-1.95v11.12H213Z"/><path class="cls-5" d="M235.93,111.69H215.58v-5.11h1.65V95.46h-1.68V90.35h20.38v6.83h-5.6V95.46h-4.84v3.28h4.21v4.34h-4.21v3.5h4.84v-1.72h5.6Z"/><path class="cls-5" d="M249.24,111.69h-9.92v-5.11H241V95.46h-1.67V90.35h10.21a30.52,30.52,0,0,1,5.71.43,11.24,11.24,0,0,1,4.19,1.76,9.3,9.3,0,0,1,3.06,3.65,10.94,10.94,0,0,1,.85,2.37,11.84,11.84,0,0,1,.29,2.63,11,11,0,0,1-1.18,5.07,9.21,9.21,0,0,1-3,3.48,9.67,9.67,0,0,1-3.84,1.58A40.77,40.77,0,0,1,249.24,111.69Zm0-16.23v11.12H250c1.95,0,3.21-.52,3.79-1.55a8,8,0,0,0,.86-3.9,10.59,10.59,0,0,0-.37-2.79A3.87,3.87,0,0,0,253,96.21a5.68,5.68,0,0,0-3.4-.75Z"/><path class="cls-5" d="M266.76,101a11,11,0,0,1,1.3-5.16,10.81,10.81,0,0,1,4-4.19,9.77,9.77,0,0,1,2-1,12.87,12.87,0,0,1,2.22-.55,16.72,16.72,0,0,1,2.51-.19q5.75,0,8.88,3.36A11.51,11.51,0,0,1,290,96.87a10.47,10.47,0,0,1,.8,4.09,10.7,10.7,0,0,1-3.25,7.77,11.82,11.82,0,0,1-8.79,3.29,12.21,12.21,0,0,1-8.68-3.1A10.31,10.31,0,0,1,266.76,101Zm9.26,0a11.19,11.19,0,0,0,.69,4.81,2.19,2.19,0,0,0,2.07,1.25,2.25,2.25,0,0,0,2.09-1.21c.46-.82.69-2.43.69-4.85a11.42,11.42,0,0,0-.68-4.78,2.21,2.21,0,0,0-2.1-1.26,2.25,2.25,0,0,0-2.07,1.21Q276,97.35,276,101Z"/></g></g></svg>