<svg xmlns="http://www.w3.org/2000/svg" viewBox="0 0 1512.26 988.04"><defs><style>.cls-1{fill:#f29100;}.cls-2{fill:#f19001;}</style></defs><g id="Capa_2" data-name="Capa 2"><g id="Capa_3" data-name="Capa 3"><path class="cls-1" d="M1452.49,42.24a39.45,39.45,0,0,0-4,10.14c-.85,3.54-1.62,7.74-.66,11.32,1.74,6.52,9.42,9.5,15.6,9.16a20.06,20.06,0,0,0,14.64-7.21,16.18,16.18,0,0,0,1.85-17.33c-2.72-5.79-9.14-10.43-15.74-9.56-2.07.28-4.11,1.65-4,4,.08,1.94,1.78,4.3,4,4a11,11,0,0,1,1.62-.11l.64,0c.92,0-.44-.23,0,0a8.5,8.5,0,0,0,1.36.37c.69.2.07,0-.07-.06.34.15.67.32,1,.5s.81.51,1.21.78c-.65-.42-.2-.17,0,0s.49.43.72.66.59.63.89,1c.68.73-.22-.44.08.09.15.28.37.54.55.81s.47.86.71,1.29c.5.89-.12-.49.06.09.08.26.19.51.28.77.15.47.25.94.37,1.42.07.23.14,1,0,0,0,.33.06.65.07,1s0,.86,0,1.3c0,1,.24-.78,0,.22-.06.21-.1.42-.15.63s-.12.42-.19.63c0,0-.38,1-.14.41s-.18.35-.19.38c-.15.28-.3.55-.46.82s-.24.34-.34.52c-.5.84.38-.36,0,.07s-.61.71-.94,1a14.4,14.4,0,0,1-1.17,1c.11-.09.66-.46,0,0-.26.18-.52.36-.79.52-.45.28-.91.54-1.39.78-.19.09-.39.17-.58.27.74-.36.26-.1.07,0a27.13,27.13,0,0,1-3.09.85c-1,.21.57,0,0,0-.26,0-.54,0-.8.06a13.84,13.84,0,0,1-1.44,0c-.27,0-1.7-.19-.69,0a14.6,14.6,0,0,1-1.72-.36c-.46-.13-.92-.28-1.37-.45.7.27-.62-.34-.84-.47a9.06,9.06,0,0,1-.77-.49c.56.39.07.06,0,0s-.42-.41-.62-.63-.16-.17.07.12c-.1-.15-.19-.3-.28-.46-.31-.35.16.81-.12-.26,0,0-.19-1.21-.15-.68a14,14,0,0,1,0-2.24c0-.36.06-.73.1-1.09s0-.29,0,0c0-.29.08-.58.13-.87.12-.72.27-1.44.43-2.16a30.05,30.05,0,0,1,3.27-8.44,4,4,0,0,0-6.92-4Z"/><path class="cls-1" d="M1383,70.17c-3.71,11.38,1.06,24.61,10.31,31.93,9.92,7.85,23.79,9.92,35.84,6.28,5.49-1.66,11-4.6,14.69-9a23.93,23.93,0,0,0,5.19-19A55.78,55.78,0,0,0,1446.57,70a33.09,33.09,0,0,0-3.88-8.51A18.41,18.41,0,0,0,1435,55a63.75,63.75,0,0,0-9.93-3.08c-7.79-2-15.77-3.45-23.79-2.14A27.06,27.06,0,0,0,1383.8,60c-1.26,1.69-.32,4.56,1.44,5.49a4.13,4.13,0,0,0,5.48-1.44c-.48.64.28-.31.32-.36l.5-.55a18,18,0,0,1,1.34-1.28l.58-.48c-.65.51.33-.22.38-.26.51-.35,1-.68,1.58-1s1.1-.59,1.66-.86c0,0,1.08-.45.56-.25s.64-.23.58-.21a28.72,28.72,0,0,1,3.65-1.05c.62-.13,1.24-.24,1.87-.34-.76.12.06,0,.25,0l1-.09a36.85,36.85,0,0,1,4.46-.05,49.13,49.13,0,0,1,9.06,1.31c3,.67,6.07,1.46,9.07,2.28a35,35,0,0,1,3.76,1.21c-.56-.22.24.11.37.18.31.15.61.3.91.47s.48.27.71.42.46.3.68.46c-.23-.17-.23-.17,0,0a12.2,12.2,0,0,1,1.26,1.23s.8,1,.35.4l.45.64a25.61,25.61,0,0,1,1.81,3.38c-.21-.49.28.73.24.63.1.25.19.5.28.75.23.63.44,1.26.64,1.89.49,1.5.94,3,1.32,4.55a25.89,25.89,0,0,1,1,8.38,14.09,14.09,0,0,1-.63,3.56c-.1.34-.22.69-.34,1-.07.18-.4.9-.08.21-.28.6-.58,1.19-.91,1.75s-.64,1-1,1.49.61-.68-.14.17l-.47.54c-.41.44-.83.87-1.27,1.28l-.67.6c-.12.1-1.1.87-.46.4a29.84,29.84,0,0,1-2.77,1.8c-.54.3-1.08.59-1.64.86-.27.14-.56.27-.84.4l-.51.22c.39-.16.36-.16-.07,0a43.19,43.19,0,0,1-7.24,1.93c-.12,0-.79.12-.12,0l-1,.11c-.6.06-1.19.11-1.79.14a37.48,37.48,0,0,1-4.37,0c-.6,0-1.19-.09-1.79-.15-.17,0-1-.12-.31,0l-.79-.12a36.07,36.07,0,0,1-4.24-1,31.67,31.67,0,0,1-3.35-1.17c.73.3-.45-.21-.48-.22l-.71-.34c-.7-.35-1.39-.73-2.06-1.13s-1.12-.69-1.66-1.06l-1-.69c.51.38-.32-.28-.4-.35a26.64,26.64,0,0,1-2.89-2.83l-.71-.85c.43.53-.17-.22-.27-.36-.39-.55-.77-1.12-1.13-1.69s-.68-1.17-1-1.77c-.14-.27-.28-.55-.41-.83s-.57-1.31-.27-.55a27.7,27.7,0,0,1-1.24-3.84c-.15-.66-.25-1.32-.39-2s.08,1,0-.2c0-.36-.07-.72-.1-1.09a26.59,26.59,0,0,1,.08-4c.1-1.17-.18.78.06-.37.07-.36.13-.72.21-1.07a21.21,21.21,0,0,1,.59-2.11,4,4,0,0,0-2.8-4.93,4.1,4.1,0,0,0-4.93,2.8Z"/><path class="cls-1" d="M1354.89,32.68a257,257,0,0,0-7.65,49q-.73,12.3-.24,24.65c.09,2,.17,4.09.33,6.13a12,12,0,0,0,1.64,6c2.42,3.55,6.51,4.2,10.52,4.21q25.59,0,51.18,0h83.39a40,40,0,0,0,6.47-.23,7.83,7.83,0,0,0,5.33-3.47,13.1,13.1,0,0,0,1.59-5.4,435.21,435.21,0,0,0,4.61-50.73q.39-12.66,0-25.31c-.12-4.18-.26-8.36-.55-12.53-.17-2.59-.86-5-3.15-6.49-1.81-1.18-4.1-1.08-6.18-1.06l-51.12.29-51.12.3c-8.12,0-16.3-.17-24.38.7a65.21,65.21,0,0,0-12.08,2.3c-3.77,1.15-7,2.88-9.32,6.18-2.1,3-2.23,7.3.7,9.84a4.08,4.08,0,0,0,5.66,0c1.39-1.51,1.69-4.2,0-5.67-.34-.3-.48-.79-.13,0,.46,1,.13-.35.19.8,0-.86-.3.87,0,0s-.49.71,0-.11c.17-.27.32-.54.49-.8-.52.78.1-.07.22-.2s.49-.47.74-.7.35-.3,0,0c.19-.14.38-.26.57-.38s.59-.33.88-.5c.93-.51-1,.27.37-.13.73-.22,1.45-.48,2.19-.7a54.23,54.23,0,0,1,5.8-1.35,80.75,80.75,0,0,1,10.39-1c3.9-.16,7.81-.16,11.71-.18l48.38-.28,48.38-.28,12-.07c.45,0,.9,0,1.35,0h.35c.48,0,.47,0,0,0l.33.09a2,2,0,0,1-1.09-.74l-.14-.26c.09.48.1.5,0,.08.22,2.08.24,4.19.33,6.28q.53,11.77.39,23.58a424.55,424.55,0,0,1-3.21,47.55c-.47,3.82-.86,7.42-1.59,11.34-.06.36-.17.71-.24,1.06-.1.55-.21.1,0,0l-.17.31c.3-.33.28-.33,0,0,.24-.16.88-.37.14-.21-1.12.24.73.06-.44.06l-1.15,0H1360.74c-.85,0-1.7,0-2.55,0-.36,0-.72,0-1.07-.06-1.1-.07.69.25-.34-.06-.33-.1-.66-.17-1-.28.84.29-.08-.09-.24-.19,1,.64-.57-.34.23.2l-.2-.34c.13.37.13.32,0-.13,0-.05-.25-1.32-.14-.51-.05-.4-.07-.81-.1-1.21-.06-.95-.11-1.91-.16-2.86q-.17-3.12-.24-6.22c-.1-3.83-.12-7.67,0-11.5A242.79,242.79,0,0,1,1360,46q1.18-5.62,2.61-11.19a4,4,0,1,0-7.72-2.13Z"/><path class="cls-1" d="M1485.38,15.81l.73-11A4.08,4.08,0,0,0,1483.17.9c-3.6-1.28-7.46-1-11.15-.32a46.73,46.73,0,0,0-9.51,2.7,13.15,13.15,0,0,0-7.36,7,9.68,9.68,0,0,0,1.58,10.34,4,4,0,0,0,5.67,0,4.1,4.1,0,0,0,0-5.67c.6.68,0,.19,0,0-.1-.48.15.75,0,0,0-.08-.15-1-.1-.34s0-.23,0-.36c0-.9-.22.73,0-.15,0-.2.11-.4.16-.6.22-.92-.39.63.06-.21.1-.19.19-.37.3-.55s.7-.76.11-.21c.15-.14.28-.3.42-.45s1-.74.27-.27l.58-.39c.5-.31,1-.56,1.54-.83-.75.39.24-.09.35-.13l.85-.29a56.74,56.74,0,0,1,7.4-1.84c.33-.07.67-.12,1-.17-.57.08.09,0,.33,0a18.81,18.81,0,0,1,2-.09l1,0c.73,0-.12-.07.3,0a19.61,19.61,0,0,1,2.09.57l-2.94-3.87-.73,11.05a4,4,0,0,0,4,4,4.1,4.1,0,0,0,4-4Z"/><path class="cls-1" d="M1264.58,444.67c-7.35-.73-14.53,3.15-19.19,8.64-5.35,6.31-7.46,14.32-8.2,22.41-.79,8.67-.39,17.53,0,26.21.2,4.27.38,8.58.91,12.82.5,4,1.36,7.94,3.53,11.34,4.29,6.73,12.1,9.06,19.43,10.86,6.47,1.58,13,2.94,19.35,5,5.7,1.89,11.41,4.54,15.66,8.7,4.45,4.36,6.44,10.17,8.88,15.83,2.5,5.81,5.85,11.35,12.06,13.67,4.07,1.53,8.67,1,12.73-.29a55.88,55.88,0,0,0,10.74-4.58,20.94,20.94,0,0,0,7.63-6.72,11.46,11.46,0,0,0,.56-10.87c-1.38-3.2-3.51-5.73-2.6-9.37,1-3.88,3.55-7.22,5.56-10.6,8.31-14,14.74-29.86,14.62-46.36-.12-14.79-5.57-30.14-17.13-39.83-6.43-5.39-14-9-21.75-12.17a103.24,103.24,0,0,0-24.65-7.05c-15.41-2.21-32,0-44.82,9.34a46.36,46.36,0,0,0-8,7.31,3.24,3.24,0,0,0,0,4.46,3.19,3.19,0,0,0,4.47,0c8.82-10.32,22.31-15.32,35.59-15.65a77.91,77.91,0,0,1,24,3.47,115.54,115.54,0,0,1,21.88,8.93c6.21,3.34,11.93,7.69,15.89,13.46a47.24,47.24,0,0,1,7.43,18.47c2.62,14.25-1.17,29.28-7.45,42.31-1.7,3.52-3.58,7-5.58,10.31s-4.4,6.82-5.72,10.68a14.74,14.74,0,0,0,1,11.8,23.63,23.63,0,0,1,2,4.37,5.6,5.6,0,0,1,.12,1.6s-.07.53,0,.21-.07.27-.09.34-.33,1-.14.56c-1,2.42-3.24,4-5.66,5.38a47.88,47.88,0,0,1-9.32,4,20,20,0,0,1-5.42,1,10.85,10.85,0,0,1-2.35-.16,10.62,10.62,0,0,1-1.26-.34l-.56-.19c-.5-.19.35.17-.12,0a12.82,12.82,0,0,1-1.73-1c-.12-.08-.69-.53-.32-.22a11.28,11.28,0,0,1-.89-.8,16.32,16.32,0,0,1-1.32-1.44c-.22-.28,0,0,0,0l-.27-.37c-.21-.3-.41-.59-.6-.9-3.28-5.12-4.5-10.51-7.48-15.95a33.74,33.74,0,0,0-13.24-13,74.82,74.82,0,0,0-17.92-6.68c-6.25-1.63-12.72-2.72-18.84-4.81a18.4,18.4,0,0,1-8-4.85c-2.13-2.39-3-5.66-3.5-8.83a111.21,111.21,0,0,1-.9-11.4q-.34-6.69-.44-13.39c-.11-7.72-.29-15.69,1.86-23.18,1.82-6.36,5.53-11.86,11.35-14.85a15.36,15.36,0,0,1,4-1.38,8.72,8.72,0,0,1,1.66-.21,18.11,18.11,0,0,1,2.55.08,3.18,3.18,0,0,0,3.15-3.15,3.22,3.22,0,0,0-3.15-3.16Z"/><path class="cls-1" d="M1321.45,578.23c-2.71,9.81,5.57,19.82,15.3,20.74,9.28.87,15.87-7.67,16.15-16.27a15.5,15.5,0,0,0-5.18-12.43,3.23,3.23,0,0,0-4.46,0,3.17,3.17,0,0,0,0,4.46,11.21,11.21,0,0,1,1.61,1.62c-.46-.57.2.32.3.48.22.36.41.72.6,1.09.08.17.26.7,0,.05,0,.16.11.31.17.47s.2.63.29,1,.18.81.26,1.23c0,.17,0,.59,0-.09,0,.25,0,.51.07.76a15.72,15.72,0,0,1,0,2.17c0,.21,0,.42-.07.63,0-.11.13-.66,0-.07-.09.41-.16.83-.27,1.25a10.68,10.68,0,0,1-.33,1.1c-.06.19-.5,1.23-.19.56a16,16,0,0,1-1.16,2.1l-.28.41c-.29.41.49-.54,0,.06-.22.25-.44.5-.67.74s-.54.52-.82.77-.6.43,0,.05l-.62.42c-.29.18-.58.34-.88.49l-.45.22c.62-.29.09,0-.08,0-.41.12-.81.26-1.24.35l-.58.11c.66-.11-.26,0-.33,0a11.42,11.42,0,0,1-1.17,0s-.92-.08-.45,0-.47-.09-.44-.08a11.19,11.19,0,0,1-1.14-.29l-.56-.18c-.13,0-.83-.34-.34-.11a14.76,14.76,0,0,1-2.32-1.32c-.17-.11-.33-.23-.49-.35.43.33-.08-.07-.18-.16-.37-.33-.74-.67-1.09-1l-.51-.55c-.07-.09-.61-.75-.26-.29a14.87,14.87,0,0,1-.83-1.24c-.26-.42-.48-.86-.7-1.3,0-.09-.23-.56,0-.06-.1-.27-.2-.55-.29-.83-.15-.47-.25-.94-.37-1.41s0-.18,0,0a8.5,8.5,0,0,1-.07-.87,10.83,10.83,0,0,1,0-1.61c0-.5-.1.46,0,0,.08-.34.15-.68.24-1a3.15,3.15,0,1,0-6.08-1.68Z"/><path class="cls-1" d="M1323.34,535.84a104.22,104.22,0,0,1-6.75-49.91c.19-1.69-1.58-3.15-3.15-3.15a3.23,3.23,0,0,0-3.16,3.15,108.14,108.14,0,0,0,7,51.58,3.26,3.26,0,0,0,3.88,2.21c1.51-.42,2.84-2.29,2.2-3.88Z"/><path class="cls-1" d="M1312.25,482.85l-15.6,6.52a3.2,3.2,0,0,0-2.26,3.46,3.13,3.13,0,0,0,3.1,2.74,47.87,47.87,0,0,0,25.44-10.05c1.34-1,1.1-3.36,0-4.46a3.23,3.23,0,0,0-4.47,0,40.61,40.61,0,0,1-21,8.2l.84,6.19,15.59-6.51a3.27,3.27,0,0,0,2.21-3.88c-.41-1.49-2.3-2.87-3.88-2.21Z"/><path class="cls-2" d="M5.56,959.4q16.44-13.17,32-27.35A3.27,3.27,0,0,0,33,927.43Q17.4,941.61,1,954.79c-1.38,1.1-1.15,3.46,0,4.61a3.33,3.33,0,0,0,4.61,0Z"/><path class="cls-2" d="M3.09,964.71l42,20.13a3.36,3.36,0,0,0,4.46-1.17,3.3,3.3,0,0,0-1.17-4.47l-42-20.13a3.36,3.36,0,0,0-4.47,1.17,3.31,3.31,0,0,0,1.17,4.47Z"/><path class="cls-2" d="M50.59,987c13.51-13.52,18.61-38.67,4.71-53.79a20,20,0,0,0-13.67-6.64,3.3,3.3,0,0,0-3.27,3.26,3.33,3.33,0,0,0,3.27,3.27c.1,0,1.36.14.82,0a11.91,11.91,0,0,1,1.32.28c.42.11.85.24,1.26.38.21.08.42.15.62.24-.5-.22.42.21.42.21a16.25,16.25,0,0,1,2.26,1.38c.53.38.25.19.14.1l.52.43c.42.37.83.76,1.23,1.16a23.69,23.69,0,0,1,5.38,9.25c2.43,7.65,1.51,16.51-1.61,23.9a37.08,37.08,0,0,1-8,11.91c-3,3,1.64,7.59,4.61,4.61Z"/><path class="cls-2" d="M55.24,987.63c6.82-3.52,14.68-3.44,22.18-3.47a197.18,197.18,0,0,0,26.37-2c18-2.51,36-5.52,53.94-8.31l30.61-4.75c1.74-.27,2.7-2.45,2.28-4a3.36,3.36,0,0,0-4-2.28l-54.55,8.46c-17.59,2.73-35.25,6.24-53.11,6.33-9.19,0-18.62,0-27,4.37a3.26,3.26,0,1,0,3.29,5.63Z"/><path class="cls-2" d="M35.16,930.55c10.05-2.37,20.39-2.63,30.66-3.12q16.17-.76,32.33-1.93,32.07-2.31,64-6.22,18.24-2.22,36.4-5c1.74-.26,2.7-2.46,2.28-4a3.36,3.36,0,0,0-4-2.28q-31.72,4.77-63.66,7.94T69,920.75c-11.91.59-24,.76-35.6,3.51a3.26,3.26,0,0,0,1.73,6.29Z"/><path class="cls-2" d="M189.75,970.11a83.2,83.2,0,0,0,19.94-2.42,8.32,8.32,0,0,0,3.92-2.09,9.86,9.86,0,0,0,2.12-4.61q1.32-4.92,2.34-9.92A142.64,142.64,0,0,0,221,931.26a14.71,14.71,0,0,0-6-14.08c-1.1-.88-2.25-1.69-3.4-2.49-.51-.35-1-.7-1.52-1.06l-.49-.36c-.11-.08-.74-.56-.3-.21a16.91,16.91,0,0,1-2.53-2.4c.41.48,0,0-.08-.13l-.5-.85c-.06-.1-.27-.56,0,0a8.28,8.28,0,0,1-.35-1.1c-1.06-4.06-7.36-2.34-6.29,1.73,1.15,4.42,4.71,7.17,8.28,9.65.77.53,1.53,1,2.28,1.59l.49.37c-.53-.4.26.21.3.24.39.32.77.65,1.13,1s.68.71,1,1.08c.08.08.36.49,0,0l.33.48a7.68,7.68,0,0,1,1.12,3.08c.36,2.6-.14,5.58-.46,8.24q-.54,4.5-1.34,9c-.54,3-1.17,6-1.87,9-.33,1.42-.68,2.84-1,4.25-.2.75-.38,1.51-.61,2.25-.07.21-.43.76-.09.45-.44.4,0,.05-.52.24-.33.11-.69.18-1,.27-.78.18-1.56.34-2.35.5-1.59.32-3.2.6-4.81.83a82.42,82.42,0,0,1-10.53.72c-4.2,0-4.21,6.57,0,6.53Z"/><path class="cls-2" d="M204,911.87l27.52-3.54a3.36,3.36,0,0,0,3.26-3.26c0-1.59-1.5-3.49-3.26-3.26L204,905.35a3.37,3.37,0,0,0-3.26,3.26c0,1.59,1.5,3.49,3.26,3.26Z"/><path class="cls-2" d="M208.12,970.08l19.56-1.51c5.15-.39,11.87-.17,14.82-5.33,2.08-3.65-3.56-6.94-5.64-3.29a3.55,3.55,0,0,1-.34.55c.34-.41-.16.1-.23.14-.45.28.37-.2-.1.05-.23.12-.46.27-.7.38.4-.18-.59.17-.78.22-.49.13-1,.22-1.5.3-.23,0-.22,0,0,0l-.34,0-.67.07-2.06.16-4.46.34-17.58,1.35a3.36,3.36,0,0,0-3.26,3.27,3.29,3.29,0,0,0,3.26,3.26Z"/><path class="cls-2" d="M245,960.5c2.3-8.18,4.77-16.33,6.9-24.56a26.17,26.17,0,0,0,.7-12.27,24.1,24.1,0,0,0-4.65-9.31,64.1,64.1,0,0,0-8.31-8.57,3.34,3.34,0,0,0-4.61,0,3.3,3.3,0,0,0,0,4.62,54.71,54.71,0,0,1,8.24,8.52,15.44,15.44,0,0,1,3.22,10.8,35.9,35.9,0,0,1-1.45,6.54c-.71,2.55-1.43,5.09-2.15,7.64l-4.18,14.86c-1.14,4.05,5.15,5.77,6.29,1.73Z"/><path class="cls-2" d="M244.48,908.36c-.53.22.5-.16.48-.15.22-.07.43-.14.65-.19s.54-.13.81-.19.84-.14.28-.07a13.5,13.5,0,0,1,3.3,0c-.65-.08.42.08.45.09l.65.14a14.9,14.9,0,0,1,1.61.48,6.92,6.92,0,0,1,1.11.44c.51.26,1,.51,1.51.8a17.17,17.17,0,0,1,4.75,4.16A18.11,18.11,0,0,1,263,920c1.33,5.16.58,10.67-1.13,15.75-1.64,4.85-4.08,9.61-8.44,11.93a74,74,0,0,1-7,2.85,22.63,22.63,0,0,0-7.79,4.76c-3,3,1.65,7.6,4.62,4.61a18.12,18.12,0,0,1,6.26-3.61,51.75,51.75,0,0,0,7.82-3.33c5.62-3.26,8.69-9.32,10.73-15.27a34.14,34.14,0,0,0,1.2-19.42,23.19,23.19,0,0,0-10-13.86,19.23,19.23,0,0,0-18-1.73c-1.62.69-2,3.08-1.17,4.47,1,1.68,2.84,1.86,4.47,1.17Z"/><path class="cls-2" d="M65.12,959.8H81.46a3.26,3.26,0,1,0,0-6.52H65.12a3.26,3.26,0,0,0,0,6.52Z"/><path class="cls-2" d="M218.34,933.51,201.09,939a3.26,3.26,0,0,0,1.73,6.29l17.25-5.47a3.26,3.26,0,1,0-1.73-6.29Z"/><path class="cls-2" d="M5.52,959l2,1.55a3.29,3.29,0,0,0,3.18.84l3.09-1.25-3.69-1.5,3.19,5a3.29,3.29,0,0,0,6-.78,26.3,26.3,0,0,0-.06-14.74l-5.45,3.17c.33.32.61.67.91,1-.62-.7-.13-.15,0,0l.35.58c.1.17.19.35.28.52s.12.23.17.35c.14.32.11.24-.1-.24a7.68,7.68,0,0,0,.4,1.2c.12.41.17.83.27,1.24-.24-1,0-.18,0,.1s0,.39,0,.59c0,.44-.11.92-.07,1.36-.06-.73.07-.47,0-.1s-.11.51-.18.76a3.26,3.26,0,1,0,6.29,1.73,14.35,14.35,0,0,0-3.73-13.76,3.26,3.26,0,0,0-5.45,3.17,28.49,28.49,0,0,1,.7,3c0,.37,0,.31,0-.16l.06.48.06.72c0,.51.06,1,.06,1.55s0,1-.05,1.56c0,.24,0,.48,0,.72s-.15,1-.06.52-.07.42-.09.51-.09.47-.14.71c-.12.54-.26,1.09-.41,1.62l6-.78-3.18-5A3.33,3.33,0,0,0,12,953.8l-3.09,1.26,3.18.84-2-1.55a3.51,3.51,0,0,0-2.3-1,3.33,3.33,0,0,0-2.31,1c-1.08,1.17-1.43,3.48,0,4.61Z"/><path class="cls-1" d="M17.71,486.43,14,544.76,10.2,602.85,8.32,632c-.29,4.53-.84,9.12-.82,13.66,0,4.1,1.47,8,5.55,9.61A15.9,15.9,0,0,0,19,656c2.31,0,4.62-.12,6.92-.21,4.63-.19,9.25-.46,13.87-.77,9.34-.63,18.67-1.42,28-2,18.28-1.16,36.85-1.61,54.92,1.84,2.26.43,4.5.92,6.74,1.47a2.64,2.64,0,0,0,3.14-1.79,315.74,315.74,0,0,0,16.15-53.66,324.71,324.71,0,0,0,6.53-55.67A318.88,318.88,0,0,0,152,489.06c-.31-2.07-.72-4.17-2.33-5.65s-4-1.81-6.15-1.86c-5.08-.12-10.16-.18-15.24-.27l-30.72-.53-61.46-1.08-7.49-.13c-3.29-.06-3.29,5.06,0,5.11l60,1.05,30,.53,15,.26,7.49.13c1.15,0,2.29,0,3.43.08a3,3,0,0,1,1.74.44c.51.45.58,1.42.69,2.05.19,1.08.33,2.17.48,3.26q.47,3.27.85,6.56.79,6.8,1.3,13.62,1,13.65.81,27.35a315.79,315.79,0,0,1-5.4,54.19,315.65,315.65,0,0,1-14.73,52.66c-.8,2.13-1.63,4.26-2.48,6.37l3.14-1.78c-17.79-4.35-36.2-4.81-54.41-4s-36.49,2.9-54.79,3.4c-2.62.07-7.5,1-8.62-2.28a12.83,12.83,0,0,1-.3-4.9c.14-2.39.3-4.78.46-7.16L15,608.09l3.7-57.34,3.7-57.34.45-7a2.58,2.58,0,0,0-2.56-2.56,2.61,2.61,0,0,0-2.56,2.56Z"/><path class="cls-1" d="M30.32,504.53c-2,3.58-3.68,7.53-1.85,11.54s6.54,4.44,10.44,3.85a10.9,10.9,0,0,0,8.91-6.77,8,8,0,0,0-3.08-9.24c-2.74-2-6.52-2.35-9.79-2.26a2.56,2.56,0,0,0,0,5.12,22.89,22.89,0,0,1,3.41.14c-.64-.07.15,0,.32.07s.53.1.79.17.51.13.76.21,1.08.43.48.15a13.69,13.69,0,0,1,1.3.71c.13.08.34.3-.08-.08.09.09.19.16.28.24l.25.25.15.14c-.28-.27.08.12.12.18l.18.31c.06.11.11.22.16.33,0-.09-.16-.52,0-.09,0,.17.19.93.14.37a8.17,8.17,0,0,1,0,1c0,.37.12-.39,0,0,0,.14-.06.29-.1.43s-.1.28-.14.42c-.08.37.19-.32,0,0s-.28.53-.44.78c0,.06-.31.45-.13.21s-.19.21-.23.26a5.76,5.76,0,0,1-2.83,1.67c-.33.1-.66.18-1,.25-.09,0-1.05.15-.59.1a16,16,0,0,1-2.3.09l-.52,0c.41,0,0,0-.08,0a5.47,5.47,0,0,1-1-.27c.42.18-.61-.49-.12-.07-.11-.09-.2-.19-.31-.29-.43-.39.18.36-.12-.14-.07-.12-.14-.24-.22-.36-.24-.4,0,.2,0-.08s-.19-.61-.26-.94,0-.06,0,0c0-.22,0-.43,0-.65s0-.29,0-.44c0-.45-.07.17,0-.15s.21-.88.36-1.32c.05-.17.12-.34.18-.51s.07-.17,0,0l.11-.25c.4-.83.84-1.64,1.29-2.44a2.56,2.56,0,0,0-4.42-2.58Z"/><path class="cls-1" d="M32.14,541.28a14.53,14.53,0,0,0,.44,11.9,10.39,10.39,0,0,0,11.78,5.1,10.16,10.16,0,0,0,7.3-9.17,9.83,9.83,0,0,0-1.2-5.64,9.13,9.13,0,0,0-4.73-4A10,10,0,0,0,34,543.17a2.58,2.58,0,0,0,.92,3.5,2.62,2.62,0,0,0,3.5-.92,1,1,0,0,1,.13-.2l.05-.07-.21.26c.06,0,.26-.3.31-.36l.34-.33.18-.15c.21-.23-.41.27-.15.11s.57-.38.87-.54l.22-.1c.22-.14-.23.1-.25.1a2.18,2.18,0,0,0,.52-.19c.31-.1.62-.17.93-.24a.93.93,0,0,0,.24,0s-.56,0-.28,0,.37,0,.56,0a9,9,0,0,1,1,0,1.05,1.05,0,0,0,.24,0s-.55-.1-.28,0l.55.11a4,4,0,0,0,.91.29s-.48-.23-.25-.1l.22.1.48.27c.14.08.26.18.4.26s-.2-.14-.2-.16a.9.9,0,0,0,.18.15l.4.39.16.18.11.12,0-.06c-.11,0-.14-.22,0,0a2.43,2.43,0,0,0,.14.2l.24.42c.05.1.23.58.11.2s.06.19.09.3a9,9,0,0,1,.23.93c.11.46,0-.52,0,0,0,.21,0,.43,0,.64s-.13.84,0,1c0,0,.09-.55,0-.28a2,2,0,0,1,0,.24,5.59,5.59,0,0,1-.12.56c-.08.31-.21.61-.3.93s.09-.23.11-.24-.09.2-.11.22-.16.34-.26.51-.19.32-.3.48l-.13.2c-.11.16,0,.19,0,0s.13-.15,0,0l-.16.18-.4.4s-.37.3-.37.32.43-.29.2-.16l-.2.14-.42.25-.27.14c-.06,0-.46.19-.15.08s-.27.08-.36.11l-.68.17-.3,0c-.31.07.18,0,.18,0s-.62,0-.71,0h-.6a2.53,2.53,0,0,1-.3,0l.18,0a11.4,11.4,0,0,1-1.28-.32c-.22-.07-.52-.24-.13,0-.18-.09-.37-.17-.54-.27s-.34-.21-.51-.32c-.42-.26,0,0,.06.07a1.55,1.55,0,0,0-.27-.23,7.28,7.28,0,0,1-.73-.74c-.06-.06-.11-.13-.17-.2s.15.18.14.18-.29-.42-.34-.51l-.3-.52-.17-.32c.18.31-.08-.23-.12-.35s-.15-.45-.21-.67a9.41,9.41,0,0,0-.25-1.22s.06.53,0,.23c0-.11,0-.23,0-.35s0-.42,0-.64a10.8,10.8,0,0,1,0-1.27l.06-.63c0-.3,0,.23,0,.22a1.36,1.36,0,0,1,.08-.44,13.72,13.72,0,0,1,.73-2.52,2.56,2.56,0,0,0-1.78-3.14,2.63,2.63,0,0,0-3.15,1.78Z"/><path class="cls-1" d="M28,580.46a13.58,13.58,0,0,0,3.13,12.21,13.25,13.25,0,0,0,11.27,4.07c2.36-.3,4.87-1.15,6.14-3.33a8.89,8.89,0,0,0,.93-3.19l.65-3.77.58-3.44a7.81,7.81,0,0,0,.1-3.75c-.74-2.33-3.39-3.4-5.45-4.29a11.12,11.12,0,0,0-7.51-.93,7.33,7.33,0,0,0-5.12,4.78,2.56,2.56,0,0,0,4.93,1.36c.16-.48.05-.14,0,0,.07-.14.15-.27.23-.4-.25.39.25-.24.36-.34-.35.31.36-.19.46-.25s.37-.17.13-.07.31-.1.37-.11,1-.15.5-.13a7.07,7.07,0,0,1,1,0,9.87,9.87,0,0,1,2.06.56,18.52,18.52,0,0,1,2,.94c.35.17.68.37,1,.54,0,0,.43.2.13.05.27.13.06.22.09.06l-.12-.5v.28c-.08.53,0,.31,0,.19-.06.46-.16.91-.24,1.37l-.49,2.92c-.3,1.74-.47,3.56-.93,5.26-.07.25-.25.52,0,.23a2.67,2.67,0,0,1-.38.37c.27-.2-.11,0-.14,0-.45.23-.24.13-.13.09a5.08,5.08,0,0,1-.51.17l-.53.14-.47.1a8.37,8.37,0,0,1-6.84-2.13A8,8,0,0,1,33.13,586c-.12-.4-.21-.8-.29-1.21,0,0-.06-.49,0-.13,0-.23,0-.46,0-.69,0-.41,0-.82,0-1.23,0,0,.06-.5,0-.14,0-.27.11-.54.17-.8a2.62,2.62,0,0,0-1.79-3.15A2.59,2.59,0,0,0,28,580.46Z"/><path class="cls-1" d="M26.69,624.61c3.22,7.2,11.44,11.4,19.15,10.26,2.13-.31,4.28-1.48,4.8-3.73a4.36,4.36,0,0,0-.9-3.61,20.14,20.14,0,0,0-2.1-2,5.14,5.14,0,0,1-1.52-4c0-.89,0,.16,0-.29,0-.21.07-.41.11-.62.08-.52.17-1.05.21-1.58a5.06,5.06,0,0,0-.68-3.18c-1.72-2.75-5.12-1.83-7.57-.81a22.21,22.21,0,0,0-6.66,4.22,2.56,2.56,0,0,0,3.61,3.62,16.78,16.78,0,0,1,4-2.7,13.16,13.16,0,0,1,1.93-.77,8.21,8.21,0,0,0,1.08-.32c-.08.27-.72-.6-.78-.69s0-.56,0,0c0,.12,0,.25,0,.37s-.06.58,0,.3,0,.24-.05.3a12.93,12.93,0,0,0-.3,2.71A10.24,10.24,0,0,0,43.92,629c.26.26.55.49.83.73a7.27,7.27,0,0,0,.92.84c.25.14,0,.07,0-.1s0-.2,0-.28c0-.31.17-.43.32-.66,0,0-.45.23-.08.07a4,4,0,0,1-.49.16c-.16,0-.94.16-.62.12A13.36,13.36,0,0,1,31.11,622a2.57,2.57,0,0,0-3.5-.92,2.63,2.63,0,0,0-.92,3.5Z"/><path class="cls-1" d="M81.39,509.92a139.77,139.77,0,0,0,25.53-1.35,2.57,2.57,0,0,0,1.79-3.14,2.64,2.64,0,0,0-3.15-1.79,133.81,133.81,0,0,1-24.17,1.17c-3.29-.13-3.29,5,0,5.11Z"/><path class="cls-1" d="M77,522.59c5.11-2.29,11.18-1.06,16.51-.33,6.14.84,12.33,1.39,18.08-1.39a2.58,2.58,0,0,0,.92-3.5,2.62,2.62,0,0,0-3.5-.92c-5,2.45-11.08,1.3-16.4.57-6.18-.86-12.34-1.47-18.19,1.16a2.58,2.58,0,0,0-.92,3.5,2.62,2.62,0,0,0,3.5.91Z"/><path class="cls-1" d="M83.68,541.92a32.73,32.73,0,0,1,7.7-2.19,30.68,30.68,0,0,1,3.53-.29,32.75,32.75,0,0,1,4.08.16,2.56,2.56,0,0,0,2.56-2.56A2.63,2.63,0,0,0,99,534.48,34.71,34.71,0,0,0,82.32,537a2.63,2.63,0,0,0-1.78,3.14c.38,1.18,1.82,2.34,3.14,1.79Z"/><path class="cls-1" d="M83.77,552.9a169.64,169.64,0,0,1,30.4.56,2.58,2.58,0,0,0,2.56-2.56,2.62,2.62,0,0,0-2.56-2.55,168.71,168.71,0,0,0-30.4-.56,2.62,2.62,0,0,0-2.56,2.56,2.58,2.58,0,0,0,2.56,2.55Z"/><path class="cls-1" d="M81.27,584.38a65.46,65.46,0,0,1,14.32-6,2.56,2.56,0,1,0-1.36-4.93A74.2,74.2,0,0,0,78.69,580a2.58,2.58,0,0,0-.92,3.5,2.62,2.62,0,0,0,3.5.92Z"/><path class="cls-1" d="M73.22,592.27c7.85-1.56,15.94-.39,23.77.65,8.09,1.07,16.18,2,24.28.5a2.56,2.56,0,0,0,1.78-3.14,2.61,2.61,0,0,0-3.14-1.79c-7.87,1.46-16,.23-23.81-.81-8.07-1.06-16.17-1.95-24.24-.34a2.56,2.56,0,0,0,1.36,4.93Z"/><path class="cls-1" d="M80.56,616.11a71.27,71.27,0,0,1,20.86,1.41,2.63,2.63,0,0,0,3.15-1.79,2.57,2.57,0,0,0-1.79-3.14A75.74,75.74,0,0,0,80.56,611,2.62,2.62,0,0,0,78,613.56a2.57,2.57,0,0,0,2.55,2.55Z"/><path class="cls-1" d="M77.33,628.59a400.64,400.64,0,0,1,61.68-.11,2.57,2.57,0,0,0,2.55-2.55,2.6,2.6,0,0,0-2.55-2.56,400.64,400.64,0,0,0-61.68.1A2.62,2.62,0,0,0,74.78,626a2.58,2.58,0,0,0,2.55,2.56Z"/><path class="cls-1" d="M637.72,510.68c6.92-6.3,9.68-15.68,16.12-22.36,6.61-6.85,15.68-11,24.5-14.17,9.74-3.52,20.43-5.91,30.8-4.26a36.07,36.07,0,0,1,21.37,11.24,26,26,0,0,1,6,12.3c1.16,5.79.61,11.84.15,17.68a2.93,2.93,0,0,0,5.85,0c.83-10.57,1.13-21.63-5.22-30.71a40,40,0,0,0-22.52-15.28c-10.73-2.87-22.22-1.51-32.73,1.63-10.09,3-20.34,7.34-28.6,14a47.44,47.44,0,0,0-10.74,12.93c-2.71,4.54-5.2,9.27-9.16,12.88a2.92,2.92,0,0,0,4.14,4.13Z"/><path class="cls-1" d="M638.36,513.24l-.77-.26c-.55-.65-.69-.77-.41-.33l-.07-.19a5.22,5.22,0,0,1,.18.56c.15.53.22,1.07.35,1.6a9.45,9.45,0,0,0,2.07,4,14,14,0,0,0,6.91,4,42.41,42.41,0,0,0,9.26,1.19c3.77.19,7.54.25,11.31.2,15.12-.17,30.25-1.5,45.34-2.45l25.68-1.61a3,3,0,0,0,2.93-2.92,3,3,0,0,0-2.93-2.93l-45.94,2.88c-7.53.47-15.07,1-22.63,1.14-3.76.08-7.54.08-11.3-.06a50.65,50.65,0,0,1-9-.8,13.49,13.49,0,0,1-3.59-1.25,4.34,4.34,0,0,1-2.15-2c-.3-.55-.51-2.25-.92-3.29a4.56,4.56,0,0,0-4.29-3.25c-3.77,0-3.78,5.84,0,5.85Z"/><path class="cls-1" d="M737.55,494.42c-8.81,2.27-18.26,3.57-27.21,1.3a26.9,26.9,0,0,1-17.75-13.81,18.17,18.17,0,0,1-1.73-11.3,3,3,0,0,0-2.05-3.6,3,3,0,0,0-3.6,2.05c-1.73,9.06,2.09,18.06,8.7,24.27,7.38,6.91,17.41,9.58,27.35,9.4a77,77,0,0,0,17.84-2.67c3.65-.94,2.1-6.59-1.55-5.64Z"/><path class="cls-1" d="M743.39,514.34a5.61,5.61,0,0,1,2.51-2.16,8.65,8.65,0,0,1,4.15-.64c3.18.13,6.65,2.12,9.58,3.93a66.18,66.18,0,0,0,9.89,5.3,44,44,0,0,0,9.51,2.66c13.49,2.23,28-.89,39-9.19a45.69,45.69,0,0,0,7.56-7.08c2.61-3.12,4.84-6.53,7.31-9.75,4-5.2,9.69-10.35,16.41-9.48,2.94.39,5,2.26,6.52,5,1.66,3.09,2.56,6.53,4.44,9.54,4.15,6.65,11.76,9.41,19.21,10.32,8.35,1,16.95-.46,25,2.39A30.23,30.23,0,0,1,922,531.71a3,3,0,0,0,3.6,2c1.38-.39,2.64-2.13,2-3.6a36.42,36.42,0,0,0-14.53-17.28,34.69,34.69,0,0,0-10.39-4.31,65.73,65.73,0,0,0-14-1.19c-7.1-.09-15.49-.12-21-5.11-2.58-2.31-3.79-5.46-5.1-8.59-1.54-3.68-3.35-7.18-6.77-9.46-6.59-4.39-15.55-1.71-21.23,2.89-6.25,5.05-9.71,12.59-15.26,18.29-9.37,9.6-23.14,14-36.4,12.69a43.62,43.62,0,0,1-18.71-6.66c-3.48-2.17-7.12-4.55-11.2-5.38a15.37,15.37,0,0,0-10.81,1.48,11,11,0,0,0-3.85,3.86c-1.94,3.24,3.12,6.18,5,3Z"/></g><g id="Capa_1-2" data-name="Capa 1"><path class="cls-1" d="M1166.6,915.07a438.49,438.49,0,0,1,3.23-83.84q1.61-11.85,3.87-23.59a3.28,3.28,0,0,0-2.23-3.93,3.22,3.22,0,0,0-3.93,2.24,445.71,445.71,0,0,0-8,85.23q0,12,.71,23.89a3.27,3.27,0,0,0,3.19,3.2,3.23,3.23,0,0,0,3.2-3.2Z"/><path class="cls-1" d="M1172.09,807.43l93.73-1,26.43-.27c4.11,0,4.12-6.43,0-6.39l-93.74,1-26.42.27c-4.11,0-4.13,6.43,0,6.39Z"/><path class="cls-1" d="M1172.85,924.7a16.73,16.73,0,0,1,6.07-4.3,27,27,0,0,1,3.74-1.17c.71-.17,1.42-.32,2.14-.44s1.3-.21,1.7-.25c6.46-.74,13-.3,19.49-.14l46.44,1.13,26.46.64c4.11.1,4.11-6.29,0-6.39L1231,912.61l-24-.58c-6.68-.16-13.46-.64-20.12.07-6.87.74-13.78,2.78-18.54,8.08a3.2,3.2,0,1,0,4.52,4.52Z"/><path class="cls-1" d="M1225.65,844.63l-4.7,15.23c-.78,2.54-1.82,5.25-1,7.91a7.59,7.59,0,0,0,4.17,4.63,17.35,17.35,0,0,0,6.12,1.36c2.59.18,5.2.28,7.8.33,5.21.11,10.43,0,15.63-.34s10.63-.93,15.9-1.71c1.2-.18,2.4-.38,3.59-.57a6,6,0,0,1,2.78-.05,2.15,2.15,0,0,1,1,.75,5.91,5.91,0,0,1,.86,1.89c1.37,4.37,1.62,9.28,1.9,13.82a143.11,143.11,0,0,1,0,15.5c-.54,11.57-2.23,23-3.94,34.5a3.31,3.31,0,0,0,2.23,3.93c1.51.41,3.68-.52,3.93-2.23,3.1-20.73,6.16-41.75,2.93-62.66-.63-4-1.6-8.73-5.47-10.92-2.42-1.38-5.08-1.15-7.71-.73-2.44.38-4.87.78-7.31,1.08a181.88,181.88,0,0,1-31.21,1.18c-1.3-.06-2.6-.1-3.9-.24.47.05-.63-.11-.8-.15a8.67,8.67,0,0,1-1.58-.46c.43.19-.49-.29-.62-.4.41.31,0,0,0-.07l-.13-.14c.14.16.12.1-.07-.18,0,0,.1.56,0,0a2.37,2.37,0,0,1,0-.65,9.52,9.52,0,0,1,.47-1.74c1.74-5.72,3.53-11.43,5.3-17.14,1.21-3.94-5-5.63-6.17-1.7Z"/><path class="cls-1" d="M1234.41,850.22l61.85,5.16,1.66.14.72.07c.59.08-.35-.07.23,0a4.25,4.25,0,0,1,2,.68c-.16-.14.2.44.09.14a3.49,3.49,0,0,1,.23,1.11c.1,1.21,0,2.45,0,3.66q0,7.59-.25,15.17-.53,15.3-2.08,30.53-1.75,17-4.83,33.79a3.29,3.29,0,0,0,2.23,3.94,3.23,3.23,0,0,0,3.93-2.24,452.77,452.77,0,0,0,7.06-63.82q.3-8,.33-15.9c0-2.46.26-5.16-.38-7.56a7.73,7.73,0,0,0-5.24-5.31c-2.25-.78-4.83-.76-7.18-1l-7.92-.67-16.08-1.34-36.37-3a3.2,3.2,0,1,0,0,6.39Z"/><path class="cls-1" d="M1278.89,941.55c-15.07-.28-29.49,11.3-32.2,26.19a3.28,3.28,0,0,0,2.23,3.93,3.23,3.23,0,0,0,3.93-2.23c2.25-12.32,13.73-21.73,26-21.5,4.12.07,4.12-6.32,0-6.39Z"/><path class="cls-1" d="M1302.64,941.11l7.36,19.3a3.28,3.28,0,0,0,3.93,2.24c1.52-.5,2.87-2.26,2.23-3.94l-7.36-19.3a3.28,3.28,0,0,0-3.93-2.24c-1.52.5-2.87,2.26-2.23,3.94Z"/><path class="cls-1" d="M1247.76,973.48a301.29,301.29,0,0,1,52.71.67c4.9.49,9.79,1.12,14.66,1.86a3.29,3.29,0,0,0,3.93-2.23c.42-1.51-.51-3.67-2.23-3.93a305.26,305.26,0,0,0-53.94-3.52c-5.05.12-10.09.38-15.13.75a3.27,3.27,0,0,0-3.19,3.2,3.23,3.23,0,0,0,3.19,3.2Z"/><path class="cls-1" d="M1289.33,810.75,1341.2,807a3.27,3.27,0,0,0,3.19-3.2,3.21,3.21,0,0,0-3.19-3.19l-51.87,3.73a3.27,3.27,0,0,0-3.19,3.2,3.21,3.21,0,0,0,3.19,3.19Z"/><path class="cls-1" d="M1307.5,921.23a83.48,83.48,0,0,1,35.49-2.52c3.16.45,6.56.61,9-1.86,2-2.07,2.8-5.14,3.71-7.81a163.42,163.42,0,0,0,4.86-17.38,171,171,0,0,0,4.07-36.22,164.24,164.24,0,0,0-.9-18,76.31,76.31,0,0,0-3.24-17c-2.1-6.08-5.46-11.5-10.63-15.39a21.47,21.47,0,0,0-16.86-4.21,3.22,3.22,0,0,0-2.23,3.93,3.27,3.27,0,0,0,3.93,2.23,13.42,13.42,0,0,1,5.84.38,17.74,17.74,0,0,1,5.78,3,23.71,23.71,0,0,1,7.64,10.79,62.27,62.27,0,0,1,3.23,14.89,165.73,165.73,0,0,1,1,17.1,163.08,163.08,0,0,1-3.08,33.21,166.58,166.58,0,0,1-4.19,16.6c-.81,2.62-1.65,5.26-2.64,7.82a3.15,3.15,0,0,1-1.12,1.75,5.93,5.93,0,0,1-2.54,0,101.54,101.54,0,0,0-19.28-.92,89.13,89.13,0,0,0-19.58,3.45c-3.94,1.16-2.26,7.33,1.7,6.16Z"/></g></g></svg>