<svg id="Capa_1" data-name="Capa 1" xmlns="http://www.w3.org/2000/svg" viewBox="0 0 662.59 547.47"><defs><style>.cls-1{fill:#f29100;}.cls-2{fill:#f19001;}</style></defs><g id="Capa_2" data-name="Capa 2"><g id="Capa_3" data-name="Capa 3"><path class="cls-1" d="M579.47,113.53c2.87-2.61,4-6.5,6.68-9.26s6.49-4.56,10.15-5.88c4-1.45,8.44-2.44,12.75-1.76a14.93,14.93,0,0,1,8.86,4.66,10.81,10.81,0,0,1,2.48,5.09,26.85,26.85,0,0,1,.06,7.33,1.22,1.22,0,0,0,2.43,0c.34-4.38.47-9-2.16-12.73a16.54,16.54,0,0,0-9.32-6.32c-4.45-1.2-9.2-.63-13.56.67a34.46,34.46,0,0,0-11.85,5.8,19.43,19.43,0,0,0-4.45,5.35,22.35,22.35,0,0,1-3.8,5.34,1.21,1.21,0,0,0,1.72,1.71Z" transform="translate(-57.68 -74.91)"/><path class="cls-1" d="M579.72,114.48l-.32-.11c-.22-.27-.28-.31-.16-.13l0-.08a2,2,0,0,1,.07.23c.06.22.09.45.15.67a3.82,3.82,0,0,0,.87,1.62,5.8,5.8,0,0,0,2.86,1.66,17.12,17.12,0,0,0,3.84.49c1.56.08,3.12.1,4.68.09,6.25-.07,12.52-.62,18.77-1l10.64-.66a1.22,1.22,0,1,0,0-2.43l-19,1.18c-3.12.19-6.24.41-9.37.47-1.56,0-3.13,0-4.69,0a21.19,21.19,0,0,1-3.73-.32,5.64,5.64,0,0,1-1.49-.53,1.75,1.75,0,0,1-.89-.83c-.12-.22-.21-.93-.38-1.36a1.88,1.88,0,0,0-1.78-1.34,1.21,1.21,0,0,0,0,2.42Z" transform="translate(-57.68 -74.91)"/><path class="cls-1" d="M620.82,106.68c-3.65.95-7.57,1.49-11.27.54a11.11,11.11,0,0,1-7.35-5.72,7.57,7.57,0,0,1-.73-4.68,1.24,1.24,0,0,0-.82-1.49,1.25,1.25,0,0,0-1.5.83,11.11,11.11,0,0,0,3.61,10,15.92,15.92,0,0,0,11.33,3.9,32.35,32.35,0,0,0,7.39-1.1,1.21,1.21,0,0,0-.64-2.34Z" transform="translate(-57.68 -74.91)"/><path class="cls-1" d="M623.22,114.94a2.33,2.33,0,0,1,1-.9,3.52,3.52,0,0,1,1.72-.26,9,9,0,0,1,4,1.63,27.32,27.32,0,0,0,4.1,2.19,19.23,19.23,0,0,0,3.94,1.11,21.36,21.36,0,0,0,16.16-3.82,18.88,18.88,0,0,0,3.13-2.93c1.08-1.29,2-2.7,3-4,1.65-2.15,4-4.29,6.8-3.92a3.54,3.54,0,0,1,2.7,2.07c.68,1.28,1.06,2.71,1.84,4,1.72,2.76,4.87,3.9,8,4.28,3.45.41,7-.19,10.37,1a12.51,12.51,0,0,1,6.31,5.09,12.68,12.68,0,0,1,.92,1.75,1.24,1.24,0,0,0,1.49.83,1.2,1.2,0,0,0,.83-1.49,15.15,15.15,0,0,0-6-7.16,14.14,14.14,0,0,0-4.27-1.77,27.5,27.5,0,0,0-5.8-.5c-2.94,0-6.42-.05-8.7-2.11a9.44,9.44,0,0,1-2.11-3.56,8.11,8.11,0,0,0-2.81-3.92c-2.73-1.82-6.43-.71-8.79,1.2-2.59,2.09-4,5.22-6.32,7.57a18.6,18.6,0,0,1-15.09,5.26,18,18,0,0,1-7.75-2.76,14.85,14.85,0,0,0-4.64-2.23,6.4,6.4,0,0,0-4.5.63,4.71,4.71,0,0,0-1.6,1.6,1.22,1.22,0,0,0,2.09,1.25Z" transform="translate(-57.68 -74.91)"/></g></g><g id="Capa_2-2" data-name="Capa 2"><g id="Capa_3-2" data-name="Capa 3"><path class="cls-1" d="M88.47,479.53c2.87-2.61,4-6.5,6.68-9.26s6.49-4.56,10.15-5.88c4-1.45,8.44-2.44,12.75-1.76a14.93,14.93,0,0,1,8.86,4.66,10.81,10.81,0,0,1,2.48,5.09,26.85,26.85,0,0,1,.06,7.33,1.22,1.22,0,0,0,2.43,0c.34-4.38.47-9-2.16-12.73a16.54,16.54,0,0,0-9.32-6.32c-4.45-1.2-9.2-.63-13.56.67A34.46,34.46,0,0,0,95,467.13a19.43,19.43,0,0,0-4.45,5.35,22.35,22.35,0,0,1-3.8,5.34,1.21,1.21,0,0,0,1.72,1.71Z" transform="translate(-57.68 -74.91)"/><path class="cls-1" d="M88.72,480.48l-.32-.11c-.22-.27-.28-.31-.16-.13l0-.08a2,2,0,0,1,.07.23c.06.22.09.45.15.67a3.82,3.82,0,0,0,.87,1.62,5.8,5.8,0,0,0,2.86,1.66,17.12,17.12,0,0,0,3.84.49c1.56.08,3.12.1,4.68.09,6.25-.07,12.52-.62,18.77-1l10.64-.66a1.22,1.22,0,1,0,0-2.43l-19,1.18c-3.12.19-6.24.41-9.37.47-1.56,0-3.13,0-4.69,0a21.19,21.19,0,0,1-3.73-.32,5.64,5.64,0,0,1-1.49-.53,1.75,1.75,0,0,1-.89-.83c-.12-.22-.21-.93-.38-1.36a1.88,1.88,0,0,0-1.78-1.34,1.21,1.21,0,0,0,0,2.42Z" transform="translate(-57.68 -74.91)"/><path class="cls-1" d="M129.82,472.68c-3.65.95-7.57,1.49-11.27.54a11.11,11.11,0,0,1-7.35-5.72,7.57,7.57,0,0,1-.73-4.68,1.24,1.24,0,0,0-.82-1.49,1.25,1.25,0,0,0-1.5.83,11.11,11.11,0,0,0,3.61,10,15.92,15.92,0,0,0,11.33,3.9,32.35,32.35,0,0,0,7.39-1.1,1.21,1.21,0,0,0-.64-2.34Z" transform="translate(-57.68 -74.91)"/><path class="cls-1" d="M132.22,480.94a2.33,2.33,0,0,1,1-.9,3.52,3.52,0,0,1,1.72-.26,9,9,0,0,1,4,1.63,27.32,27.32,0,0,0,4.1,2.19,19.23,19.23,0,0,0,3.94,1.11,21.36,21.36,0,0,0,16.16-3.82,18.88,18.88,0,0,0,3.13-2.93c1.08-1.29,2-2.7,3-4,1.65-2.15,4-4.29,6.8-3.92a3.54,3.54,0,0,1,2.7,2.07c.68,1.28,1.06,2.71,1.84,3.95,1.72,2.76,4.87,3.9,8,4.28,3.45.41,7-.19,10.37,1a12.51,12.51,0,0,1,6.31,5.09,12.68,12.68,0,0,1,.92,1.75,1.24,1.24,0,0,0,1.49.83,1.2,1.2,0,0,0,.83-1.49,15.15,15.15,0,0,0-6-7.16,14.14,14.14,0,0,0-4.27-1.77,27.5,27.5,0,0,0-5.8-.5c-2.94,0-6.42-.05-8.7-2.11a9.44,9.44,0,0,1-2.11-3.56,8.11,8.11,0,0,0-2.81-3.92c-2.73-1.82-6.43-.71-8.79,1.2-2.59,2.09-4,5.22-6.32,7.57a18.6,18.6,0,0,1-15.09,5.26,18,18,0,0,1-7.75-2.76,14.85,14.85,0,0,0-4.64-2.23,6.4,6.4,0,0,0-4.5.63,4.71,4.71,0,0,0-1.6,1.6,1.22,1.22,0,0,0,2.09,1.25Z" transform="translate(-57.68 -74.91)"/></g></g><g id="Capa_2-3" data-name="Capa 2"><g id="Capa_3-3" data-name="Capa 3"><path class="cls-1" d="M503.34,176a9,9,0,0,0-7.46,3.36,15.34,15.34,0,0,0-3.19,8.72,76.85,76.85,0,0,0,0,10.18c.08,1.66.15,3.34.36,5a10.48,10.48,0,0,0,1.36,4.4c1.67,2.62,4.71,3.53,7.56,4.23,2.52.61,5,1.16,7.52,2a15.65,15.65,0,0,1,6.09,3.38c1.73,1.7,2.51,3.95,3.45,6.15s2.28,4.42,4.69,5.32a7.7,7.7,0,0,0,4.95-.11,21.62,21.62,0,0,0,4.17-1.78,8.05,8.05,0,0,0,3-2.62A4.45,4.45,0,0,0,536,220c-.54-1.25-1.37-2.23-1-3.64a16.45,16.45,0,0,1,2.16-4.13c3.23-5.44,5.73-11.6,5.68-18,0-5.75-2.14-11.71-6.66-15.49a31.58,31.58,0,0,0-8.45-4.73,40.35,40.35,0,0,0-9.58-2.73c-6-.86-12.44,0-17.43,3.63a18.19,18.19,0,0,0-3.11,2.84,1.27,1.27,0,0,0,0,1.74,1.25,1.25,0,0,0,1.74,0c3.42-4,8.67-6,13.83-6.09a30.11,30.11,0,0,1,9.33,1.35,44,44,0,0,1,8.5,3.47,17.61,17.61,0,0,1,6.19,5.23,18.34,18.34,0,0,1,2.88,7.19c1,5.54-.45,11.37-2.89,16.44-.66,1.37-1.39,2.71-2.17,4a22.59,22.59,0,0,0-2.22,4.15,5.71,5.71,0,0,0,.39,4.59,9.67,9.67,0,0,1,.78,1.7,2.14,2.14,0,0,1,0,.62s0,.2,0,.08,0,.1,0,.13-.13.39,0,.22a4.71,4.71,0,0,1-2.2,2.09,18.47,18.47,0,0,1-3.62,1.58,7.73,7.73,0,0,1-2.38.41,3.05,3.05,0,0,1-.6-.06,5.36,5.36,0,0,1-.54-.14l-.21-.07,0,0a7.33,7.33,0,0,1-.67-.39s-.27-.21-.13-.09l-.34-.31c-.18-.18-.35-.37-.51-.56h0l-.11-.15c-.07-.11-.16-.23-.23-.35-1.28-2-1.75-4.09-2.91-6.22a13.13,13.13,0,0,0-5.14-5,29.58,29.58,0,0,0-7-2.6c-2.43-.63-4.94-1.05-7.33-1.87a7.23,7.23,0,0,1-3.11-1.88,6.64,6.64,0,0,1-1.35-3.44,40.72,40.72,0,0,1-.36-4.42c-.09-1.74-.14-3.48-.17-5.21a31,31,0,0,1,.73-9,9,9,0,0,1,4.41-5.78,6.45,6.45,0,0,1,1.55-.53,2.82,2.82,0,0,1,.65-.08,5.46,5.46,0,0,1,1,0,1.23,1.23,0,0,0,1.22-1.17,1.25,1.25,0,0,0-1.22-1.23Z" transform="translate(-57.68 -74.91)"/><path class="cls-1" d="M525.33,227.92c-1.05,3.81,2.17,7.7,5.95,8.06,3.61.34,6.17-3,6.28-6.33a6,6,0,0,0-2-4.83,1.26,1.26,0,0,0-1.73,0,1.24,1.24,0,0,0,0,1.73,4.69,4.69,0,0,1,.63.63c-.18-.22.07.13.11.19s.16.28.24.43.1.26,0,0l.06.18a3.59,3.59,0,0,1,.12.39c0,.14.07.32.1.48v0a1.51,1.51,0,0,0,0,.3,5.89,5.89,0,0,1,0,.84l0,.25s0-.26,0,0-.07.32-.11.48-.08.29-.13.44-.19.47-.07.21a7.32,7.32,0,0,1-.45.82l-.11.16c-.11.16.19-.22,0,0l-.26.29-.32.3c-.11.09-.23.16,0,0l-.24.17-.34.19-.18.08c.24-.1,0,0,0,0l-.48.14-.23.05c.26-.05-.1,0-.13,0h-.45s-.36,0-.18,0l-.17,0-.44-.11-.22-.07s-.32-.14-.13,0a5,5,0,0,1-.9-.51l-.19-.14-.07-.06-.43-.39-.19-.21c-.06-.08-.24-.3-.1-.12a5,5,0,0,1-.33-.47c-.1-.17-.18-.34-.27-.51s-.09-.22,0,0a3,3,0,0,1-.12-.32c-.06-.18-.09-.37-.14-.55s0-.07,0,0a2,2,0,0,1,0-.34,4.24,4.24,0,0,1,0-.62c0-.2,0,.17,0,0s.05-.25.08-.35a1.26,1.26,0,0,0-.6-1.45,1.22,1.22,0,0,0-1.75.76Z" transform="translate(-57.68 -74.91)"/><path class="cls-1" d="M526.18,211.37a40.43,40.43,0,0,1-2.62-19.4,1.23,1.23,0,1,0-2.45,0A42,42,0,0,0,523.83,212a1.26,1.26,0,0,0,1.51.86,1.23,1.23,0,0,0,.85-1.51Z" transform="translate(-57.68 -74.91)"/><path class="cls-1" d="M521.87,190.68l-6.07,2.53a1.25,1.25,0,0,0-.88,1.34,1.23,1.23,0,0,0,1.21,1.07,18.65,18.65,0,0,0,9.89-3.89,1.22,1.22,0,0,0-1.73-1.73,15.81,15.81,0,0,1-8.17,3.18l.33,2.41,6.06-2.53a1.27,1.27,0,0,0,.86-1.51,1.24,1.24,0,0,0-1.51-.86Z" transform="translate(-57.68 -74.91)"/></g></g><g id="Capa_2-4" data-name="Capa 2"><g id="Capa_3-4" data-name="Capa 3"><path class="cls-1" d="M164.34,330a9,9,0,0,0-7.46,3.36,15.34,15.34,0,0,0-3.19,8.72,76.85,76.85,0,0,0,0,10.18c.08,1.66.15,3.34.36,5a10.48,10.48,0,0,0,1.36,4.4c1.67,2.62,4.71,3.53,7.56,4.23,2.52.61,5.05,1.16,7.52,2a15.65,15.65,0,0,1,6.09,3.38c1.73,1.7,2.51,4,3.45,6.15s2.28,4.42,4.69,5.32a7.7,7.7,0,0,0,4.95-.11,21.62,21.62,0,0,0,4.17-1.78,8.05,8.05,0,0,0,3-2.62A4.45,4.45,0,0,0,197,374c-.54-1.25-1.37-2.23-1-3.64a16.45,16.45,0,0,1,2.16-4.13c3.23-5.44,5.73-11.6,5.68-18,0-5.75-2.14-11.71-6.66-15.49a31.58,31.58,0,0,0-8.45-4.73,40.35,40.35,0,0,0-9.58-2.73c-6-.86-12.44,0-17.43,3.63a18.19,18.19,0,0,0-3.11,2.84,1.27,1.27,0,0,0,0,1.74,1.25,1.25,0,0,0,1.74,0c3.42-4,8.67-6,13.83-6.09a30.11,30.11,0,0,1,9.33,1.35,44,44,0,0,1,8.5,3.47,17.61,17.61,0,0,1,6.19,5.23,18.34,18.34,0,0,1,2.88,7.19c1,5.54-.45,11.37-2.89,16.44-.66,1.37-1.39,2.71-2.17,4a22.59,22.59,0,0,0-2.22,4.15,5.71,5.71,0,0,0,.39,4.59,9.67,9.67,0,0,1,.78,1.7,2.14,2.14,0,0,1,0,.62s0,.2,0,.08,0,.1,0,.13-.13.39-.05.22a4.71,4.71,0,0,1-2.2,2.09,18.47,18.47,0,0,1-3.62,1.58,7.73,7.73,0,0,1-2.38.41,3.05,3.05,0,0,1-.6-.06,5.36,5.36,0,0,1-.54-.14l-.21-.07,0,0a7.33,7.33,0,0,1-.67-.39s-.27-.21-.13-.09l-.34-.31c-.18-.18-.35-.37-.51-.56h0l-.11-.15c-.07-.11-.16-.23-.23-.35-1.28-2-1.75-4.09-2.91-6.22a13.13,13.13,0,0,0-5.14-5.05,29.58,29.58,0,0,0-7-2.6c-2.43-.63-4.94-1.05-7.33-1.87a7.23,7.23,0,0,1-3.11-1.88,6.64,6.64,0,0,1-1.35-3.44,40.72,40.72,0,0,1-.36-4.42c-.09-1.74-.14-3.48-.17-5.21a31,31,0,0,1,.73-9,9,9,0,0,1,4.41-5.78,6.45,6.45,0,0,1,1.55-.53,2.82,2.82,0,0,1,.65-.08,5.46,5.46,0,0,1,1,0,1.23,1.23,0,0,0,1.22-1.17,1.25,1.25,0,0,0-1.22-1.23Z" transform="translate(-57.68 -74.91)"/><path class="cls-1" d="M186.33,381.92c-1.05,3.81,2.17,7.7,5.95,8.06,3.61.34,6.17-3,6.28-6.33a6,6,0,0,0-2-4.83,1.26,1.26,0,0,0-1.73,0,1.24,1.24,0,0,0,0,1.73,4.69,4.69,0,0,1,.63.63c-.18-.22.07.13.11.19s.16.28.24.43.1.26,0,0l.06.18a3.59,3.59,0,0,1,.12.39c0,.14.07.32.1.48v0a1.51,1.51,0,0,0,0,.3,5.89,5.89,0,0,1,0,.84l0,.25c0-.05,0-.26,0,0s-.07.32-.11.48-.08.29-.13.44-.19.47-.07.21a7.32,7.32,0,0,1-.45.82l-.11.16c-.11.16.19-.22,0,0l-.26.29-.32.3c-.11.09-.23.16,0,0l-.24.17-.34.19-.18.08c.24-.1,0,0,0,0l-.48.14-.23,0c.26,0-.1,0-.13,0h-.45s-.36,0-.18,0l-.17,0-.44-.11-.22-.07s-.32-.14-.13-.05a5,5,0,0,1-.9-.51l-.19-.14-.07-.06-.43-.39-.19-.21c-.06-.08-.24-.3-.1-.12a5,5,0,0,1-.33-.47c-.1-.17-.18-.34-.27-.51s-.09-.22,0,0a3,3,0,0,1-.12-.32c-.06-.18-.09-.37-.14-.55s0-.07,0,0a2,2,0,0,1,0-.34,4.24,4.24,0,0,1,0-.62c0-.2,0,.17,0,0s.05-.25.08-.35a1.26,1.26,0,0,0-.6-1.45,1.22,1.22,0,0,0-1.75.76Z" transform="translate(-57.68 -74.91)"/><path class="cls-1" d="M187.18,365.37a40.43,40.43,0,0,1-2.62-19.4,1.23,1.23,0,1,0-2.45,0,42,42,0,0,0,2.72,20,1.26,1.26,0,0,0,1.51.86,1.23,1.23,0,0,0,.85-1.51Z" transform="translate(-57.68 -74.91)"/><path class="cls-1" d="M182.87,344.68l-6.07,2.53a1.25,1.25,0,0,0-.88,1.34,1.23,1.23,0,0,0,1.21,1.07,18.65,18.65,0,0,0,9.89-3.89,1.22,1.22,0,0,0-1.73-1.73,15.81,15.81,0,0,1-8.17,3.18l.33,2.41,6.06-2.53a1.27,1.27,0,0,0,.86-1.51,1.24,1.24,0,0,0-1.51-.86Z" transform="translate(-57.68 -74.91)"/></g></g><g id="Capa_2-5" data-name="Capa 2"><g id="Capa_3-5" data-name="Capa 3"><path class="cls-1" d="M543.34,492a9,9,0,0,0-7.46,3.36,15.34,15.34,0,0,0-3.19,8.72,76.85,76.85,0,0,0,0,10.18c.08,1.66.15,3.34.36,5a10.48,10.48,0,0,0,1.36,4.4c1.67,2.62,4.71,3.53,7.56,4.23,2.52.61,5,1.16,7.52,2a15.65,15.65,0,0,1,6.09,3.38c1.73,1.7,2.51,3.95,3.45,6.15s2.28,4.42,4.69,5.32a7.7,7.7,0,0,0,4.95-.11,21.62,21.62,0,0,0,4.17-1.78,8.05,8.05,0,0,0,3-2.62A4.45,4.45,0,0,0,576,536c-.54-1.25-1.37-2.23-1-3.64a16.45,16.45,0,0,1,2.16-4.13c3.23-5.44,5.73-11.6,5.68-18,0-5.75-2.14-11.71-6.66-15.49a31.58,31.58,0,0,0-8.45-4.73,40.35,40.35,0,0,0-9.58-2.73c-6-.86-12.44,0-17.43,3.63a18.19,18.19,0,0,0-3.11,2.84,1.27,1.27,0,0,0,0,1.74,1.25,1.25,0,0,0,1.74,0c3.42-4,8.67-6,13.83-6.09a30.11,30.11,0,0,1,9.33,1.35,44,44,0,0,1,8.5,3.47,17.61,17.61,0,0,1,6.19,5.23,18.34,18.34,0,0,1,2.88,7.19c1,5.54-.45,11.37-2.89,16.44-.66,1.37-1.39,2.71-2.17,4a22.59,22.59,0,0,0-2.22,4.15,5.71,5.71,0,0,0,.39,4.59,9.67,9.67,0,0,1,.78,1.7,2.14,2.14,0,0,1,0,.62s0,.2,0,.08,0,.1,0,.13-.13.39,0,.22a4.71,4.71,0,0,1-2.2,2.09,18.47,18.47,0,0,1-3.62,1.58,7.73,7.73,0,0,1-2.38.41,3.05,3.05,0,0,1-.6-.06,5.36,5.36,0,0,1-.54-.14l-.21-.07c-.2-.07.13.06,0,0a7.33,7.33,0,0,1-.67-.39s-.27-.21-.13-.09l-.34-.31c-.18-.18-.35-.37-.51-.56h0l-.11-.15c-.07-.11-.16-.23-.23-.35-1.28-2-1.75-4.09-2.91-6.22a13.13,13.13,0,0,0-5.14-5.05,29.58,29.58,0,0,0-7-2.6c-2.43-.63-4.94-1.05-7.33-1.87a7.23,7.23,0,0,1-3.11-1.88,6.64,6.64,0,0,1-1.35-3.44,40.72,40.72,0,0,1-.36-4.42c-.09-1.74-.14-3.48-.17-5.21a31,31,0,0,1,.73-9,9,9,0,0,1,4.41-5.78,6.45,6.45,0,0,1,1.55-.53,2.82,2.82,0,0,1,.65-.08,5.46,5.46,0,0,1,1,0,1.23,1.23,0,0,0,1.22-1.17,1.25,1.25,0,0,0-1.22-1.23Z" transform="translate(-57.68 -74.91)"/><path class="cls-1" d="M565.33,543.92c-1.05,3.81,2.17,7.7,5.95,8.06,3.61.34,6.17-3,6.28-6.33a6,6,0,0,0-2-4.83,1.26,1.26,0,0,0-1.73,0,1.24,1.24,0,0,0,0,1.73,4.69,4.69,0,0,1,.63.63c-.18-.22.07.13.11.19s.16.28.24.43.1.26,0,0l.06.18a3.59,3.59,0,0,1,.12.39c0,.14.07.32.1.48v0a1.51,1.51,0,0,0,0,.3,5.89,5.89,0,0,1,0,.84l0,.25c0-.05,0-.26,0,0s-.07.32-.11.48-.08.29-.13.44-.19.47-.07.21a7.32,7.32,0,0,1-.45.82l-.11.16c-.11.16.19-.22,0,0l-.26.29-.32.3c-.11.09-.23.16,0,0l-.24.17-.34.19-.18.08c.24-.1,0,0,0,0l-.48.14-.23,0c.26,0-.1,0-.13,0h-.45s-.36,0-.18,0l-.17,0-.44-.11-.22-.07s-.32-.14-.13-.05a5,5,0,0,1-.9-.51l-.19-.14-.07-.06-.43-.39-.19-.21c-.06-.08-.24-.3-.1-.12a5,5,0,0,1-.33-.47c-.1-.17-.18-.34-.27-.51s-.09-.22,0,0a3,3,0,0,1-.12-.32c-.06-.18-.09-.37-.14-.55s0-.07,0,0a2,2,0,0,1,0-.34,4.24,4.24,0,0,1,0-.62c0-.2,0,.17,0,0s.05-.25.08-.35a1.26,1.26,0,0,0-.6-1.45,1.22,1.22,0,0,0-1.75.76Z" transform="translate(-57.68 -74.91)"/><path class="cls-1" d="M566.18,527.37a40.43,40.43,0,0,1-2.62-19.4,1.23,1.23,0,1,0-2.45,0,42,42,0,0,0,2.72,20,1.26,1.26,0,0,0,1.51.86,1.23,1.23,0,0,0,.85-1.51Z" transform="translate(-57.68 -74.91)"/><path class="cls-1" d="M561.87,506.68l-6.07,2.53a1.25,1.25,0,0,0-.88,1.34,1.23,1.23,0,0,0,1.21,1.07,18.65,18.65,0,0,0,9.89-3.89,1.22,1.22,0,0,0-1.73-1.73,15.81,15.81,0,0,1-8.17,3.18l.33,2.41,6.06-2.53a1.27,1.27,0,0,0,.86-1.51,1.24,1.24,0,0,0-1.51-.86Z" transform="translate(-57.68 -74.91)"/></g></g><g id="Capa_2-6" data-name="Capa 2"><g id="Capa_3-6" data-name="Capa 3"><path class="cls-1" d="M168.71,77.89l-1.57,24.39-1.57,24.3-.79,12.2c-.12,1.89-.34,3.82-.34,5.72a4,4,0,0,0,2.32,4,6.57,6.57,0,0,0,2.49.31c1,0,1.93-.05,2.89-.09,1.94-.08,3.87-.19,5.81-.32,3.91-.26,7.81-.59,11.71-.84,7.65-.48,15.42-.67,23,.77.94.18,1.88.39,2.81.62a1.12,1.12,0,0,0,1.33-.76,132.27,132.27,0,0,0,6.75-22.46,136.09,136.09,0,0,0,2.74-23.29A133.84,133.84,0,0,0,224.89,79a3.74,3.74,0,0,0-1-2.37,3.84,3.84,0,0,0-2.56-.77c-2.13,0-6.38,0-6.38,0H202.1L176.39,75l-3.13,0a1.08,1.08,0,0,0,0,2.15h25.1l12.56.7,6.24-.29h3.14a5.71,5.71,0,0,0,1.43.53,1.24,1.24,0,0,1,.73.18,1.56,1.56,0,0,1,.29.86c.07.45.14.91.2,1.36.13.92.25,1.83.36,2.75q.33,2.85.53,5.7.42,5.72.35,11.44A132.55,132.55,0,0,1,215.77,145c-.34.89-.69,1.78-1,2.67l1.31-.75c-7.44-1.82-15.15-2-22.77-1.67s-15.26,1.21-22.92,1.42c-1.1,0-3.14.42-3.61-.95a5.46,5.46,0,0,1-.13-2.05c.06-1,.13-2,.19-3l.77-11.89,1.55-24,1.55-24,.18-2.93a1.08,1.08,0,0,0-1.06-1.07c-.59,0-1.07,1.1-1.07,1.1Z" transform="translate(-57.68 -74.91)"/><path class="cls-1" d="M174.09,85.61c-.84,1.5-1.54,3.15-.78,4.83s2.74,1.87,4.37,1.61a4.57,4.57,0,0,0,3.73-2.83,3.35,3.35,0,0,0-1.29-3.87,6.73,6.73,0,0,0-4.1-.95,1.08,1.08,0,0,0,0,2.15,9.72,9.72,0,0,1,1.43,0c-.27,0,.07,0,.14,0s.21.05.32.08l.33.08c.1,0,.44.18.2.07a4.74,4.74,0,0,1,.54.29c.05,0,.14.13,0,0l.11.1.11.1.06.06c-.12-.11,0,.05.05.08l.08.13.06.14s-.07-.22,0,0,.08.39.06.15a2.94,2.94,0,0,1,0,.42c0,.16,0-.16,0,0a1.16,1.16,0,0,0,0,.18c0,.06-.05.12-.06.18s.07-.14,0,0-.11.22-.18.33-.13.18-.06.08l-.09.11a2.45,2.45,0,0,1-1.19.7l-.42.1s-.42.07-.24,0a7.71,7.71,0,0,1-1,0H176a3.31,3.31,0,0,1-.42-.12c.18.08-.25-.2,0,0l-.13-.12c-.18-.17.07.15,0-.06a1.4,1.4,0,0,1-.1-.16c-.1-.16,0,.09,0,0a3.75,3.75,0,0,0-.1-.39c0-.14,0,0,0,0v-.46c0-.19,0,.07,0-.07a4.45,4.45,0,0,1,.14-.55l.08-.21h0l.06-.13c.17-.35.35-.69.54-1a1.07,1.07,0,0,0-.4-1.47,1.09,1.09,0,0,0-1.47.4Z" transform="translate(-57.68 -74.91)"/><path class="cls-1" d="M174.72,101a5.71,5.71,0,0,0,.17,4.7,4.1,4.1,0,0,0,4.65,2,4,4,0,0,0,2.88-3.62,4,4,0,0,0-.46-2.23,3.55,3.55,0,0,0-1.86-1.57,4,4,0,0,0-4.65,1.44,1,1,0,0,0,.37,1.38,1,1,0,0,0,1.38-.37l0-.06v-.3l-.09.12.13-.16.14-.14.07-.07c.1-.1-.17.12,0,0s.23-.17.36-.24l.09,0c.09-.06-.1,0-.1,0a.9.9,0,0,0,.21-.08l.39-.11h.09s-.23,0-.11,0a.88.88,0,0,1,.23,0H179a.17.17,0,0,0,.1,0s-.23,0-.13,0l.23.05c.07,0,.34.15.38.13s-.19-.1-.1,0l.09,0a.82.82,0,0,1,.2.12l.17.11c.06,0-.09-.06-.09-.07a.27.27,0,0,0,.08.07l.17.17.06.08.05,0s0,0,0,0-.06-.09,0,0l0,.09a1.62,1.62,0,0,1,.1.18s.1.26.05.09l0,.13a3,3,0,0,1,.09.41c.05.2,0-.23,0,0v.28c0,.09,0,.37,0,.44s.05-.24,0-.12v.1a1.11,1.11,0,0,1,0,.25,4,4,0,0,1-.12.4c0,.14,0-.1,0-.1a1,1,0,0,0,0,.1l-.11.22-.12.21-.06.09c0,.07,0,.08,0,0s0-.07,0,0l-.07.08-.16.17-.15.14s.18-.13.08-.07l-.09.06-.17.11-.11.06s-.19.09-.07,0l-.14,0-.29.07-.12,0h.1s-.25,0-.28,0h-.3a3,3,0,0,1-.51-.14c-.09,0-.22-.1-.06,0l-.22-.11-.21-.13c-.17-.11,0,0,0,0a.52.52,0,0,0-.11-.1,2.91,2.91,0,0,1-.3-.31l-.06-.08c-.08-.09.06.07,0,.07a1.6,1.6,0,0,1-.13-.21s-.09-.14-.13-.22-.14-.27-.06-.13,0-.1,0-.15-.06-.18-.09-.28a4.59,4.59,0,0,0-.1-.51s0,.22,0,.1v-1a1.1,1.1,0,0,1,0-.26c0-.09,0,.09,0,.09a.54.54,0,0,1,0-.19,6.3,6.3,0,0,1,.3-1,1.07,1.07,0,0,0-.7-1.33l0,0a1.06,1.06,0,0,0-1.27.75Z" transform="translate(-57.68 -74.91)"/><path class="cls-1" d="M173.16,117.23a5.73,5.73,0,0,0,1.3,5.1,5.49,5.49,0,0,0,4.68,1.71,3.27,3.27,0,0,0,2.55-1.4,4.07,4.07,0,0,0,.38-1.33l.27-1.58.24-1.43a3.25,3.25,0,0,0,0-1.58c-.31-1-1.4-1.42-2.26-1.79a4.59,4.59,0,0,0-3.11-.39,3.06,3.06,0,0,0-2.13,2,1.06,1.06,0,0,0,2,.57c.06-.2,0-.06,0,0l.09-.17c-.1.16.11-.1.15-.14-.15.13.15-.08.19-.11s.16-.07.05,0,.14,0,.16,0,.42-.06.21-.06a2.8,2.8,0,0,1,.41,0,4.22,4.22,0,0,1,.86.24,8.93,8.93,0,0,1,.83.39l.41.23s.19.08.06,0c.11,0,0,.09,0,0l-.06-.21v.12c0,.22,0,.13,0,.08,0,.19-.06.39-.09.57l-.21,1.23c-.12.72-.19,1.49-.38,2.2,0,.1-.1.22,0,.09a1.21,1.21,0,0,1-.16.16c.11-.09,0,0-.06,0-.18.09-.1.06,0,0l-.22.07-.22.06-.19,0a3.44,3.44,0,0,1-2.83-.89,3.37,3.37,0,0,1-.89-1.47,4.48,4.48,0,0,1-.11-.5s0-.21,0-.06a1.32,1.32,0,0,0,0-.28v-.52s0-.21,0-.06a2,2,0,0,1,.06-.34,1.06,1.06,0,1,0-2-.66.3.3,0,0,0,0,.1Z" transform="translate(-57.68 -74.91)"/><path class="cls-1" d="M172.47,135.68a7.69,7.69,0,0,0,8,4.3,2.25,2.25,0,0,0,2-1.56,1.82,1.82,0,0,0-.38-1.52,9.78,9.78,0,0,0-.87-.83,4.09,4.09,0,0,1-.67-1.68v-.06a2.56,2.56,0,0,1,.05-.27c0-.23.07-.46.1-.7a2.31,2.31,0,0,0-.3-1.4c-.77-1.21-2.26-.8-3.34-.35a9.81,9.81,0,0,0-2.94,1.85,1.13,1.13,0,0,0,0,1.59,1.12,1.12,0,0,0,1.57,0,7.33,7.33,0,0,1,1.77-1.19,5.79,5.79,0,0,1,.85-.34,2.54,2.54,0,0,0,.47-.14c0,.12-.31-.26-.34-.3s0-.25,0,0v.46c0-.11,0,.09,0,.11a5.35,5.35,0,0,0-.11,1,3.93,3.93,0,0,0,1.13,2.71l.32.29a3.73,3.73,0,0,0,.36.32c.1.06,0,0,0,0v.07a1.62,1.62,0,0,0,.39-.28s-.18.1,0,0l-.21.07c-.06,0-.39.06-.26,0a5.59,5.59,0,0,1-5.71-3.3,1.08,1.08,0,0,0-1.46-.38,1.1,1.1,0,0,0-.39,1.46Z" transform="translate(-57.68 -74.91)"/><path class="cls-1" d="M195.22,87.69a58.83,58.83,0,0,0,10.69-.57,1.08,1.08,0,0,0,.74-1.32h0a1.1,1.1,0,0,0-1.31-.75,56.14,56.14,0,0,1-10.12.49c-1.38-.05-1.37,2.09,0,2.14Z" transform="translate(-57.68 -74.91)"/><path class="cls-1" d="M193.53,93c2.14-1,4.68-.45,6.9-.14,2.56.35,5.15.58,7.56-.59a1.07,1.07,0,0,0-1-1.88.1.1,0,0,0-.05,0c-2.12,1-4.64.54-6.87.23-2.55-.36-5.15-.62-7.6.49a1.08,1.08,0,0,0-.39,1.46A1.11,1.11,0,0,0,193.53,93Z" transform="translate(-57.68 -74.91)"/><path class="cls-1" d="M196.32,100.91a13.33,13.33,0,0,1,3.22-.92,12.14,12.14,0,0,1,1.48-.12,13.73,13.73,0,0,1,1.7.07,1.08,1.08,0,0,0,1.05-1.08,1.1,1.1,0,0,0-1.06-1.07,14.73,14.73,0,0,0-7,1,1.07,1.07,0,0,0,.57,2.07Z" transform="translate(-57.68 -74.91)"/><path class="cls-1" d="M196.35,105.68a71.11,71.11,0,0,1,12.72.23,1.07,1.07,0,0,0,1.07-1.07,1.1,1.1,0,0,0-1.07-1.07,71.11,71.11,0,0,0-12.72-.23,1.11,1.11,0,0,0-1.07,1.07A1.08,1.08,0,0,0,196.35,105.68Z" transform="translate(-57.68 -74.91)"/><path class="cls-1" d="M195.22,118.85a27,27,0,0,1,6-2.51,1.07,1.07,0,0,0-.57-2.07,31.74,31.74,0,0,0-6.51,2.71,1.07,1.07,0,0,0,1.08,1.85Z" transform="translate(-57.68 -74.91)"/><path class="cls-1" d="M191.87,122.15c3.29-.65,6.67-.16,9.95.27a32.32,32.32,0,0,0,10.15.22,1.07,1.07,0,0,0-.57-2c-3.29.61-6.69.1-10-.33a30.35,30.35,0,0,0-10.15-.15,1.07,1.07,0,1,0,.47,2.09l.1,0Z" transform="translate(-57.68 -74.91)"/><path class="cls-1" d="M195.22,132.13a30.13,30.13,0,0,1,8.73.59,1.07,1.07,0,1,0,.57-2.06,31.6,31.6,0,0,0-9.3-.66,1.09,1.09,0,0,0-1.07,1.05,1.07,1.07,0,0,0,1.07,1.07Z" transform="translate(-57.68 -74.91)"/><path class="cls-1" d="M193.66,137.35a167.08,167.08,0,0,1,25.8,0,1.08,1.08,0,0,0,1.08-1.06,1.12,1.12,0,0,0-1.08-1.08,167.08,167.08,0,0,0-25.8.05,1.07,1.07,0,0,0,0,2.14Z" transform="translate(-57.68 -74.91)"/></g></g><g id="Capa_2-7" data-name="Capa 2"><g id="Capa_3-7" data-name="Capa 3"><path class="cls-1" d="M350.71,473.89l-1.57,24.39-1.57,24.3-.79,12.2c-.12,1.89-.34,3.82-.34,5.72a4,4,0,0,0,2.32,4,6.57,6.57,0,0,0,2.49.31c1,0,1.93-.05,2.89-.09,1.94-.08,3.87-.19,5.81-.32,3.91-.26,7.81-.59,11.71-.84,7.65-.48,15.42-.67,23,.77.94.18,1.88.39,2.81.62a1.12,1.12,0,0,0,1.33-.76,132.27,132.27,0,0,0,6.75-22.46,136.09,136.09,0,0,0,2.74-23.29,133.84,133.84,0,0,0-1.39-23.5,3.74,3.74,0,0,0-1-2.37,3.84,3.84,0,0,0-2.56-.77c-2.13-.05-6.38,0-6.38,0H384.1L358.39,471l-3.13,0a1.08,1.08,0,0,0,0,2.15h25.1l12.56.7,6.24-.29h3.14a5.71,5.71,0,0,0,1.43.53,1.24,1.24,0,0,1,.73.18,1.56,1.56,0,0,1,.29.86c.07.45.14.91.2,1.36.13.92.25,1.83.36,2.75q.33,2.85.53,5.7.42,5.72.35,11.44A132.55,132.55,0,0,1,397.77,541c-.34.89-.69,1.78-1,2.67l1.31-.75c-7.44-1.82-15.15-2-22.77-1.67s-15.26,1.21-22.92,1.42c-1.1,0-3.14.42-3.61-.95a5.46,5.46,0,0,1-.13-2.05c.06-1,.13-2,.19-3l.77-11.89,1.55-24,1.55-24,.18-2.93a1.08,1.08,0,0,0-1.06-1.07c-.59,0-1.07,1.1-1.07,1.1Z" transform="translate(-57.68 -74.91)"/><path class="cls-1" d="M356.09,481.61c-.84,1.5-1.54,3.15-.78,4.83s2.74,1.87,4.37,1.61a4.57,4.57,0,0,0,3.73-2.83,3.35,3.35,0,0,0-1.29-3.87,6.73,6.73,0,0,0-4.1-1,1.08,1.08,0,0,0,0,2.15,9.72,9.72,0,0,1,1.43.05c-.27,0,.07,0,.14,0s.21.05.32.08l.33.08c.1,0,.44.18.2.07a4.74,4.74,0,0,1,.54.29l0,0,.11.1.11.1.06.06c-.12-.11,0,.05,0,.08l.08.13.06.14s-.07-.22,0,0,.08.39.06.15a2.94,2.94,0,0,1,0,.42c0,.16,0-.16,0,0a1.16,1.16,0,0,0,0,.18c0,.06-.05.12-.06.18s.07-.14,0,0-.11.22-.18.33-.13.18-.06.08l-.09.11a2.45,2.45,0,0,1-1.19.7l-.42.1s-.42.07-.24.05a7.71,7.71,0,0,1-1,0H358a3.31,3.31,0,0,1-.42-.12c.18.08-.25-.2,0,0l-.13-.12c-.18-.17.07.15-.05-.06a1.4,1.4,0,0,1-.1-.16c-.1-.16,0,.09,0,0a3.75,3.75,0,0,0-.1-.39c0-.14,0,0,0,0v-.46c0-.19,0,.07,0-.07a4.45,4.45,0,0,1,.14-.55l.08-.21h0l.06-.13c.17-.35.35-.69.54-1a1.07,1.07,0,0,0-.4-1.47,1.09,1.09,0,0,0-1.47.4Z" transform="translate(-57.68 -74.91)"/><path class="cls-1" d="M356.72,497a5.71,5.71,0,0,0,.17,4.7,4.1,4.1,0,0,0,4.65,2,4,4,0,0,0,2.88-3.62,4,4,0,0,0-.46-2.23,3.55,3.55,0,0,0-1.86-1.57,4,4,0,0,0-4.65,1.44,1,1,0,0,0,.37,1.38,1,1,0,0,0,1.38-.37l0-.06v-.3l-.09.12.13-.16.14-.14.07-.07c.1-.1-.17.12-.05.05s.23-.17.36-.24l.09,0c.09-.06-.1,0-.1,0a.9.9,0,0,0,.21-.08l.39-.11h.09s-.23,0-.11,0a.88.88,0,0,1,.23,0h.54s-.23,0-.13,0l.23.05c.07,0,.34.15.38.13s-.19-.1-.1,0l.09,0a.82.82,0,0,1,.2.12l.17.11-.09-.07a.27.27,0,0,0,.08.07l.17.17.06.08.05.05q0,.07,0,0c0-.06-.06-.09,0,0l.05.09a1.62,1.62,0,0,1,.1.18c0,.05.1.26.05.09l0,.13a3,3,0,0,1,.09.41c.05.2,0-.23,0,0v.28c0,.09-.05.37,0,.44s.05-.24,0-.12v.1a1.11,1.11,0,0,1-.05.25,4,4,0,0,1-.12.4c0,.14,0-.1,0-.1a1,1,0,0,0,0,.1l-.11.22-.12.21-.06.09c0,.07,0,.08,0,0s.05-.07,0,0l-.07.08-.16.17-.15.14s.18-.13.08-.07l-.09.06-.17.11-.11.06s-.19.09-.07,0l-.14.05-.29.07-.12,0h.1s-.25,0-.28,0h-.3a3,3,0,0,1-.51-.14c-.09,0-.22-.1-.06,0l-.22-.11-.21-.13c-.17-.11,0,0,0,0a.52.52,0,0,0-.11-.1,2.91,2.91,0,0,1-.3-.31l-.06-.08c-.08-.09.06.07.05.07a1.6,1.6,0,0,1-.13-.21s-.09-.14-.13-.22-.14-.27-.06-.13,0-.1-.05-.15-.06-.18-.09-.28a4.59,4.59,0,0,0-.1-.51s0,.22,0,.1v-.95a1.1,1.1,0,0,1,0-.26c0-.09,0,.09,0,.09a.54.54,0,0,1,0-.19,6.3,6.3,0,0,1,.3-1.05,1.07,1.07,0,0,0-.7-1.33l-.05,0a1.06,1.06,0,0,0-1.27.75Z" transform="translate(-57.68 -74.91)"/><path class="cls-1" d="M355.16,513.23a5.73,5.73,0,0,0,1.3,5.1,5.49,5.49,0,0,0,4.68,1.71,3.27,3.27,0,0,0,2.55-1.4,4.07,4.07,0,0,0,.38-1.33l.27-1.58.24-1.43a3.25,3.25,0,0,0,0-1.58c-.31-1-1.4-1.42-2.26-1.79a4.59,4.59,0,0,0-3.11-.39,3.06,3.06,0,0,0-2.13,2,1.06,1.06,0,0,0,2.05.57c.06-.2,0-.06,0,0l.09-.17c-.1.16.11-.1.15-.14-.15.13.15-.08.19-.11s.16-.07,0,0,.14,0,.16,0,.42-.06.21-.06h.41a4.22,4.22,0,0,1,.86.24,8.93,8.93,0,0,1,.83.39l.41.23s.19.08.06,0c.11,0,0,.09,0,0l-.06-.21v.12c0,.22,0,.13,0,.08,0,.19-.06.39-.09.57l-.21,1.23c-.12.72-.19,1.49-.38,2.2,0,.1-.1.22,0,.09l-.16.16c.11-.09,0,0-.06,0-.18.09-.1.06-.05,0l-.22.07-.22.06-.19,0a3.44,3.44,0,0,1-2.83-.89,3.37,3.37,0,0,1-.89-1.47,4.48,4.48,0,0,1-.11-.5s0-.21,0-.06a1.32,1.32,0,0,0,0-.28v-.52s0-.21,0-.06a2,2,0,0,1,.06-.34,1.06,1.06,0,1,0-2-.66.3.3,0,0,0,0,.1Z" transform="translate(-57.68 -74.91)"/><path class="cls-1" d="M354.47,531.68a7.69,7.69,0,0,0,8,4.3,2.25,2.25,0,0,0,2-1.56,1.82,1.82,0,0,0-.38-1.52,9.78,9.78,0,0,0-.87-.83,4.09,4.09,0,0,1-.67-1.68v-.06a2.56,2.56,0,0,1,.05-.27c0-.23.07-.46.1-.7a2.31,2.31,0,0,0-.3-1.4c-.77-1.21-2.26-.8-3.34-.35a9.81,9.81,0,0,0-2.94,1.85,1.13,1.13,0,0,0,0,1.59,1.12,1.12,0,0,0,1.57,0,7.33,7.33,0,0,1,1.77-1.19,5.79,5.79,0,0,1,.85-.34,2.54,2.54,0,0,0,.47-.14c0,.12-.31-.26-.34-.3s0-.25,0,0v.46c0-.11,0,.09,0,.11a5.35,5.35,0,0,0-.11,1.05,3.93,3.93,0,0,0,1.13,2.71l.32.29a3.73,3.73,0,0,0,.36.32c.1.06,0,0,0,0v.07a1.62,1.62,0,0,0,.39-.28s-.18.1,0,0l-.21.07c-.06,0-.39.06-.26,0a5.59,5.59,0,0,1-5.71-3.3,1.08,1.08,0,0,0-1.46-.38,1.1,1.1,0,0,0-.39,1.46Z" transform="translate(-57.68 -74.91)"/><path class="cls-1" d="M377.22,483.69a58.83,58.83,0,0,0,10.69-.57,1.08,1.08,0,0,0,.74-1.32h0a1.1,1.1,0,0,0-1.31-.75,56.14,56.14,0,0,1-10.12.49c-1.38-.05-1.37,2.09,0,2.14Z" transform="translate(-57.68 -74.91)"/><path class="cls-1" d="M375.53,489c2.14-1,4.68-.45,6.9-.14,2.56.35,5.15.58,7.56-.59a1.07,1.07,0,0,0-1-1.88.1.1,0,0,0-.05,0c-2.12,1-4.64.54-6.87.23-2.55-.36-5.15-.62-7.6.49a1.08,1.08,0,0,0-.39,1.46A1.11,1.11,0,0,0,375.53,489Z" transform="translate(-57.68 -74.91)"/><path class="cls-1" d="M378.32,496.91a13.33,13.33,0,0,1,3.22-.92,12.14,12.14,0,0,1,1.48-.12,13.73,13.73,0,0,1,1.7.07,1.08,1.08,0,0,0,1-1.08,1.1,1.1,0,0,0-1.06-1.07,14.73,14.73,0,0,0-7,1,1.07,1.07,0,0,0,.57,2.07Z" transform="translate(-57.68 -74.91)"/><path class="cls-1" d="M378.35,501.68a71.11,71.11,0,0,1,12.72.23,1.07,1.07,0,0,0,1.07-1.07,1.1,1.1,0,0,0-1.07-1.07,71.11,71.11,0,0,0-12.72-.23,1.11,1.11,0,0,0-1.07,1.07A1.08,1.08,0,0,0,378.35,501.68Z" transform="translate(-57.68 -74.91)"/><path class="cls-1" d="M377.22,514.85a27,27,0,0,1,6-2.51,1.07,1.07,0,1,0-.57-2.07,31.74,31.74,0,0,0-6.51,2.71,1.07,1.07,0,0,0,1.08,1.85Z" transform="translate(-57.68 -74.91)"/><path class="cls-1" d="M373.87,518.15c3.29-.65,6.67-.16,9.95.27a32.32,32.32,0,0,0,10.15.22,1.07,1.07,0,0,0-.57-2c-3.29.61-6.69.1-9.95-.33a30.35,30.35,0,0,0-10.15-.15,1.07,1.07,0,1,0,.47,2.09l.1,0Z" transform="translate(-57.68 -74.91)"/><path class="cls-1" d="M377.22,528.13a30.13,30.13,0,0,1,8.73.59,1.07,1.07,0,1,0,.57-2.06,31.6,31.6,0,0,0-9.3-.66,1.09,1.09,0,0,0-1.07,1,1.07,1.07,0,0,0,1.07,1.07Z" transform="translate(-57.68 -74.91)"/><path class="cls-1" d="M375.66,533.35a167.08,167.08,0,0,1,25.8-.05,1.08,1.08,0,0,0,1.08-1.06,1.12,1.12,0,0,0-1.08-1.08,167.08,167.08,0,0,0-25.8.05,1.07,1.07,0,1,0,0,2.14Z" transform="translate(-57.68 -74.91)"/></g></g><g id="Capa_2-8" data-name="Capa 2"><g id="Capa_3-8" data-name="Capa 3"><path class="cls-2" d="M59.73,236.32q6.06-4.86,11.81-10.09a1.21,1.21,0,1,0-1.7-1.7Q64.1,229.75,58,234.62a1.18,1.18,0,0,0,0,1.7,1.24,1.24,0,0,0,1.7,0Z" transform="translate(-57.68 -74.91)"/><path class="cls-2" d="M58.9,238.3l15.49,7.43a1.25,1.25,0,0,0,1.65-.44,1.22,1.22,0,0,0-.42-1.63l-15.49-7.43a1.25,1.25,0,0,0-1.66.42,1.23,1.23,0,0,0,.43,1.65Z" transform="translate(-57.68 -74.91)"/><path class="cls-2" d="M76.33,246.64c5-5,6.86-14.26,1.74-19.82a7.41,7.41,0,0,0-5-2.45,1.21,1.21,0,1,0,0,2.41s.5.05.3,0a4.31,4.31,0,0,1,.49.11,4,4,0,0,1,.46.14l.23.08c-.18-.08.15.08.15.08a6.48,6.48,0,0,1,.84.51c.19.14.09.07,0,0l.19.16a6,6,0,0,1,.45.42,8.65,8.65,0,0,1,2,3.41,13.19,13.19,0,0,1-.59,8.82,13.63,13.63,0,0,1-3,4.39,1.2,1.2,0,0,0,1.7,1.7Z" transform="translate(-57.68 -74.91)"/><path class="cls-2" d="M78.05,246.64c2.51-1.29,5.41-1.26,8.18-1.28a71.9,71.9,0,0,0,9.72-.73c6.64-.93,13.28-2,19.89-3.07l11.29-1.75a1.21,1.21,0,0,0,.84-1.47,1.25,1.25,0,0,0-1.48-.85l-20.11,3.12c-6.5,1-13,2.31-19.59,2.35-3.39,0-6.87,0-10,1.61a1.21,1.21,0,0,0-.52,1.46,1,1,0,0,0,.93.61Z" transform="translate(-57.68 -74.91)"/><path class="cls-2" d="M70.64,225.62A64,64,0,0,1,82,224.47q6-.27,11.92-.71,11.82-.85,23.6-2.29,6.72-.83,13.42-1.85a1.19,1.19,0,0,0,.84-1.47,1.22,1.22,0,0,0-1.47-.84q-11.7,1.75-23.48,2.93T83.12,222c-4.39.22-8.85.28-13.13,1.29a1.2,1.2,0,0,0,.64,2.32Z" transform="translate(-57.68 -74.91)"/><path class="cls-2" d="M127.65,240.29a30.8,30.8,0,0,0,7.35-.89,3.15,3.15,0,0,0,1.45-.77,3.68,3.68,0,0,0,.78-1.7c.32-1.21.61-2.43.86-3.66a53,53,0,0,0,1.08-7.31,6.16,6.16,0,0,0-.64-3.43,6.23,6.23,0,0,0-1.58-1.77c-.41-.32-.83-.62-1.26-.91l-.56-.39-.2-.14s-.27-.21-.11-.08a6.46,6.46,0,0,1-.93-.88c.15.17,0,0,0-.05l-.19-.32s-.1-.21,0,0a2.64,2.64,0,0,1-.12-.4,1.2,1.2,0,0,0-2.32.64c.42,1.63,1.73,2.64,3.05,3.56l.84.58.18.14.11.09a4.83,4.83,0,0,1,.42.37c.13.12.25.26.37.39s.13.18,0,0l.12.18a2.75,2.75,0,0,1,.41,1.14,12.51,12.51,0,0,1-.17,3c-.13,1.1-.3,2.21-.49,3.31s-.43,2.22-.69,3.32c-.12.53-.25,1.05-.37,1.57-.07.27-.14.56-.23.83,0,.08-.15.28,0,.17-.16.14,0,0-.19.08a2.93,2.93,0,0,1-.37.1l-.87.19c-.58.12-1.18.22-1.77.3a29.64,29.64,0,0,1-3.88.27,1.21,1.21,0,0,0,0,2.41Z" transform="translate(-57.68 -74.91)"/><path class="cls-2" d="M132.9,218.82l10.17-1.31a1.24,1.24,0,0,0,1.2-1.2,1.21,1.21,0,0,0-1.2-1.21l-10.17,1.31a1.24,1.24,0,0,0-1.2,1.2A1.21,1.21,0,0,0,132.9,218.82Z" transform="translate(-57.68 -74.91)"/><path class="cls-2" d="M134.5,240.19l7.21-.56c1.9-.14,4.38-.06,5.47-2a1.2,1.2,0,0,0-2.08-1.21,1.37,1.37,0,0,1-.13.2c.13-.15-.06,0-.08.06s.14-.08,0,0l-.26.14c.15-.06-.21.07-.28.09l-.56.11h-.12l-.25,0-.76.06-1.64.15-6.48.5a1.24,1.24,0,0,0-1.2,1.21,1.21,1.21,0,0,0,1.2,1.2Z" transform="translate(-57.68 -74.91)"/><path class="cls-2" d="M148,236.75c.85-3,1.76-6,2.55-9.06a9.73,9.73,0,0,0,.26-4.52,8.78,8.78,0,0,0-1.7-3.43,23.58,23.58,0,0,0-3.07-3.17,1.21,1.21,0,0,0-1.7,1.71,19.62,19.62,0,0,1,3,3.14,5.66,5.66,0,0,1,1.19,4,13.9,13.9,0,0,1-.54,2.4c-.27.94-.53,1.88-.8,2.82l-1.54,5.48a1.2,1.2,0,0,0,2.32.64Z" transform="translate(-57.68 -74.91)"/><path class="cls-2" d="M147.83,217.51c-.18.08.19,0,.19,0l.24-.07.3-.07c.1,0,.31,0,.1,0a5,5,0,0,1,1.22,0c-.24,0,.16,0,.17,0l.24,0a5.76,5.76,0,0,1,.59.18,2.9,2.9,0,0,1,.41.16l.56.3a6.56,6.56,0,0,1,1.75,1.53,6.74,6.74,0,0,1,1.06,2.27,10.32,10.32,0,0,1-.42,5.81,7.39,7.39,0,0,1-3.11,4.4q-1.26.58-2.58,1.05a8.31,8.31,0,0,0-2.87,1.75,1.2,1.2,0,0,0,1.7,1.7,6.84,6.84,0,0,1,2.31-1.33,18.75,18.75,0,0,0,2.88-1.23c2.06-1.2,3.2-3.43,3.93-5.63a12.58,12.58,0,0,0,.45-7.16,8.6,8.6,0,0,0-3.69-5.11,7.1,7.1,0,0,0-6.64-.64,1.2,1.2,0,0,0-.43,1.65,1.24,1.24,0,0,0,1.65.43Z" transform="translate(-57.68 -74.91)"/><path class="cls-2" d="M81.47,236.69H88a1.25,1.25,0,0,0,1.15-.72,1.3,1.3,0,0,0-1.17-1.86H81.45a1.24,1.24,0,0,0-1.15.72A1.3,1.3,0,0,0,81.47,236.69Z" transform="translate(-57.68 -74.91)"/><path class="cls-2" d="M138.19,226.8l-6.36,2a1.21,1.21,0,0,0,.64,2.31l6.36-2a1.2,1.2,0,0,0-.64-2.32h0Z" transform="translate(-57.68 -74.91)"/><path class="cls-2" d="M59.71,236.32l.74.43a1.18,1.18,0,0,0,1.17.31l1.14-.46-1.36-.55,1.18,1.84a1.21,1.21,0,0,0,1.66.43,1.22,1.22,0,0,0,.55-.71,9.77,9.77,0,0,0,0-5.44l-2,1.16c.12.12.23.25.34.37-.23-.26,0,0,0,0l.13.21c0,.07.07.13.1.2l.06.13q.07.16,0-.09a2.25,2.25,0,0,0,.14.44,3.78,3.78,0,0,1,.1.46c-.09-.37,0-.07-.24,0v.22c.24.16.2.34.22.5,0-.27,0-.17,0,0s0,.18-.07.28a1.19,1.19,0,0,0,.84,1.47,1.2,1.2,0,0,0,1.48-.84h0a5.25,5.25,0,0,0-1.37-5,1.2,1.2,0,0,0-2,1.16,7.46,7.46,0,0,1,.17,1.11v-.06l.11.18,0,.26c0,.19,0,.37,0,.58a.67.67,0,0,0,.21.57v.27c-.23.08-.29.38-.25.19s0,.15,0,.19a1.32,1.32,0,0,1-.05.26c0,.2-.1.4-.15.6l2.21-.29-1.17-1.85a1.22,1.22,0,0,0-1.41-.53l-1.13.46,1.17.31-.74-.57a1.32,1.32,0,0,0-.84-.37,1.25,1.25,0,0,0-.86.37c-.39.43,0,1.84,0,1.84Z" transform="translate(-57.68 -74.91)"/></g></g><g id="Capa_2-9" data-name="Capa 2"><g id="Capa_3-9" data-name="Capa 3"><path class="cls-2" d="M604.73,607.32q6.06-4.86,11.81-10.09a1.21,1.21,0,0,0-1.54-1.86l-.16.16q-5.75,5.22-11.8,10.09a1.18,1.18,0,0,0,0,1.7,1.24,1.24,0,0,0,1.7,0Z" transform="translate(-57.68 -74.91)"/><path class="cls-2" d="M603.9,609.3l15.49,7.43a1.25,1.25,0,0,0,1.65-.44,1.22,1.22,0,0,0-.42-1.63l-15.49-7.43a1.25,1.25,0,0,0-1.66.42,1.23,1.23,0,0,0,.43,1.65Z" transform="translate(-57.68 -74.91)"/><path class="cls-2" d="M621.33,617.64c5-5,6.86-14.26,1.74-19.82a7.41,7.41,0,0,0-5-2.45,1.21,1.21,0,1,0,0,2.41s.5.05.3,0a4.31,4.31,0,0,1,.49.11,4,4,0,0,1,.46.14l.23.08c-.18-.08.15.08.15.08a6.48,6.48,0,0,1,.84.51c.19.14.09.07,0,0l.19.16a6,6,0,0,1,.45.42,8.65,8.65,0,0,1,2,3.41,13.19,13.19,0,0,1-.59,8.82,13.63,13.63,0,0,1-3,4.39,1.2,1.2,0,0,0,1.7,1.7Z" transform="translate(-57.68 -74.91)"/><path class="cls-2" d="M623.05,617.64c2.51-1.29,5.41-1.26,8.18-1.28a71.9,71.9,0,0,0,9.72-.73c6.64-.93,13.28-2,19.89-3.07l11.29-1.75a1.21,1.21,0,0,0,.84-1.47,1.25,1.25,0,0,0-1.48-.85l-20.11,3.12c-6.5,1-13,2.31-19.59,2.35-3.39,0-6.87,0-10,1.61a1.21,1.21,0,0,0-.52,1.46,1,1,0,0,0,.93.61Z" transform="translate(-57.68 -74.91)"/><path class="cls-2" d="M615.64,596.62A64,64,0,0,1,627,595.47q6-.27,11.92-.71,11.82-.85,23.6-2.29,6.72-.83,13.42-1.85a1.19,1.19,0,0,0,.84-1.47,1.22,1.22,0,0,0-1.47-.84q-11.7,1.76-23.48,2.93T628.12,593c-4.39.22-8.85.28-13.13,1.29a1.2,1.2,0,0,0,.64,2.32Z" transform="translate(-57.68 -74.91)"/><path class="cls-2" d="M672.65,611.29a30.8,30.8,0,0,0,7.35-.89,3.15,3.15,0,0,0,1.45-.77,3.68,3.68,0,0,0,.78-1.7c.32-1.21.61-2.43.86-3.66a53,53,0,0,0,1.08-7.31,6.16,6.16,0,0,0-.64-3.43,6.23,6.23,0,0,0-1.58-1.77c-.41-.32-.83-.62-1.26-.91l-.56-.39-.2-.14s-.27-.21-.11-.08a6.46,6.46,0,0,1-.93-.88c.15.17,0,0,0-.05l-.19-.32s-.1-.21,0,0a2.64,2.64,0,0,1-.12-.4,1.2,1.2,0,0,0-2.32.64c.42,1.63,1.73,2.64,3,3.56l.84.58.18.14.11.09a4.83,4.83,0,0,1,.42.37c.13.12.25.26.37.39s.13.18,0,0l.12.18a2.75,2.75,0,0,1,.41,1.14,12.51,12.51,0,0,1-.17,3c-.13,1.1-.3,2.21-.49,3.31s-.43,2.22-.69,3.32c-.12.53-.25,1-.37,1.57-.07.27-.14.56-.23.83,0,.08-.15.28,0,.17-.16.14,0,0-.19.08a2.93,2.93,0,0,1-.37.1l-.87.19c-.58.12-1.18.22-1.77.3a29.64,29.64,0,0,1-3.88.27,1.21,1.21,0,0,0,0,2.41Z" transform="translate(-57.68 -74.91)"/><path class="cls-2" d="M677.9,589.82l10.17-1.31a1.24,1.24,0,0,0,1.2-1.2,1.21,1.21,0,0,0-1.2-1.21l-10.17,1.31a1.24,1.24,0,0,0-1.2,1.2A1.21,1.21,0,0,0,677.9,589.82Z" transform="translate(-57.68 -74.91)"/><path class="cls-2" d="M679.5,611.19l7.21-.56c1.9-.14,4.38-.06,5.47-2a1.2,1.2,0,0,0-2.08-1.21,1.37,1.37,0,0,1-.13.2c.13-.15-.06,0-.08.06s.14-.08,0,0l-.26.14c.15-.06-.21.07-.28.09l-.56.11h-.12l-.25,0-.76.06-1.64.15-6.48.5a1.24,1.24,0,0,0-1.2,1.21,1.21,1.21,0,0,0,1.2,1.2Z" transform="translate(-57.68 -74.91)"/><path class="cls-2" d="M693,607.75c.85-3,1.76-6,2.55-9.06a9.73,9.73,0,0,0,.26-4.52,8.78,8.78,0,0,0-1.7-3.43,23.58,23.58,0,0,0-3.07-3.17,1.21,1.21,0,0,0-1.7,1.71,19.62,19.62,0,0,1,3,3.14,5.66,5.66,0,0,1,1.19,4,13.9,13.9,0,0,1-.54,2.4c-.27.94-.53,1.88-.8,2.82l-1.54,5.48a1.2,1.2,0,0,0,2.32.64Z" transform="translate(-57.68 -74.91)"/><path class="cls-2" d="M692.83,588.51c-.18.08.19,0,.19,0l.24-.07.3-.07c.1,0,.31-.05.1,0a5,5,0,0,1,1.22,0c-.24,0,.16,0,.17,0l.24,0a5.76,5.76,0,0,1,.59.18,2.9,2.9,0,0,1,.41.16l.56.3a6.56,6.56,0,0,1,1.75,1.53,6.74,6.74,0,0,1,1.06,2.27,10.32,10.32,0,0,1-.42,5.81,7.39,7.39,0,0,1-3.11,4.4q-1.26.59-2.58,1.05a8.31,8.31,0,0,0-2.87,1.75,1.2,1.2,0,0,0,1.7,1.7,6.84,6.84,0,0,1,2.31-1.33,18.75,18.75,0,0,0,2.88-1.23c2.06-1.2,3.2-3.43,3.93-5.63a12.58,12.58,0,0,0,.45-7.16,8.6,8.6,0,0,0-3.69-5.11,7.1,7.1,0,0,0-6.64-.64,1.2,1.2,0,0,0-.43,1.65,1.24,1.24,0,0,0,1.65.43Z" transform="translate(-57.68 -74.91)"/><path class="cls-2" d="M626.47,607.69H633a1.25,1.25,0,0,0,1.15-.72,1.3,1.3,0,0,0-1.17-1.86h-6.49a1.24,1.24,0,0,0-1.15.72A1.3,1.3,0,0,0,626.47,607.69Z" transform="translate(-57.68 -74.91)"/><path class="cls-2" d="M683.19,597.8l-6.36,2a1.21,1.21,0,0,0,.64,2.31l6.36-2a1.2,1.2,0,1,0-.64-2.32h0Z" transform="translate(-57.68 -74.91)"/><path class="cls-2" d="M604.71,607.32l.74.43a1.18,1.18,0,0,0,1.17.31l1.14-.46-1.36-.55,1.18,1.84a1.21,1.21,0,0,0,1.66.43,1.22,1.22,0,0,0,.55-.71,9.77,9.77,0,0,0,0-5.44l-2,1.16c.12.12.23.25.34.37-.23-.26-.05-.05,0,0l.13.21.1.2.06.13q.07.16,0-.09a2.25,2.25,0,0,0,.14.44,3.78,3.78,0,0,1,.1.46c-.09-.37,0-.07-.24,0v.22c.24.16.2.34.22.5,0-.27,0-.17,0,0s0,.18-.07.28a1.19,1.19,0,0,0,.84,1.47,1.2,1.2,0,0,0,1.48-.84h0a5.25,5.25,0,0,0-1.37-5,1.2,1.2,0,0,0-2,1.16,7.46,7.46,0,0,1,.17,1.11v-.06l.11.18,0,.26c0,.19,0,.37,0,.58a.67.67,0,0,0,.21.57v.27c-.23.08-.29.38-.25.19s0,.15,0,.19a1.32,1.32,0,0,1,0,.26c0,.2-.1.4-.15.6l2.21-.29-1.17-1.85a1.22,1.22,0,0,0-1.41-.53l-1.13.46,1.17.31-.74-.57a1.32,1.32,0,0,0-.84-.37,1.25,1.25,0,0,0-.86.37c-.39.43,0,1.84,0,1.84Z" transform="translate(-57.68 -74.91)"/></g></g><g id="Capa_2-10" data-name="Capa 2"><g id="Capa_3-10" data-name="Capa 3"><path class="cls-2" d="M622.73,301.32q6.06-4.86,11.81-10.09a1.21,1.21,0,0,0-1.54-1.86l-.16.16q-5.75,5.22-11.8,10.09a1.18,1.18,0,0,0,0,1.7,1.24,1.24,0,0,0,1.7,0Z" transform="translate(-57.68 -74.91)"/><path class="cls-2" d="M621.9,303.3l15.49,7.43a1.25,1.25,0,0,0,1.65-.44,1.22,1.22,0,0,0-.42-1.63l-15.49-7.43a1.25,1.25,0,0,0-1.66.42,1.23,1.23,0,0,0,.43,1.65Z" transform="translate(-57.68 -74.91)"/><path class="cls-2" d="M639.33,311.64c5-5,6.86-14.26,1.74-19.82a7.41,7.41,0,0,0-5-2.45,1.21,1.21,0,1,0,0,2.41s.5.05.3,0a4.31,4.31,0,0,1,.49.11,4,4,0,0,1,.46.14l.23.08c-.18-.08.15.08.15.08a6.48,6.48,0,0,1,.84.51c.19.14.09.07,0,0l.19.16a6,6,0,0,1,.45.42,8.65,8.65,0,0,1,2,3.41,13.19,13.19,0,0,1-.59,8.82,13.63,13.63,0,0,1-3,4.39,1.2,1.2,0,0,0,1.7,1.7Z" transform="translate(-57.68 -74.91)"/><path class="cls-2" d="M641.05,311.64c2.51-1.29,5.41-1.26,8.18-1.28a71.9,71.9,0,0,0,9.72-.73c6.64-.93,13.28-2,19.89-3.07l11.29-1.75a1.21,1.21,0,0,0,.84-1.47,1.25,1.25,0,0,0-1.48-.85l-20.11,3.12c-6.5,1-13,2.31-19.59,2.35-3.39,0-6.87,0-10,1.61a1.21,1.21,0,0,0-.52,1.46,1,1,0,0,0,.93.61Z" transform="translate(-57.68 -74.91)"/><path class="cls-2" d="M633.64,290.62A64,64,0,0,1,645,289.47q6-.27,11.92-.71,11.82-.86,23.6-2.29,6.72-.83,13.42-1.85a1.19,1.19,0,0,0,.84-1.47,1.22,1.22,0,0,0-1.47-.84q-11.7,1.76-23.48,2.93T646.12,287c-4.39.22-8.85.28-13.13,1.29a1.2,1.2,0,0,0,.64,2.32Z" transform="translate(-57.68 -74.91)"/><path class="cls-2" d="M690.65,305.29a30.8,30.8,0,0,0,7.35-.89,3.15,3.15,0,0,0,1.45-.77,3.68,3.68,0,0,0,.78-1.7c.32-1.21.61-2.43.86-3.66a53,53,0,0,0,1.08-7.31,6.16,6.16,0,0,0-.64-3.43,6.23,6.23,0,0,0-1.58-1.77c-.41-.32-.83-.62-1.26-.91l-.56-.39-.2-.14s-.27-.21-.11-.08a6.46,6.46,0,0,1-.93-.88c.15.17,0,0,0-.05l-.19-.32s-.1-.21,0,0a2.64,2.64,0,0,1-.12-.4,1.2,1.2,0,0,0-2.32.64c.42,1.63,1.73,2.64,3,3.56l.84.58.18.14.11.09a4.83,4.83,0,0,1,.42.37c.13.12.25.26.37.39s.13.18,0,0l.12.18a2.75,2.75,0,0,1,.41,1.14,12.51,12.51,0,0,1-.17,3c-.13,1.1-.3,2.21-.49,3.31s-.43,2.22-.69,3.32c-.12.53-.25,1-.37,1.57-.07.27-.14.56-.23.83,0,.08-.15.28,0,.17-.16.14,0,0-.19.08a2.93,2.93,0,0,1-.37.1l-.87.19c-.58.12-1.18.22-1.77.3a29.64,29.64,0,0,1-3.88.27,1.21,1.21,0,0,0,0,2.41Z" transform="translate(-57.68 -74.91)"/><path class="cls-2" d="M695.9,283.82l10.17-1.31a1.24,1.24,0,0,0,1.2-1.2,1.21,1.21,0,0,0-1.2-1.21l-10.17,1.31a1.24,1.24,0,0,0-1.2,1.2A1.21,1.21,0,0,0,695.9,283.82Z" transform="translate(-57.68 -74.91)"/><path class="cls-2" d="M697.5,305.19l7.21-.56c1.9-.14,4.38-.06,5.47-2a1.2,1.2,0,0,0-2.08-1.21,1.37,1.37,0,0,1-.13.2c.13-.15-.06,0-.08.06s.14-.08,0,0l-.26.14c.15-.06-.21.07-.28.09l-.56.11h-.12l-.25,0-.76.06-1.64.15-6.48.5a1.24,1.24,0,0,0-1.2,1.21,1.21,1.21,0,0,0,1.2,1.2Z" transform="translate(-57.68 -74.91)"/><path class="cls-2" d="M711,301.75c.85-3,1.76-6,2.55-9.06a9.73,9.73,0,0,0,.26-4.52,8.78,8.78,0,0,0-1.7-3.43,23.58,23.58,0,0,0-3.07-3.17,1.21,1.21,0,0,0-1.7,1.71,19.62,19.62,0,0,1,3,3.14,5.66,5.66,0,0,1,1.19,4,13.9,13.9,0,0,1-.54,2.4c-.27.94-.53,1.88-.8,2.82l-1.54,5.48a1.2,1.2,0,0,0,2.32.64Z" transform="translate(-57.68 -74.91)"/><path class="cls-2" d="M710.83,282.51c-.18.08.19-.05.19-.05l.24-.07.3-.07c.1,0,.31-.05.1,0a5,5,0,0,1,1.22,0c-.24,0,.16,0,.17,0l.24.05a5.76,5.76,0,0,1,.59.18,2.9,2.9,0,0,1,.41.16l.56.3a6.56,6.56,0,0,1,1.75,1.53,6.74,6.74,0,0,1,1.06,2.27,10.32,10.32,0,0,1-.42,5.81,7.39,7.39,0,0,1-3.11,4.4q-1.26.59-2.58,1.05a8.31,8.31,0,0,0-2.87,1.75,1.2,1.2,0,0,0,1.7,1.7,6.84,6.84,0,0,1,2.31-1.33,18.75,18.75,0,0,0,2.88-1.23c2.06-1.2,3.2-3.43,3.93-5.63a12.58,12.58,0,0,0,.45-7.16,8.6,8.6,0,0,0-3.69-5.11,7.1,7.1,0,0,0-6.64-.64,1.2,1.2,0,0,0-.43,1.65,1.24,1.24,0,0,0,1.65.43Z" transform="translate(-57.68 -74.91)"/><path class="cls-2" d="M644.47,301.69H651a1.25,1.25,0,0,0,1.15-.72,1.3,1.3,0,0,0-1.17-1.86h-6.49a1.24,1.24,0,0,0-1.15.72A1.3,1.3,0,0,0,644.47,301.69Z" transform="translate(-57.68 -74.91)"/><path class="cls-2" d="M701.19,291.8l-6.36,2a1.21,1.21,0,0,0,.64,2.31l6.36-2a1.2,1.2,0,0,0-.64-2.32h0Z" transform="translate(-57.68 -74.91)"/><path class="cls-2" d="M622.71,301.32l.74.43a1.18,1.18,0,0,0,1.17.31l1.14-.46-1.36-.55,1.18,1.84a1.21,1.21,0,0,0,1.66.43,1.22,1.22,0,0,0,.55-.71,9.77,9.77,0,0,0,0-5.44l-2,1.16c.12.12.23.25.34.37-.23-.26-.05-.05,0,0l.13.21.1.2.06.13q.07.17,0-.09a2.25,2.25,0,0,0,.14.44,3.78,3.78,0,0,1,.1.46c-.09-.37,0-.07-.24,0v.22c.24.16.2.34.22.5,0-.27,0-.17,0,0s0,.18-.07.28a1.19,1.19,0,0,0,.84,1.47,1.2,1.2,0,0,0,1.48-.84h0a5.25,5.25,0,0,0-1.37-5,1.2,1.2,0,0,0-2,1.16,7.46,7.46,0,0,1,.17,1.11v-.06l.11.18,0,.26c0,.19,0,.37,0,.58a.67.67,0,0,0,.21.57v.27c-.23.08-.29.38-.25.19s0,.15,0,.19a1.32,1.32,0,0,1,0,.26c0,.2-.1.4-.15.6l2.21-.29-1.17-1.85a1.22,1.22,0,0,0-1.41-.53l-1.13.46,1.17.31-.74-.57a1.32,1.32,0,0,0-.84-.37,1.25,1.25,0,0,0-.86.37c-.39.43,0,1.84,0,1.84Z" transform="translate(-57.68 -74.91)"/></g></g><g id="Capa_2-11" data-name="Capa 2"><g id="Capa_3-11" data-name="Capa 3"><path class="cls-2" d="M297.73,376.32q6.06-4.86,11.81-10.09a1.21,1.21,0,1,0-1.54-1.86l-.16.16q-5.74,5.22-11.8,10.09a1.18,1.18,0,0,0,0,1.7,1.24,1.24,0,0,0,1.7,0Z" transform="translate(-57.68 -74.91)"/><path class="cls-2" d="M296.9,378.3l15.49,7.43a1.25,1.25,0,0,0,1.65-.44,1.22,1.22,0,0,0-.42-1.63l-15.49-7.43a1.25,1.25,0,0,0-1.66.42,1.23,1.23,0,0,0,.43,1.65Z" transform="translate(-57.68 -74.91)"/><path class="cls-2" d="M314.33,386.64c5-5,6.86-14.26,1.74-19.82a7.41,7.41,0,0,0-5-2.45,1.21,1.21,0,1,0,0,2.41s.5.05.3,0a4.31,4.31,0,0,1,.49.11,4,4,0,0,1,.46.14l.23.08c-.18-.08.15.08.15.08a6.48,6.48,0,0,1,.84.51c.19.14.09.07.05,0l.19.16a6,6,0,0,1,.45.42,8.65,8.65,0,0,1,2,3.41,13.19,13.19,0,0,1-.59,8.82,13.63,13.63,0,0,1-2.95,4.39,1.2,1.2,0,0,0,1.7,1.7Z" transform="translate(-57.68 -74.91)"/><path class="cls-2" d="M316.05,386.64c2.51-1.29,5.41-1.26,8.18-1.28a71.9,71.9,0,0,0,9.72-.73c6.64-.93,13.28-2,19.89-3.07l11.29-1.75a1.21,1.21,0,0,0,.84-1.47,1.25,1.25,0,0,0-1.48-.85l-20.11,3.12c-6.5,1-13,2.31-19.59,2.35-3.39,0-6.87,0-10,1.61a1.21,1.21,0,0,0-.52,1.46,1,1,0,0,0,.93.61Z" transform="translate(-57.68 -74.91)"/><path class="cls-2" d="M308.64,365.62A64,64,0,0,1,320,364.47q6-.27,11.92-.71,11.82-.86,23.6-2.29,6.72-.83,13.42-1.85a1.19,1.19,0,0,0,.84-1.47,1.22,1.22,0,0,0-1.47-.84q-11.7,1.76-23.48,2.93T321.12,362c-4.39.22-8.85.28-13.13,1.29a1.2,1.2,0,0,0,.64,2.32Z" transform="translate(-57.68 -74.91)"/><path class="cls-2" d="M365.65,380.29a30.8,30.8,0,0,0,7.35-.89,3.15,3.15,0,0,0,1.45-.77,3.68,3.68,0,0,0,.78-1.7c.32-1.21.61-2.43.86-3.66a53,53,0,0,0,1.08-7.31,6.16,6.16,0,0,0-.64-3.43,6.23,6.23,0,0,0-1.58-1.77c-.41-.32-.83-.62-1.26-.91l-.56-.39-.2-.14s-.27-.21-.11-.08a6.46,6.46,0,0,1-.93-.88c.15.17,0,0,0-.05l-.19-.32s-.1-.21,0,0a2.64,2.64,0,0,1-.12-.4,1.2,1.2,0,0,0-2.32.64c.42,1.63,1.73,2.64,3,3.56l.84.58.18.14.11.09a4.83,4.83,0,0,1,.42.37c.13.12.25.26.37.39s.13.18,0,0l.12.18a2.75,2.75,0,0,1,.41,1.14,12.51,12.51,0,0,1-.17,3c-.13,1.1-.3,2.21-.49,3.31s-.43,2.22-.69,3.32c-.12.53-.25,1-.37,1.57-.07.27-.14.56-.23.83,0,.08-.15.28,0,.17-.16.14,0,0-.19.08a2.93,2.93,0,0,1-.37.1l-.87.19c-.58.12-1.18.22-1.77.3a29.64,29.64,0,0,1-3.88.27,1.21,1.21,0,0,0,0,2.41Z" transform="translate(-57.68 -74.91)"/><path class="cls-2" d="M370.9,358.82l10.17-1.31a1.24,1.24,0,0,0,1.2-1.2,1.21,1.21,0,0,0-1.2-1.21l-10.17,1.31a1.24,1.24,0,0,0-1.2,1.2A1.21,1.21,0,0,0,370.9,358.82Z" transform="translate(-57.68 -74.91)"/><path class="cls-2" d="M372.5,380.19l7.21-.56c1.9-.14,4.38-.06,5.47-2a1.2,1.2,0,0,0-2.08-1.21,1.37,1.37,0,0,1-.13.2c.13-.15-.06,0-.08.06s.14-.08,0,0l-.26.14c.15-.06-.21.07-.28.09l-.56.11h-.12l-.25,0-.76.06-1.64.15-6.48.5a1.24,1.24,0,0,0-1.2,1.21,1.21,1.21,0,0,0,1.2,1.2Z" transform="translate(-57.68 -74.91)"/><path class="cls-2" d="M386,376.75c.85-3,1.76-6,2.55-9.06a9.73,9.73,0,0,0,.26-4.52,8.78,8.78,0,0,0-1.7-3.43,23.58,23.58,0,0,0-3.07-3.17,1.21,1.21,0,0,0-1.7,1.71,19.62,19.62,0,0,1,3,3.14,5.66,5.66,0,0,1,1.19,4,13.9,13.9,0,0,1-.54,2.4c-.27.94-.53,1.88-.8,2.82l-1.54,5.48a1.2,1.2,0,0,0,2.32.64Z" transform="translate(-57.68 -74.91)"/><path class="cls-2" d="M385.83,357.51c-.18.08.19-.05.19-.05l.24-.07.3-.07c.1,0,.31-.05.1,0a5,5,0,0,1,1.22,0c-.24,0,.16,0,.17,0l.24.05a5.76,5.76,0,0,1,.59.18,2.9,2.9,0,0,1,.41.16l.56.3a6.56,6.56,0,0,1,1.75,1.53,6.74,6.74,0,0,1,1.06,2.27,10.32,10.32,0,0,1-.42,5.81,7.39,7.39,0,0,1-3.11,4.4q-1.26.59-2.58,1.05a8.31,8.31,0,0,0-2.87,1.75,1.2,1.2,0,0,0,1.7,1.7,6.84,6.84,0,0,1,2.31-1.33,18.75,18.75,0,0,0,2.88-1.23c2.06-1.2,3.2-3.43,3.93-5.63a12.58,12.58,0,0,0,.45-7.16,8.6,8.6,0,0,0-3.69-5.11,7.1,7.1,0,0,0-6.64-.64,1.2,1.2,0,0,0-.43,1.65,1.24,1.24,0,0,0,1.65.43Z" transform="translate(-57.68 -74.91)"/><path class="cls-2" d="M319.47,376.69H326a1.25,1.25,0,0,0,1.15-.72,1.3,1.3,0,0,0-1.17-1.86h-6.49a1.24,1.24,0,0,0-1.15.72A1.3,1.3,0,0,0,319.47,376.69Z" transform="translate(-57.68 -74.91)"/><path class="cls-2" d="M376.19,366.8l-6.36,2a1.21,1.21,0,0,0,.64,2.31l6.36-2a1.2,1.2,0,0,0-.64-2.32h0Z" transform="translate(-57.68 -74.91)"/><path class="cls-2" d="M297.71,376.32l.74.43a1.18,1.18,0,0,0,1.17.31l1.14-.46-1.36-.55,1.18,1.84a1.21,1.21,0,0,0,1.66.43,1.22,1.22,0,0,0,.55-.71,9.77,9.77,0,0,0,0-5.44l-2,1.16c.12.12.23.25.34.37-.23-.26-.05-.05,0,0l.13.21.1.2.06.13q.08.17,0-.09a2.25,2.25,0,0,0,.14.44,3.78,3.78,0,0,1,.1.46c-.09-.37,0-.07-.24,0v.22c.24.16.2.34.22.5,0-.27,0-.17,0,0s0,.18-.07.28a1.19,1.19,0,0,0,.84,1.47,1.2,1.2,0,0,0,1.48-.84h0a5.25,5.25,0,0,0-1.37-5,1.2,1.2,0,0,0-2,1.16,7.46,7.46,0,0,1,.17,1.11v-.06l.11.18,0,.26c0,.19,0,.37,0,.58a.67.67,0,0,0,.21.57v.27c-.23.08-.29.38-.25.19s0,.15,0,.19a1.32,1.32,0,0,1-.05.26c0,.2-.1.4-.15.6l2.21-.29-1.17-1.85a1.22,1.22,0,0,0-1.41-.53l-1.13.46,1.17.31-.74-.57a1.32,1.32,0,0,0-.84-.37,1.25,1.25,0,0,0-.86.37c-.39.43,0,1.84,0,1.84Z" transform="translate(-57.68 -74.91)"/></g></g><g id="Capa_2-12" data-name="Capa 2"><g id="Capa_1-2" data-name="Capa 1-2"><path class="cls-1" d="M401.91,120.46a156.87,156.87,0,0,1,1.16-30.09q.6-4.26,1.39-8.47a1.18,1.18,0,0,0-.79-1.41,1.16,1.16,0,0,0-1.44.79h0a160.27,160.27,0,0,0-2.87,30.6q0,4.31.25,8.57a1.18,1.18,0,0,0,1.15,1.15A1.16,1.16,0,0,0,401.91,120.46Z" transform="translate(-57.68 -74.91)"/><path class="cls-1" d="M403.92,81.87l33.61-.36,9.45-.1A1.21,1.21,0,0,0,447,79l-33.62.36-9.45.1a1.21,1.21,0,0,0,0,2.42Z" transform="translate(-57.68 -74.91)"/><path class="cls-1" d="M404.15,123.88a6,6,0,0,1,2.18-1.55,10.41,10.41,0,0,1,1.34-.42l.77-.16.61-.09a52.74,52.74,0,0,1,7,0l16.67.41,9.5.23a1.15,1.15,0,0,0,0-2.3L425,119.53l-8.61-.2a56.27,56.27,0,0,0-7.23,0,10.12,10.12,0,0,0-6.65,2.9,1.17,1.17,0,0,0,0,1.63,1.16,1.16,0,0,0,1.62,0Z" transform="translate(-57.68 -74.91)"/><path class="cls-1" d="M423.11,95.15l-1.69,5.47a4.89,4.89,0,0,0-.36,2.84,2.72,2.72,0,0,0,1.49,1.66,6.37,6.37,0,0,0,2.2.51c.93.07,1.86.1,2.8.12,1.87,0,3.74,0,5.61-.13s3.81-.33,5.71-.61l1.29-.21a2.41,2.41,0,0,1,1,0,.89.89,0,0,1,.34.27,2.2,2.2,0,0,1,.31.68,21.25,21.25,0,0,1,.68,5,51.75,51.75,0,0,1,0,5.57,117.62,117.62,0,0,1-1.44,12.38,1.21,1.21,0,0,0,.81,1.42,1.17,1.17,0,0,0,1.41-.81c1.11-7.44,2.21-15,1-22.49-.23-1.44-.58-3.13-2-3.92a4.1,4.1,0,0,0-2.78-.26c-.87.13-1.74.28-2.62.38a64.48,64.48,0,0,1-11.2.43c-.47,0-.94,0-1.4-.09l-.29,0a3.08,3.08,0,0,1-.57-.17c.16.07-.17-.1-.22-.14.15.11,0,0,0,0s-.1-.1,0-.05,0,0,0-.06h0a.88.88,0,0,1,0-.23,3.9,3.9,0,0,1,.18-.67c.62-2,1.27-4.1,1.9-6.15.44-1.42-1.78-2-2.21-.62Z" transform="translate(-57.68 -74.91)"/><path class="cls-1" d="M426.15,97.18,448.36,99l.6,0,.25,0c.21,0-.12,0,.09,0a1.55,1.55,0,0,1,.72.25c-.06,0,.07.15,0,0a1,1,0,0,1,.08.39c0,.44,0,.88,0,1.32,0,1.81,0,3.63-.09,5.44q-.18,5.5-.74,11-.63,6.11-1.74,12.14a1.18,1.18,0,0,0,.8,1.41,1.16,1.16,0,0,0,1.41-.8,161.85,161.85,0,0,0,2.54-22.92q.1-2.86.12-5.7a10.74,10.74,0,0,0-.14-2.72,2.78,2.78,0,0,0-1.88-1.9,11.8,11.8,0,0,0-2.58-.36L445,96.44,439.21,96l-13.06-1.07a1.15,1.15,0,0,0,0,2.29Z" transform="translate(-57.68 -74.91)"/><path class="cls-1" d="M442.22,130a11.86,11.86,0,0,0-11.56,9.4,1.18,1.18,0,0,0,.8,1.41,1.15,1.15,0,0,0,1.41-.8,9.58,9.58,0,0,1,9.35-7.72A1.15,1.15,0,0,0,442.22,130Z" transform="translate(-57.68 -74.91)"/><path class="cls-1" d="M450.74,129.81l2.65,6.93a1.18,1.18,0,0,0,1.41.81,1.17,1.17,0,0,0,.8-1.41L453,129.2a1.15,1.15,0,0,0-2.22.61Z" transform="translate(-57.68 -74.91)"/><path class="cls-1" d="M431.05,141.43a108.69,108.69,0,0,1,18.92.24c1.76.18,3.51.41,5.26.67a1.18,1.18,0,0,0,1.41-.8,1.15,1.15,0,0,0-.8-1.41,109.23,109.23,0,0,0-19.37-1.26c-1.79,0-3.62.13-5.42.27a1.17,1.17,0,0,0-1.15,1.15A1.14,1.14,0,0,0,431.05,141.43Z" transform="translate(-57.68 -74.91)"/><path class="cls-1" d="M445.9,83l18.62-1.36a1.18,1.18,0,0,0,1.15-1.15,1.15,1.15,0,0,0-1.15-1.14L445.9,80.72a1.18,1.18,0,0,0-1.15,1.15A1.15,1.15,0,0,0,445.9,83Z" transform="translate(-57.68 -74.91)"/><path class="cls-1" d="M452.49,122.68a29.83,29.83,0,0,1,12.74-.91,3.56,3.56,0,0,0,3.23-.67,7.11,7.11,0,0,0,1.33-2.8,59,59,0,0,0,1.75-6.24,61.16,61.16,0,0,0,1.46-13,60.49,60.49,0,0,0-.32-6.46,27.61,27.61,0,0,0-1.17-6.11A11.28,11.28,0,0,0,467.69,81a7.68,7.68,0,0,0-6.05-1.51,1.15,1.15,0,0,0-.8,1.42,1.18,1.18,0,0,0,1.41.8,5,5,0,0,1,2.1.13,6.55,6.55,0,0,1,2.08,1.08,8.56,8.56,0,0,1,2.74,3.88,22.23,22.23,0,0,1,1.15,5.34,59.16,59.16,0,0,1-.71,18.06,58.42,58.42,0,0,1-1.51,6c-.29,1-.59,1.89-.94,2.81-.1.25-.21.53-.41.63a2.32,2.32,0,0,1-.91,0,36.41,36.41,0,0,0-6.92-.33,31.7,31.7,0,0,0-7,1.24,1.15,1.15,0,0,0,.61,2.21Z" transform="translate(-57.68 -74.91)"/></g></g><g id="Capa_2-13" data-name="Capa 2"><g id="Capa_1-2-2" data-name="Capa 1-2"><path class="cls-1" d="M201.91,600.46a156.87,156.87,0,0,1,1.16-30.09q.6-4.26,1.39-8.47a1.18,1.18,0,0,0-.79-1.41,1.16,1.16,0,0,0-1.44.79h0a160.27,160.27,0,0,0-2.87,30.6q0,4.3.25,8.57a1.18,1.18,0,0,0,1.15,1.15A1.16,1.16,0,0,0,201.91,600.46Z" transform="translate(-57.68 -74.91)"/><path class="cls-1" d="M203.92,561.87l33.61-.36,9.45-.1a1.21,1.21,0,0,0,0-2.41l-33.62.36-9.45.1a1.21,1.21,0,0,0,0,2.42Z" transform="translate(-57.68 -74.91)"/><path class="cls-1" d="M204.15,603.88a6,6,0,0,1,2.18-1.55,10.41,10.41,0,0,1,1.34-.42l.77-.16.61-.09a52.74,52.74,0,0,1,7,0l16.67.41,9.5.23a1.15,1.15,0,0,0,0-2.3L225,599.53l-8.61-.2a56.27,56.27,0,0,0-7.23,0,10.12,10.12,0,0,0-6.65,2.9,1.17,1.17,0,0,0,0,1.63,1.16,1.16,0,0,0,1.62,0Z" transform="translate(-57.68 -74.91)"/><path class="cls-1" d="M223.11,575.15l-1.69,5.47a4.89,4.89,0,0,0-.36,2.84,2.72,2.72,0,0,0,1.49,1.66,6.37,6.37,0,0,0,2.2.51c.93.07,1.86.1,2.8.12,1.87,0,3.74,0,5.61-.13s3.81-.33,5.71-.61l1.29-.21a2.41,2.41,0,0,1,1,0,.89.89,0,0,1,.34.27,2.2,2.2,0,0,1,.31.68,21.25,21.25,0,0,1,.68,5,51.75,51.75,0,0,1,0,5.57,117.62,117.62,0,0,1-1.44,12.38,1.21,1.21,0,0,0,.81,1.42,1.17,1.17,0,0,0,1.41-.81c1.11-7.44,2.21-15,1.05-22.49-.23-1.44-.58-3.13-2-3.92a4.1,4.1,0,0,0-2.78-.26c-.87.13-1.74.28-2.62.38a64.48,64.48,0,0,1-11.2.43c-.47,0-.94,0-1.4-.09l-.29-.05a3.08,3.08,0,0,1-.57-.17c.16.07-.17-.1-.22-.14.15.11,0,0,0,0s-.1-.1,0,0,0,0,0-.06h0a.88.88,0,0,1,0-.23,3.9,3.9,0,0,1,.18-.67c.62-2,1.27-4.1,1.9-6.15.44-1.42-1.78-2-2.21-.62Z" transform="translate(-57.68 -74.91)"/><path class="cls-1" d="M226.15,577.18,248.36,579l.6.05.25,0c.21,0-.12,0,.09,0a1.55,1.55,0,0,1,.72.25c-.06-.05.07.15,0,0a1,1,0,0,1,.08.39c0,.44,0,.88,0,1.32,0,1.81,0,3.63-.09,5.44q-.18,5.51-.74,11-.63,6.11-1.74,12.14a1.18,1.18,0,0,0,.8,1.41,1.16,1.16,0,0,0,1.41-.8,161.85,161.85,0,0,0,2.54-22.92q.1-2.86.12-5.7a10.74,10.74,0,0,0-.14-2.72,2.78,2.78,0,0,0-1.88-1.9,11.8,11.8,0,0,0-2.58-.36l-2.85-.23-5.77-.49-13.06-1.07a1.15,1.15,0,0,0,0,2.29Z" transform="translate(-57.68 -74.91)"/><path class="cls-1" d="M242.22,610a11.86,11.86,0,0,0-11.56,9.4,1.18,1.18,0,0,0,.8,1.41,1.15,1.15,0,0,0,1.41-.8,9.58,9.58,0,0,1,9.35-7.72A1.15,1.15,0,0,0,242.22,610Z" transform="translate(-57.68 -74.91)"/><path class="cls-1" d="M250.74,609.81l2.65,6.93a1.18,1.18,0,0,0,1.41.81,1.17,1.17,0,0,0,.8-1.41L253,609.2a1.15,1.15,0,0,0-2.22.61Z" transform="translate(-57.68 -74.91)"/><path class="cls-1" d="M231.05,621.43a108.69,108.69,0,0,1,18.92.24c1.76.18,3.51.41,5.26.67a1.18,1.18,0,0,0,1.41-.8,1.15,1.15,0,0,0-.8-1.41,109.23,109.23,0,0,0-19.37-1.26c-1.79,0-3.62.13-5.42.27a1.17,1.17,0,0,0-1.15,1.15A1.14,1.14,0,0,0,231.05,621.43Z" transform="translate(-57.68 -74.91)"/><path class="cls-1" d="M245.9,563l18.62-1.36a1.18,1.18,0,0,0,1.15-1.15,1.15,1.15,0,0,0-1.15-1.14l-18.62,1.34a1.18,1.18,0,0,0-1.15,1.15A1.15,1.15,0,0,0,245.9,563Z" transform="translate(-57.68 -74.91)"/><path class="cls-1" d="M252.49,602.68a29.83,29.83,0,0,1,12.74-.91,3.56,3.56,0,0,0,3.23-.67,7.11,7.11,0,0,0,1.33-2.8,59,59,0,0,0,1.75-6.24,61.16,61.16,0,0,0,1.46-13,60.49,60.49,0,0,0-.32-6.46,27.61,27.61,0,0,0-1.17-6.11,11.28,11.28,0,0,0-3.82-5.52,7.68,7.68,0,0,0-6.05-1.51,1.15,1.15,0,0,0-.8,1.42,1.18,1.18,0,0,0,1.41.8,5,5,0,0,1,2.1.13,6.55,6.55,0,0,1,2.08,1.08,8.56,8.56,0,0,1,2.74,3.88,22.23,22.23,0,0,1,1.15,5.34,59.16,59.16,0,0,1-.71,18.06,58.42,58.42,0,0,1-1.51,6c-.29,1-.59,1.89-.94,2.81-.1.25-.21.53-.41.63a2.32,2.32,0,0,1-.91,0,36.41,36.41,0,0,0-6.92-.33,31.7,31.7,0,0,0-7,1.24,1.15,1.15,0,0,0,.61,2.21Z" transform="translate(-57.68 -74.91)"/></g></g><g id="Capa_2-14" data-name="Capa 2"><g id="Capa_1-2-3" data-name="Capa 1-2"><path class="cls-1" d="M486.91,376.46a156.87,156.87,0,0,1,1.16-30.09q.6-4.26,1.39-8.47a1.18,1.18,0,0,0-.79-1.41,1.16,1.16,0,0,0-1.44.79h0a160.27,160.27,0,0,0-2.87,30.6q0,4.31.25,8.57a1.18,1.18,0,0,0,1.15,1.15A1.16,1.16,0,0,0,486.91,376.46Z" transform="translate(-57.68 -74.91)"/><path class="cls-1" d="M488.92,337.87l33.61-.36,9.45-.1a1.21,1.21,0,0,0,0-2.41l-33.62.36-9.45.1a1.21,1.21,0,0,0,0,2.42Z" transform="translate(-57.68 -74.91)"/><path class="cls-1" d="M489.15,379.88a6,6,0,0,1,2.18-1.55,10.41,10.41,0,0,1,1.34-.42l.77-.16.61-.09a52.74,52.74,0,0,1,7-.05l16.67.41,9.5.23a1.15,1.15,0,0,0,0-2.3L510,375.53l-8.61-.2a56.27,56.27,0,0,0-7.23,0,10.12,10.12,0,0,0-6.65,2.9,1.17,1.17,0,0,0,0,1.63,1.16,1.16,0,0,0,1.62,0Z" transform="translate(-57.68 -74.91)"/><path class="cls-1" d="M508.11,351.15l-1.69,5.47a4.89,4.89,0,0,0-.36,2.84,2.72,2.72,0,0,0,1.49,1.66,6.37,6.37,0,0,0,2.2.51c.93.07,1.86.1,2.8.12,1.87,0,3.74,0,5.61-.13s3.81-.33,5.71-.61l1.29-.21a2.41,2.41,0,0,1,1,0,.89.89,0,0,1,.34.27,2.2,2.2,0,0,1,.31.68,21.25,21.25,0,0,1,.68,5,51.75,51.75,0,0,1,0,5.57,117.62,117.62,0,0,1-1.44,12.38,1.21,1.21,0,0,0,.81,1.42,1.17,1.17,0,0,0,1.41-.81c1.11-7.44,2.21-15,1.05-22.49-.23-1.44-.58-3.13-2-3.92a4.1,4.1,0,0,0-2.78-.26c-.87.13-1.74.28-2.62.38a64.48,64.48,0,0,1-11.2.43c-.47,0-.94,0-1.4-.09l-.29-.05a3.08,3.08,0,0,1-.57-.17c.16.07-.17-.1-.22-.14.15.11,0,0,0,0s-.1-.1,0-.05,0,0,0-.06h0a.88.88,0,0,1,0-.23,3.9,3.9,0,0,1,.18-.67c.62-2.05,1.27-4.1,1.9-6.15.44-1.42-1.78-2-2.21-.62Z" transform="translate(-57.68 -74.91)"/><path class="cls-1" d="M511.15,353.18,533.36,355l.6,0,.25,0c.21,0-.12,0,.09,0a1.55,1.55,0,0,1,.72.25c-.06-.05.07.15,0,.05a1,1,0,0,1,.08.39c0,.44,0,.88,0,1.32,0,1.81,0,3.63-.09,5.44q-.18,5.51-.74,11-.63,6.11-1.74,12.14a1.18,1.18,0,0,0,.8,1.41,1.16,1.16,0,0,0,1.41-.8,161.85,161.85,0,0,0,2.54-22.92q.11-2.87.12-5.7a10.74,10.74,0,0,0-.14-2.72,2.78,2.78,0,0,0-1.88-1.9,11.8,11.8,0,0,0-2.58-.36l-2.85-.23-5.77-.49-13.06-1.07a1.15,1.15,0,0,0,0,2.29Z" transform="translate(-57.68 -74.91)"/><path class="cls-1" d="M527.22,386a11.86,11.86,0,0,0-11.56,9.4,1.18,1.18,0,0,0,.8,1.41,1.15,1.15,0,0,0,1.41-.8,9.58,9.58,0,0,1,9.35-7.72A1.15,1.15,0,0,0,527.22,386Z" transform="translate(-57.68 -74.91)"/><path class="cls-1" d="M535.74,385.81l2.65,6.93a1.18,1.18,0,0,0,1.41.81,1.17,1.17,0,0,0,.8-1.41L538,385.2a1.15,1.15,0,0,0-2.22.61Z" transform="translate(-57.68 -74.91)"/><path class="cls-1" d="M516.05,397.43a108.69,108.69,0,0,1,18.92.24c1.76.18,3.51.41,5.26.67a1.18,1.18,0,0,0,1.41-.8,1.15,1.15,0,0,0-.8-1.41,109.23,109.23,0,0,0-19.37-1.26c-1.79,0-3.62.13-5.42.27a1.17,1.17,0,0,0-1.15,1.15A1.14,1.14,0,0,0,516.05,397.43Z" transform="translate(-57.68 -74.91)"/><path class="cls-1" d="M530.9,339l18.62-1.36a1.18,1.18,0,0,0,1.15-1.15,1.15,1.15,0,0,0-1.15-1.14l-18.62,1.34a1.18,1.18,0,0,0-1.15,1.15A1.15,1.15,0,0,0,530.9,339Z" transform="translate(-57.68 -74.91)"/><path class="cls-1" d="M537.49,378.68a29.83,29.83,0,0,1,12.74-.91,3.56,3.56,0,0,0,3.23-.67,7.11,7.11,0,0,0,1.33-2.8,59,59,0,0,0,1.75-6.24,61.16,61.16,0,0,0,1.46-13,60.49,60.49,0,0,0-.32-6.46,27.61,27.61,0,0,0-1.17-6.11,11.28,11.28,0,0,0-3.82-5.52,7.68,7.68,0,0,0-6.05-1.51,1.15,1.15,0,0,0-.8,1.42,1.18,1.18,0,0,0,1.41.8,5,5,0,0,1,2.1.13,6.55,6.55,0,0,1,2.08,1.08,8.56,8.56,0,0,1,2.74,3.88,22.23,22.23,0,0,1,1.15,5.34,59.16,59.16,0,0,1-.71,18.06,58.42,58.42,0,0,1-1.51,6c-.29.95-.59,1.89-.94,2.81-.1.25-.21.53-.41.63a2.32,2.32,0,0,1-.91,0,36.41,36.41,0,0,0-6.92-.33,31.7,31.7,0,0,0-7,1.24,1.15,1.15,0,0,0,.61,2.21Z" transform="translate(-57.68 -74.91)"/></g></g><g id="Capa_2-15" data-name="Capa 2"><g id="Capa_3-12" data-name="Capa 3"><path class="cls-1" d="M345.1,205.16a15.52,15.52,0,0,0-1.53,3.89,9.17,9.17,0,0,0-.25,4.35c.67,2.5,3.62,3.64,6,3.51a7.69,7.69,0,0,0,5.62-2.77,6.42,6.42,0,0,0-5.33-10.32,1.59,1.59,0,0,0-1.54,1.54c0,.76.71,1.68,1.58,1.53a1.45,1.45,0,0,1,.29,0h.53c.36,0-.17-.09,0,0a3.18,3.18,0,0,0,.53.14c.26.08,0,0,0,0l.38.19c.13.07.31.2.46.3-.24-.16-.07-.06,0,0l.28.25a5,5,0,0,1,.34.39c.27.28-.08-.17,0,0s.15.21.21.31.18.33.28.5c.19.34-.05-.19,0,0s.08.2.11.3.1.36.14.54.05.39,0,0c0,.13,0,.25,0,.39v.5c0,.38.09-.3,0,.08l-.06.24c0,.08,0,.16-.07.25s-.15.38-.05.15-.07.14-.08.15a3.07,3.07,0,0,1-.17.31l-.13.2c-.2.33.14-.14,0,0a4.54,4.54,0,0,1-.37.38,5.34,5.34,0,0,1-.44.39s.25-.18,0,0-.2.14-.31.2l-.53.3-.22.1c.28-.14.09,0,0,0a12.34,12.34,0,0,1-1.19.33c-.39.08.21,0,0,0a1.56,1.56,0,0,0-.31,0h-.56c-.1,0-.65-.07-.26,0a5.18,5.18,0,0,1-.66-.14l-.53-.17c.27.1-.24-.13-.32-.18a2.9,2.9,0,0,1-.29-.19c.21.15,0,0,0,0l-.25-.24c-.07-.09-.06-.07,0,0a1,1,0,0,1-.11-.17c-.13-.14.06.31-.05-.1,0,0-.08-.47-.06-.26a6.17,6.17,0,0,1,0-.86c0-.14,0-.28,0-.42s0-.11,0,0a2.21,2.21,0,0,1,.06-.34c0-.27.1-.55.16-.82a11.4,11.4,0,0,1,1.25-3.24,1.54,1.54,0,0,0-2.59-1.65l-.06.11Z" transform="translate(-57.68 -74.91)"/><path class="cls-1" d="M318.42,215.91a11.55,11.55,0,0,0,4,12.26,15.33,15.33,0,0,0,13.75,2.41,12,12,0,0,0,5.65-3.45,9.22,9.22,0,0,0,2-7.3,21.73,21.73,0,0,0-.94-4,12.57,12.57,0,0,0-1.49-3.27,7,7,0,0,0-3-2.49,24.44,24.44,0,0,0-3.82-1.18,22.25,22.25,0,0,0-9.13-.83,10.39,10.39,0,0,0-6.69,3.93,1.54,1.54,0,0,0,.55,2.11,1.6,1.6,0,0,0,2.11-.56c-.19.25.1-.12.12-.14l.19-.21a6.11,6.11,0,0,1,.52-.49l.21-.18c-.24.19.13-.09.15-.1a7.11,7.11,0,0,1,.61-.39l.64-.33a1.65,1.65,0,0,1,.21-.09l.22-.08a11.76,11.76,0,0,1,1.4-.41l.72-.13c-.29.05,0,0,.1,0l.36,0a13.94,13.94,0,0,1,1.71,0,19.33,19.33,0,0,1,3.48.5c1.15.26,2.33.56,3.48.88a14.37,14.37,0,0,1,1.45.46c-.21-.08.09,0,.14.07l.35.18.27.16.26.18h0a5.32,5.32,0,0,1,.48.47s.31.39.14.16l.17.24a10.2,10.2,0,0,1,.69,1.31,2.52,2.52,0,0,0,.1.24l.1.29c.09.24.17.48.25.72.19.58.36,1.15.51,1.75a10,10,0,0,1,.38,3.22,5.2,5.2,0,0,1-.26,1.35,3.37,3.37,0,0,1-.13.38c0,.07-.16.35,0,.09a6.24,6.24,0,0,1-.35.68,5.72,5.72,0,0,1-.39.57c-.13.19.24-.26,0,.07l-.18.21c-.16.17-.32.33-.49.49l-.26.23s-.42.33-.18.15a11.86,11.86,0,0,1-1.05.69q-.31.18-.63.33l-.33.16-.19.08c.14-.06.14-.06,0,0a16.07,16.07,0,0,1-2.78.74c-.05,0-.3.05-.05,0l-.38,0-.68.06a15.69,15.69,0,0,1-1.68,0c-.23,0-.46,0-.69-.06-.07,0-.38-.05-.12,0l-.3-.05a13.27,13.27,0,0,1-1.63-.38,10.25,10.25,0,0,1-1.28-.45l-.19-.08-.27-.13c-.27-.14-.54-.28-.79-.44s-.43-.26-.64-.4l-.38-.27-.16-.13a10.61,10.61,0,0,1-1.08-1l-.28-.33c.17.2-.06-.08-.1-.14-.15-.21-.3-.43-.43-.65s-.27-.45-.39-.68l-.15-.32c-.05-.1-.23-.5-.11-.21a10.49,10.49,0,0,1-.47-1.47c-.06-.25-.1-.51-.16-.77s0,.39,0-.07c0-.14,0-.28,0-.42a9.88,9.88,0,0,1,0-1.54c0-.45-.07.3,0-.14,0-.14.05-.28.08-.41.07-.28.14-.55.23-.81a1.53,1.53,0,0,0-1.07-1.89h0a1.57,1.57,0,0,0-1.9,1.07Z" transform="translate(-57.68 -74.91)"/><path class="cls-1" d="M307.7,201.56a99.24,99.24,0,0,0-2.93,18.77q-.27,4.71-.08,9.44c0,.76.06,1.56.12,2.35a4.64,4.64,0,0,0,.63,2.29c.93,1.36,2.49,1.61,4,1.62H361a17.09,17.09,0,0,0,2.48-.09,3,3,0,0,0,2-1.33,5.06,5.06,0,0,0,.61-2.07,166.59,166.59,0,0,0,1.77-19.43q.13-4.86,0-9.7c-.05-1.6-.1-3.2-.21-4.8a3,3,0,0,0-1.21-2.49,4.18,4.18,0,0,0-2.37-.4l-19.58.38H324.93a89.37,89.37,0,0,0-9.36.07,25.08,25.08,0,0,0-4.63.89,6.32,6.32,0,0,0-3.58,2.37,2.83,2.83,0,0,0,.27,3.78A1.54,1.54,0,1,0,309.8,201c-.13-.12-.18-.3-.05,0s.05-.14.08.31c0-.33-.12.33,0,0s-.2.27,0-.05l.18-.3c-.2.3,0,0,.09-.08s.19-.18.28-.27.14-.11,0,0l.22-.14.34-.2c.36-.19-.38.11.14-.05l.84-.27a21,21,0,0,1,2.22-.51,29.78,29.78,0,0,1,4-.39c1.5-.06,4.5-.29,4.5-.29H341.2l18.58.38,4.6-.38H365l.12,0a.73.73,0,0,1-.41-.28l-.06-.1q.06.27,0,0c.08.8.09,1.61.13,2.41q.19,4.51.15,9a163.32,163.32,0,0,1-1.23,18.22c-.19,1.46-.33,2.84-.61,4.35,0,.13-.07.27-.09.4s-.08,0,0,0L363,233c.12-.12.11-.12,0,0,.1-.06.34-.14.05-.08s.28,0-.16,0H309a2.75,2.75,0,0,1-.41,0c-.42,0,.26.1-.13,0l-.38-.11c.32.11,0,0-.09-.07.38.24-.22-.13.08.08l-.07-.13c0,.14,0,.12,0-.05,0,0-.1-.51-.06-.2a3.55,3.55,0,0,1,0-.46c0-.37-.05-.73-.07-1.1,0-.8-.07-1.59-.09-2.38,0-1.47,0-2.94,0-4.4a92.86,92.86,0,0,1,1.94-17.43c.3-1.43.64-2.86,1-4.28a1.53,1.53,0,0,0-1.07-1.89A1.55,1.55,0,0,0,307.7,201.56Z" transform="translate(-57.68 -74.91)"/><path class="cls-1" d="M357.73,195.23,358,191a1.56,1.56,0,0,0-1.13-1.5,8.24,8.24,0,0,0-4.27-.12,17.77,17.77,0,0,0-3.66,1,5.06,5.06,0,0,0-2.82,2.69,3.68,3.68,0,0,0,.61,4,1.53,1.53,0,0,0,2.17,0h0a1.58,1.58,0,0,0,0-2.18c.23.27,0,.08,0,0s.06.29,0,0c0,0-.06-.38,0-.13s0-.08,0-.13c0-.35-.09.28,0-.06l.05-.23c.09-.36-.14.24,0-.08a1.43,1.43,0,0,1,.12-.21c0-.07.26-.3,0-.08l.17-.18c.06-.06.36-.28.1-.1l.22-.15c.19-.12.39-.22.59-.32-.28.15.1,0,.14,0l.32-.11a22,22,0,0,1,2.85-.71l.38-.06c-.22,0,0,0,.13,0a6.62,6.62,0,0,1,.77,0h.38c.29,0,0,0,.12,0a7.27,7.27,0,0,1,.8.22L354.94,191l-.28,4.24a1.53,1.53,0,0,0,1.54,1.53,1.56,1.56,0,0,0,1.53-1.53Z" transform="translate(-57.68 -74.91)"/></g></g></svg>