<svg xmlns="http://www.w3.org/2000/svg" viewBox="0 0 205.13 176.27"><defs><style>.cls-1{fill:#f29100;}</style></defs><g id="Capa_2" data-name="Capa 2"><g id="Capa_1-2" data-name="Capa 1"><path class="cls-1" d="M7.1,115.27a439.3,439.3,0,0,1,3.23-83.84Q12,19.6,14.2,7.85A3.28,3.28,0,0,0,12,3.91,3.23,3.23,0,0,0,8,6.15,447.32,447.32,0,0,0,0,91.38q0,12,.71,23.89a3.27,3.27,0,0,0,3.2,3.2,3.22,3.22,0,0,0,3.19-3.2Z"/><path class="cls-1" d="M12.59,7.63l93.74-1,26.42-.27c4.11,0,4.12-6.43,0-6.39L39,1l-26.43.27c-4.11,0-4.12,6.43,0,6.39Z"/><path class="cls-1" d="M13.35,124.9a16.81,16.81,0,0,1,6.07-4.3,27,27,0,0,1,3.74-1.17c.71-.17,1.42-.31,2.14-.44s1.3-.21,1.7-.25c6.46-.74,13-.3,19.49-.14l46.44,1.13,26.46.64c4.12.1,4.11-6.29,0-6.39l-47.93-1.17-24-.58c-6.68-.16-13.45-.64-20.12.07-6.87.74-13.78,2.78-18.54,8.08a3.27,3.27,0,0,0,0,4.52,3.23,3.23,0,0,0,4.52,0Z"/><path class="cls-1" d="M66.16,44.83,61.45,60.06c-.78,2.54-1.81,5.25-1,7.91A7.59,7.59,0,0,0,64.6,72.6,17.35,17.35,0,0,0,70.72,74c2.6.19,5.2.28,7.81.33q7.81.17,15.62-.34c5.32-.34,10.63-.93,15.9-1.71,1.2-.18,2.4-.38,3.6-.57a6,6,0,0,1,2.78,0,2.18,2.18,0,0,1,.95.75,5.71,5.71,0,0,1,.87,1.89c1.36,4.37,1.61,9.28,1.89,13.82a143.11,143.11,0,0,1,.06,15.5c-.55,11.57-2.23,23-4,34.5a3.31,3.31,0,0,0,2.24,3.93c1.5.41,3.67-.52,3.93-2.23,3.1-20.73,6.16-41.75,2.92-62.66-.62-4-1.6-8.73-5.46-10.92-2.43-1.38-5.08-1.15-7.72-.73-2.43.38-4.86.78-7.31,1.08a181.77,181.77,0,0,1-31.2,1.18c-1.3-.06-2.61-.1-3.9-.24.47.05-.64-.11-.81-.15a8.67,8.67,0,0,1-1.58-.46c.44.19-.48-.29-.62-.39.42.31,0,0,0-.08-.23-.25-.27-.29-.12-.14s.11.1-.07-.18c0,0,.09.56,0,0a2.86,2.86,0,0,1,0-.65A10.42,10.42,0,0,1,67,63.67c1.73-5.72,3.53-11.43,5.29-17.14,1.22-3.94-4.95-5.62-6.16-1.7Z"/><path class="cls-1" d="M74.91,50.42l61.86,5.16,1.66.14.71.07c.59.08-.35-.07.24,0a4.12,4.12,0,0,1,2,.69c-.16-.15.2.43.1.13a3.46,3.46,0,0,1,.22,1.11c.1,1.21,0,2.45,0,3.66q0,7.59-.25,15.17-.51,15.3-2.08,30.53-1.74,17-4.83,33.8a3.28,3.28,0,0,0,2.23,3.93,3.23,3.23,0,0,0,3.93-2.24,451.3,451.3,0,0,0,7.06-63.82q.31-8,.33-15.9c0-2.46.27-5.16-.38-7.56A7.73,7.73,0,0,0,142.47,50c-2.25-.78-4.84-.76-7.19-1l-7.92-.66-16.08-1.35L74.91,44a3.2,3.2,0,0,0,0,6.39Z"/><path class="cls-1" d="M119.4,141.75c-15.08-.28-29.49,11.3-32.21,26.19a3.28,3.28,0,0,0,2.23,3.93,3.23,3.23,0,0,0,3.93-2.23c2.25-12.32,13.74-21.73,26.05-21.5,4.11.07,4.11-6.32,0-6.39Z"/><path class="cls-1" d="M143.14,141.31l7.36,19.3a3.28,3.28,0,0,0,3.93,2.24c1.52-.49,2.87-2.26,2.23-3.93l-7.35-19.31a3.27,3.27,0,0,0-3.94-2.23c-1.51.49-2.87,2.25-2.23,3.93Z"/><path class="cls-1" d="M88.27,173.68a301.19,301.19,0,0,1,52.7.67q7.36.75,14.66,1.86a3.31,3.31,0,0,0,3.94-2.23c.41-1.51-.52-3.67-2.24-3.93a305.26,305.26,0,0,0-53.94-3.52c-5,.12-10.09.38-15.12.75a3.28,3.28,0,0,0-3.2,3.2,3.22,3.22,0,0,0,3.2,3.2Z"/><path class="cls-1" d="M129.84,11,181.7,7.22A3.28,3.28,0,0,0,184.9,4,3.22,3.22,0,0,0,181.7.83L129.84,4.56a3.28,3.28,0,0,0-3.2,3.2,3.21,3.21,0,0,0,3.2,3.19Z"/><path class="cls-1" d="M148,121.43a83.49,83.49,0,0,1,35.49-2.52c3.16.45,6.56.61,9-1.86,2-2.07,2.8-5.14,3.7-7.81a165.18,165.18,0,0,0,4.87-17.38,171.63,171.63,0,0,0,4.07-36.22,164.24,164.24,0,0,0-.9-18,76.33,76.33,0,0,0-3.25-17c-2.09-6.08-5.45-11.5-10.63-15.39A21.46,21.46,0,0,0,173.5,1.05,3.23,3.23,0,0,0,171.26,5a3.28,3.28,0,0,0,3.94,2.23,13.38,13.38,0,0,1,5.83.38,17.68,17.68,0,0,1,5.79,3,23.84,23.84,0,0,1,7.64,10.8,62.55,62.55,0,0,1,3.22,14.88,164.33,164.33,0,0,1-2,50.31,166.58,166.58,0,0,1-4.19,16.6c-.81,2.63-1.65,5.26-2.63,7.82-.27.69-.57,1.47-1.13,1.75a5.93,5.93,0,0,1-2.54,0,101.5,101.5,0,0,0-19.28-.92,89.72,89.72,0,0,0-19.58,3.45c-3.94,1.16-2.26,7.33,1.7,6.16Z"/></g></g></svg>