<svg xmlns="http://www.w3.org/2000/svg" viewBox="0 0 295.05 70.32"><defs><style>.cls-1{fill:#f29100;}</style></defs><g id="Capa_2" data-name="Capa 2"><g id="Capa_3" data-name="Capa 3"><path class="cls-1" d="M5,47.14c6.93-6.31,9.69-15.68,16.13-22.36,6.6-6.85,15.67-11,24.49-14.18C55.34,7.09,66,4.7,76.4,6.35A36,36,0,0,1,97.78,17.59a26,26,0,0,1,6,12.29c1.16,5.79.61,11.84.15,17.68a3,3,0,0,0,2.93,2.93,3,3,0,0,0,2.93-2.93c.82-10.56,1.12-21.62-5.22-30.71A40,40,0,0,0,82.07,1.58C71.34-1.3,59.86.06,49.35,3.2c-10.1,3-20.35,7.34-28.61,14A47.37,47.37,0,0,0,10,30.12C7.29,34.66,4.8,39.39.84,43a3,3,0,0,0,0,4.14,3,3,0,0,0,4.14,0Z"/><path class="cls-1" d="M5.62,49.69l-.77-.26c-.55-.65-.69-.76-.4-.33l-.07-.19c.07.19.12.38.17.57.15.53.22,1.07.35,1.6A9.65,9.65,0,0,0,7,55a14,14,0,0,0,6.91,4,41.31,41.31,0,0,0,9.27,1.19c3.76.2,7.53.25,11.3.21C49.57,60.23,64.7,58.9,79.79,58l25.68-1.61a3,3,0,0,0,2.93-2.93,3,3,0,0,0-2.93-2.93L59.54,53.37c-7.54.47-15.08,1-22.63,1.14-3.77.08-7.54.08-11.31-.06a50.67,50.67,0,0,1-9-.79A13.27,13.27,0,0,1,13,52.4a4.38,4.38,0,0,1-2.15-2c-.29-.54-.51-2.25-.91-3.29a4.59,4.59,0,0,0-4.3-3.25c-3.77,0-3.77,5.85,0,5.85Z"/><path class="cls-1" d="M104.81,30.87C96,33.15,86.55,34.45,77.6,32.17A26.88,26.88,0,0,1,59.86,18.36,18.15,18.15,0,0,1,58.12,7.07a3,3,0,0,0-2-3.6,3,3,0,0,0-3.6,2c-1.73,9.06,2.1,18.06,8.71,24.27,7.37,6.92,17.41,9.58,27.34,9.4a76.79,76.79,0,0,0,17.84-2.66c3.65-1,2.1-6.59-1.55-5.65Z"/><path class="cls-1" d="M110.65,50.8a5.69,5.69,0,0,1,2.51-2.17,8.69,8.69,0,0,1,4.15-.64c3.18.13,6.65,2.13,9.58,3.94a67.05,67.05,0,0,0,9.89,5.29,45,45,0,0,0,9.51,2.67c13.5,2.22,28-.9,39-9.2a45.73,45.73,0,0,0,7.57-7.08c2.6-3.12,4.83-6.52,7.3-9.75,4-5.2,9.69-10.35,16.41-9.47,3,.38,5.05,2.26,6.53,5,1.65,3.09,2.55,6.53,4.43,9.54,4.15,6.66,11.77,9.41,19.21,10.32,8.35,1,17-.46,25.05,2.4A30.21,30.21,0,0,1,287,63.93a28.54,28.54,0,0,1,2.22,4.23,3,3,0,0,0,3.6,2c1.38-.38,2.64-2.13,2-3.6a36.41,36.41,0,0,0-14.53-17.28A34.69,34.69,0,0,0,270,45a65.73,65.73,0,0,0-14-1.19c-7.09-.08-15.49-.12-21-5.1-2.57-2.32-3.78-5.47-5.09-8.6-1.55-3.68-3.36-7.18-6.78-9.46-6.59-4.39-15.54-1.71-21.23,2.89-6.25,5.06-9.71,12.6-15.26,18.29-9.36,9.61-23.14,14-36.4,12.69a43.49,43.49,0,0,1-18.71-6.66c-3.48-2.16-7.11-4.54-11.2-5.38A15.38,15.38,0,0,0,109.45,44a11.2,11.2,0,0,0-3.85,3.86c-1.94,3.24,3.12,6.19,5.05,3Z"/></g></g></svg>