<svg xmlns="http://www.w3.org/2000/svg" viewBox="0 0 129.52 167.46"><defs><style>.cls-1{fill:#f29100;}</style></defs><g id="Capa_2" data-name="Capa 2"><g id="Capa_3" data-name="Capa 3"><path class="cls-1" d="M27.84,13.1c-7.35-.73-14.53,3.16-19.19,8.65C3.3,28.06,1.19,36.06.46,44.16c-.79,8.67-.4,17.52,0,26.2.2,4.27.37,8.58.91,12.83.5,3.94,1.35,7.93,3.52,11.33,4.29,6.73,12.11,9.07,19.43,10.86,6.48,1.58,13,3,19.35,5.05,5.71,1.9,11.41,4.54,15.66,8.7,4.45,4.36,6.45,10.17,8.88,15.83,2.5,5.81,5.86,11.35,12.06,13.67,4.08,1.53,8.67,1,12.73-.29a55.84,55.84,0,0,0,10.74-4.57,20.88,20.88,0,0,0,7.63-6.73,11.43,11.43,0,0,0,.56-10.87c-1.38-3.2-3.51-5.73-2.6-9.37,1-3.88,3.55-7.21,5.57-10.6,8.31-14,14.73-29.86,14.61-46.36C129.4,45.05,124,29.7,112.39,20c-6.43-5.39-14-9-21.74-12.17A103.84,103.84,0,0,0,66,.79c-15.42-2.21-32,0-44.83,9.34a46.33,46.33,0,0,0-8,7.31,3.24,3.24,0,0,0,0,4.47,3.18,3.18,0,0,0,4.46,0C26.44,11.58,39.94,6.58,53.21,6.25a77.58,77.58,0,0,1,24,3.48,114.58,114.58,0,0,1,21.88,8.92C105.26,22,111,26.35,115,32.11a47.27,47.27,0,0,1,7.42,18.48c2.62,14.25-1.16,29.27-7.45,42.31-1.7,3.52-3.57,6.95-5.58,10.31s-4.4,6.82-5.71,10.67a14.74,14.74,0,0,0,1,11.8,23.36,23.36,0,0,1,2,4.38,5.54,5.54,0,0,1,.12,1.6s-.07.52,0,.2-.08.27-.1.34-.33,1-.14.56c-1,2.43-3.24,4-5.66,5.38a47,47,0,0,1-9.32,4.05,19.29,19.29,0,0,1-5.41,1.05,10.38,10.38,0,0,1-2.36-.16c-.42-.09-.85-.2-1.26-.33l-.56-.2c-.5-.18.35.17-.12-.05a12.76,12.76,0,0,1-1.73-1c-.12-.09-.69-.53-.32-.23-.31-.25-.6-.52-.89-.79a16.33,16.33,0,0,1-1.31-1.45c-.23-.28,0,0,0,0l-.27-.38c-.2-.29-.41-.59-.6-.89-3.28-5.13-4.5-10.52-7.48-16a33.67,33.67,0,0,0-13.24-13,74.66,74.66,0,0,0-17.92-6.68c-6.25-1.63-12.71-2.72-18.84-4.81a18.31,18.31,0,0,1-8-4.85c-2.13-2.39-3-5.65-3.49-8.83a108.24,108.24,0,0,1-.91-11.39q-.35-6.7-.44-13.4c-.11-7.72-.29-15.68,1.86-23.18,1.82-6.36,5.53-11.86,11.35-14.85a15.56,15.56,0,0,1,4-1.37,7.27,7.27,0,0,1,1.65-.21,16.72,16.72,0,0,1,2.55.07A3.17,3.17,0,0,0,31,16.26a3.22,3.22,0,0,0-3.15-3.16Z"/><path class="cls-1" d="M84.71,146.67c-2.71,9.8,5.57,19.81,15.3,20.73,9.29.88,15.87-7.67,16.16-16.27A15.55,15.55,0,0,0,111,138.7a3.24,3.24,0,0,0-4.46,0,3.18,3.18,0,0,0,0,4.46,12.4,12.4,0,0,1,1.62,1.62c-.47-.57.19.32.29.49.22.35.41.72.6,1.09.08.16.27.69,0,0,.06.16.12.31.17.47.11.32.21.64.29,1s.18.82.26,1.23c0,.17,0,.59,0-.09,0,.26,0,.51.06.76a15.72,15.72,0,0,1,0,2.17l-.06.64c0-.12.12-.66,0-.08-.09.42-.17.84-.27,1.25s-.21.74-.34,1.11c-.06.18-.5,1.22-.19.55a16.42,16.42,0,0,1-1.15,2.1l-.29.42c-.28.41.49-.55,0,.05-.22.25-.44.51-.67.75s-.54.51-.82.76-.59.43,0,.05c-.21.14-.41.29-.62.42s-.57.34-.87.5l-.46.21c.62-.28.1,0-.08,0-.41.12-.81.26-1.23.35l-.59.12c.66-.11-.26,0-.33,0-.39,0-.78,0-1.17,0,0,0-.92-.08-.45,0s-.47-.08-.44-.08c-.38-.08-.76-.17-1.13-.28l-.56-.18c-.13,0-.84-.34-.34-.12a14.37,14.37,0,0,1-2.33-1.31l-.49-.35c.43.32-.08-.08-.18-.17-.37-.33-.74-.66-1.09-1-.17-.18-.34-.36-.5-.55s-.62-.75-.26-.29a12.72,12.72,0,0,1-.84-1.23c-.25-.43-.47-.87-.7-1.31,0-.09-.23-.56,0-.06-.11-.27-.21-.55-.3-.83-.15-.46-.24-.94-.37-1.41s0-.18,0,0a8.47,8.47,0,0,1-.07-.88,9.51,9.51,0,0,1,.05-1.6c0-.51-.11.45,0,0s.15-.69.24-1a3.15,3.15,0,1,0-6.08-1.67Z"/><path class="cls-1" d="M86.61,104.27a104.1,104.1,0,0,1-6.75-49.91c.18-1.69-1.59-3.15-3.16-3.15a3.22,3.22,0,0,0-3.15,3.15,108.28,108.28,0,0,0,7,51.59,3.25,3.25,0,0,0,3.88,2.2c1.51-.41,2.84-2.29,2.21-3.88Z"/><path class="cls-1" d="M75.51,51.29,59.91,57.8a3.21,3.21,0,0,0-2.26,3.46A3.12,3.12,0,0,0,60.75,64,47.84,47.84,0,0,0,86.19,54c1.34-1.05,1.1-3.36,0-4.46a3.23,3.23,0,0,0-4.46,0,40.59,40.59,0,0,1-21,8.2l.84,6.2,15.6-6.52a3.26,3.26,0,0,0,2.2-3.88c-.41-1.48-2.3-2.86-3.88-2.2Z"/></g></g></svg>