<svg xmlns="http://www.w3.org/2000/svg" viewBox="0 0 270.14 86.81"><defs><style>.cls-1{fill:#f19001;}</style></defs><g id="Capa_2" data-name="Capa 2"><g id="Capa_3" data-name="Capa 3"><path class="cls-1" d="M5.56,58.17Q22,45,37.59,30.82A3.27,3.27,0,1,0,33,26.2Q17.4,40.38,1,53.56C-.43,54.66-.2,57,1,58.17a3.33,3.33,0,0,0,4.61,0Z"/><path class="cls-1" d="M3.09,63.48l42,20.13a3.36,3.36,0,0,0,4.46-1.17A3.3,3.3,0,0,0,48.41,78l-42-20.13A3.36,3.36,0,0,0,1.92,59a3.31,3.31,0,0,0,1.17,4.47Z"/><path class="cls-1" d="M50.59,85.75C64.1,72.23,69.2,47.08,55.3,32a20,20,0,0,0-13.67-6.64,3.3,3.3,0,0,0-3.27,3.26,3.33,3.33,0,0,0,3.27,3.27c.1,0,1.36.14.82,0a11.91,11.91,0,0,1,1.32.28c.42.11.85.23,1.26.38.21.08.42.15.62.24-.5-.22.42.21.42.21a16.25,16.25,0,0,1,2.26,1.38c.53.38.25.19.14.1l.52.43c.42.37.83.76,1.23,1.16a23.69,23.69,0,0,1,5.38,9.25C58,53,57.11,61.84,54,69.23a37.19,37.19,0,0,1-8,11.91c-3,3,1.64,7.59,4.61,4.61Z"/><path class="cls-1" d="M55.24,86.4c6.82-3.52,14.68-3.44,22.18-3.47a197.18,197.18,0,0,0,26.37-2c18-2.51,36-5.52,53.94-8.31l30.61-4.75c1.74-.27,2.7-2.45,2.28-4a3.36,3.36,0,0,0-4-2.28l-54.55,8.46C114.46,72.8,96.8,76.31,78.94,76.4c-9.19,0-18.62,0-27,4.37a3.26,3.26,0,1,0,3.29,5.63Z"/><path class="cls-1" d="M35.16,29.32C45.21,27,55.55,26.69,65.82,26.2Q82,25.44,98.15,24.27q32.07-2.31,64-6.22,18.24-2.22,36.4-5c1.74-.26,2.7-2.46,2.28-4a3.36,3.36,0,0,0-4-2.28q-31.72,4.77-63.66,7.94T69,19.52c-11.91.59-24,.76-35.6,3.5a3.27,3.27,0,0,0,1.73,6.3Z"/><path class="cls-1" d="M189.75,68.88a83.2,83.2,0,0,0,19.94-2.42,8.32,8.32,0,0,0,3.92-2.09,9.91,9.91,0,0,0,2.12-4.61q1.32-4.92,2.34-9.92A142.64,142.64,0,0,0,221,30a16.67,16.67,0,0,0-1.74-9.3,16.65,16.65,0,0,0-4.3-4.78c-1.1-.88-2.25-1.69-3.4-2.49-.51-.35-1-.7-1.52-1.06L209.5,12c-.11-.08-.74-.56-.3-.21a16.91,16.91,0,0,1-2.53-2.4c.41.48,0,0-.08-.13l-.5-.85c-.06-.1-.27-.57,0,0a8.77,8.77,0,0,1-.35-1.1c-1.06-4.06-7.36-2.34-6.29,1.73,1.15,4.42,4.71,7.17,8.28,9.65.77.53,1.53,1.05,2.28,1.59l.49.37c-.53-.4.26.21.3.24.39.32.77.65,1.13,1s.68.71,1,1.08c.08.08.36.49,0,0l.33.48a7.63,7.63,0,0,1,1.12,3.08c.36,2.6-.14,5.58-.46,8.24q-.54,4.5-1.34,9c-.54,3-1.17,6-1.87,9-.33,1.42-.68,2.84-1,4.25-.2.74-.38,1.51-.61,2.24-.07.22-.43.77-.09.46-.44.4,0,.05-.52.23-.33.12-.69.19-1,.28-.78.18-1.56.34-2.35.5-1.59.32-3.2.6-4.81.83a82.42,82.42,0,0,1-10.53.72c-4.2,0-4.21,6.57,0,6.53Z"/><path class="cls-1" d="M204,10.64,231.56,7.1a3.36,3.36,0,0,0,3.26-3.26c0-1.59-1.5-3.49-3.26-3.27L204,4.12a3.37,3.37,0,0,0-3.26,3.26c0,1.59,1.5,3.49,3.26,3.26Z"/><path class="cls-1" d="M208.12,68.85l19.56-1.51c5.15-.39,11.87-.17,14.82-5.33,2.08-3.65-3.56-6.94-5.64-3.29a3.55,3.55,0,0,1-.34.55c.34-.41-.16.1-.23.14-.45.28.37-.2-.1.05-.23.12-.46.27-.7.38.4-.18-.59.17-.78.22-.49.13-1,.22-1.5.3-.23,0-.22,0,0,0l-.34,0-.67.07-2.06.16L225.7,61l-17.58,1.35a3.36,3.36,0,0,0-3.26,3.27,3.29,3.29,0,0,0,3.26,3.26Z"/><path class="cls-1" d="M245,59.27c2.3-8.18,4.77-16.33,6.9-24.56a26.17,26.17,0,0,0,.7-12.27A24.1,24.1,0,0,0,248,13.13a64.1,64.1,0,0,0-8.31-8.57,3.34,3.34,0,0,0-4.61,0,3.3,3.3,0,0,0,0,4.62,54.71,54.71,0,0,1,8.24,8.52,15.44,15.44,0,0,1,3.22,10.8A35.9,35.9,0,0,1,245.06,35c-.71,2.55-1.43,5.09-2.15,7.64l-4.18,14.86c-1.14,4,5.15,5.77,6.29,1.73Z"/><path class="cls-1" d="M244.48,7.13C244,7.35,245,7,245,7c.22-.07.43-.14.65-.19s.54-.13.81-.19.84-.14.28-.07a13.5,13.5,0,0,1,3.3,0c-.65-.08.42.08.45.09l.65.14a14.9,14.9,0,0,1,1.61.48,6.92,6.92,0,0,1,1.11.44c.51.26,1,.51,1.51.8a17.17,17.17,0,0,1,4.75,4.16A18.11,18.11,0,0,1,263,18.81c1.33,5.16.58,10.67-1.13,15.75-1.64,4.85-4.08,9.61-8.44,11.93a74,74,0,0,1-7,2.85,22.63,22.63,0,0,0-7.79,4.76c-3,3,1.65,7.6,4.62,4.61a18.12,18.12,0,0,1,6.26-3.61,52.78,52.78,0,0,0,7.82-3.33C262.93,48.51,266,42.45,268,36.5a34.14,34.14,0,0,0,1.2-19.42,23.19,23.19,0,0,0-10-13.86,19.23,19.23,0,0,0-18-1.73c-1.62.69-2,3.08-1.17,4.47,1,1.68,2.84,1.86,4.47,1.17Z"/><path class="cls-1" d="M65.12,58.57H81.46a3.26,3.26,0,1,0,0-6.52H65.12a3.26,3.26,0,0,0,0,6.52Z"/><path class="cls-1" d="M218.34,32.28l-17.25,5.47A3.26,3.26,0,0,0,202.82,44l17.25-5.47a3.26,3.26,0,1,0-1.73-6.29Z"/><path class="cls-1" d="M5.52,57.73l2,1.55a3.29,3.29,0,0,0,3.18.84l3.09-1.25-3.69-1.5,3.19,5a3.29,3.29,0,0,0,6-.78,26.3,26.3,0,0,0-.06-14.74L13.71,50c.33.32.61.67.91,1-.62-.7-.13-.15,0,0l.35.58c.1.17.19.35.28.52s.12.23.17.35c.14.32.11.24-.1-.24a7.68,7.68,0,0,0,.4,1.2c.12.41.17.83.27,1.24-.24-1,0-.18,0,.1s0,.39,0,.59c0,.44-.11.92-.07,1.36-.06-.73.07-.47,0-.1s-.11.51-.18.76a3.26,3.26,0,0,0,6.29,1.73A14.34,14.34,0,0,0,18.32,45.4a3.26,3.26,0,0,0-5.45,3.17,28.49,28.49,0,0,1,.7,3c0,.37,0,.31,0-.16l.06.48.06.72c0,.51.06,1,.06,1.55s0,1-.05,1.56c0,.24,0,.48,0,.72s-.15,1.05-.06.52-.07.42-.09.51c0,.24-.09.47-.14.71-.12.54-.26,1.08-.41,1.62l6-.78-3.18-5A3.33,3.33,0,0,0,12,52.57L8.93,53.83l3.18.84-2-1.56a3.55,3.55,0,0,0-2.3-1,3.32,3.32,0,0,0-2.31,1c-1.08,1.18-1.43,3.49,0,4.62Z"/></g></g></svg>