<svg xmlns="http://www.w3.org/2000/svg" viewBox="0 0 147.92 176.89"><defs><style>.cls-1{fill:#f29100;}</style></defs><g id="Capa_2" data-name="Capa 2"><g id="Capa_3" data-name="Capa 3"><path class="cls-1" d="M10.21,6.89,6.45,65.23,2.7,123.31.82,152.48C.53,157,0,161.6,0,166.14c0,4.1,1.47,8,5.55,9.61a15.88,15.88,0,0,0,5.94.74c2.31,0,4.61-.12,6.92-.21,4.63-.19,9.25-.46,13.87-.77,9.34-.63,18.67-1.42,28-2,18.28-1.16,36.85-1.6,54.93,1.84q3.39.65,6.73,1.47A2.64,2.64,0,0,0,125.1,175a315.71,315.71,0,0,0,16.14-53.66,323.73,323.73,0,0,0,6.54-55.67,318.88,318.88,0,0,0-3.32-56.17c-.31-2.07-.72-4.17-2.33-5.65S138.17,2.06,136,2c-5.08-.12-10.16-.18-15.24-.27L90,1.21,28.56.13,21.07,0c-3.3-.06-3.3,5.06,0,5.11l60,1,30,.53L126,7l7.49.13c1.14,0,2.29,0,3.43.08a3,3,0,0,1,1.74.44,3.73,3.73,0,0,1,.69,2.05c.18,1.08.33,2.17.48,3.26q.47,3.27.85,6.56.79,6.8,1.29,13.62,1,13.65.82,27.35a314.8,314.8,0,0,1-5.41,54.19,316.31,316.31,0,0,1-14.72,52.66c-.81,2.13-1.63,4.26-2.48,6.37l3.14-1.78c-17.79-4.35-36.2-4.81-54.42-4s-36.48,2.9-54.78,3.4c-2.62.08-7.51,1-8.62-2.28a13,13,0,0,1-.31-4.9c.14-2.39.31-4.78.46-7.16l1.84-28.42,3.7-57.34,3.69-57.34.45-7a2.58,2.58,0,0,0-2.55-2.56,2.61,2.61,0,0,0-2.56,2.56Z"/><path class="cls-1" d="M22.82,25c-2,3.58-3.68,7.53-1.85,11.54S27.51,41,31.41,40.38a10.87,10.87,0,0,0,8.9-6.77,8,8,0,0,0-3.07-9.24c-2.74-2-6.52-2.35-9.8-2.26a2.56,2.56,0,0,0,0,5.12,24.19,24.19,0,0,1,3.41.14c-.64-.07.16,0,.33.07s.52.1.78.17.52.13.77.21,1.07.43.48.15a13.69,13.69,0,0,1,1.3.71c.13.08.33.3-.08-.07l.27.23a3.07,3.07,0,0,1,.26.25l.15.14c-.28-.26.07.12.11.18s.13.21.19.31l.16.33c0-.09-.17-.52,0-.09,0,.17.19.93.13.37a8.2,8.2,0,0,1,0,1c0,.37.11-.39,0,0a3.34,3.34,0,0,0-.1.43c0,.14-.1.28-.14.42-.09.37.18-.32,0,0s-.27.53-.43.79c0,.05-.31.44-.13.2s-.19.21-.23.26a5.84,5.84,0,0,1-2.84,1.67c-.32.1-.65.18-1,.25-.09,0-1,.15-.58.1a14.71,14.71,0,0,1-2.3.1l-.52,0c.4,0,0,0-.09,0a5.7,5.7,0,0,1-1-.27c.43.18-.6-.49-.11-.07l-.31-.28c-.43-.4.18.36-.12-.15-.08-.12-.15-.24-.22-.36-.24-.4,0,.2,0-.08s-.19-.61-.26-.94,0-.06,0,0c0-.22,0-.44,0-.66s0-.29,0-.44c0-.45-.07.18,0-.15s.21-.88.35-1.32c.06-.17.12-.34.19-.51s.07-.17,0,0L26,30c.4-.83.84-1.63,1.29-2.44A2.56,2.56,0,0,0,22.82,25Z"/><path class="cls-1" d="M24.64,61.74a14.57,14.57,0,0,0,.43,11.9,10.4,10.4,0,0,0,11.78,5.1,10.16,10.16,0,0,0,7.3-9.16A9.84,9.84,0,0,0,43,63.93a9.07,9.07,0,0,0-4.72-4,10,10,0,0,0-11.77,3.65,2.57,2.57,0,0,0,.92,3.5,2.61,2.61,0,0,0,3.49-.92S31,66,31,66l0-.07-.2.26s.26-.3.31-.36l.34-.33.17-.15c.22-.23-.41.27-.14.11s.56-.38.87-.54a1.36,1.36,0,0,0,.21-.1c.23-.14-.23.1-.24.1a2.35,2.35,0,0,0,.52-.19,9,9,0,0,1,.93-.24s.2,0,.23,0-.55.05-.28,0,.38,0,.56,0a9.2,9.2,0,0,1,1.05,0,.93.93,0,0,0,.24,0s-.55-.1-.29,0l.55.11c.15,0,.8.34.91.29s-.47-.23-.24-.1l.21.1a4.67,4.67,0,0,1,.49.27c.13.08.26.18.4.26s-.21-.14-.21-.16a1,1,0,0,0,.19.15l.4.39.16.18.11.13c.08.1.07.08,0-.07s-.14-.21,0,0l.13.2a4.49,4.49,0,0,1,.24.42c.06.1.23.58.11.2s.07.19.1.3c.1.3.16.62.23.93.1.46,0-.52,0,0,0,.21,0,.43,0,.64s-.14.84,0,1,.1-.55,0-.28a2,2,0,0,0,0,.24c0,.19-.08.37-.12.56s-.21.62-.3.93.08-.23.1-.24a1.47,1.47,0,0,0-.1.22l-.26.51c-.1.16-.19.32-.3.48a2.43,2.43,0,0,1-.14.2c-.1.16,0,.19,0,0s.13-.15,0,0l-.16.18c-.12.14-.26.27-.39.4a3.16,3.16,0,0,0-.37.32s.43-.29.2-.16l-.21.14c-.13.09-.27.17-.41.25l-.27.14c-.06,0-.47.19-.16.08s-.27.08-.36.11-.45.12-.68.17l-.3.06.18,0c0,.07-.61,0-.7,0h-.61s-.29,0-.3,0l.18,0a9.44,9.44,0,0,1-1.27-.32c-.22-.07-.52-.24-.14,0-.17-.09-.36-.17-.53-.27s-.35-.21-.52-.32c-.42-.26,0,0,.07.07a1.55,1.55,0,0,0-.27-.23,7.38,7.38,0,0,1-.74-.74l-.16-.2c-.2-.21.15.18.13.18s-.28-.42-.33-.5-.21-.35-.3-.53-.35-.64-.17-.32-.08-.23-.12-.35-.15-.44-.21-.67a12,12,0,0,0-.25-1.22s.05.53,0,.24l0-.36c0-.21,0-.42,0-.63,0-.43,0-.85,0-1.28,0-.21,0-.42.06-.63s0,.23,0,.23,0-.34.07-.45a14.85,14.85,0,0,1,.74-2.52A2.56,2.56,0,0,0,27.78,60a2.63,2.63,0,0,0-3.14,1.78Z"/><path class="cls-1" d="M20.53,100.92a13.61,13.61,0,0,0,3.14,12.21,13.28,13.28,0,0,0,11.27,4.08c2.36-.31,4.87-1.16,6.14-3.34a9.31,9.31,0,0,0,.93-3.19l.64-3.77.59-3.43a7.85,7.85,0,0,0,.1-3.76c-.75-2.33-3.39-3.4-5.46-4.29a11.15,11.15,0,0,0-7.5-.93,7.29,7.29,0,0,0-5.12,4.78,2.56,2.56,0,0,0,4.93,1.36c.15-.48,0-.14,0,0a3.18,3.18,0,0,1,.23-.4c-.25.39.25-.24.36-.34-.36.31.35-.19.46-.25s.37-.17.12-.07.32-.1.38-.11,1-.15.5-.13a7.07,7.07,0,0,1,1,0,10,10,0,0,1,2.06.56,20.54,20.54,0,0,1,2,.94c.34.17.68.37,1,.54.05,0,.44.2.13.05.28.13.07.22.1.06l-.13-.5v.28c-.08.53,0,.31,0,.19-.06.46-.15.92-.23,1.37l-.5,2.92c-.29,1.74-.47,3.56-.92,5.26-.07.25-.25.53,0,.23a2.67,2.67,0,0,1-.38.37c.27-.2-.11,0-.14,0-.45.23-.24.14-.13.09a4.51,4.51,0,0,1-.52.17l-.53.14-.46.1A8.36,8.36,0,0,1,27.76,110a8,8,0,0,1-2.14-3.52c-.12-.4-.2-.8-.28-1.2,0,0-.06-.5,0-.14,0-.23,0-.46-.05-.68,0-.42,0-.83,0-1.24,0,0,.06-.5,0-.14,0-.27.1-.54.16-.8a2.56,2.56,0,1,0-4.93-1.36Z"/><path class="cls-1" d="M19.19,145.07c3.21,7.2,11.44,11.4,19.15,10.26,2.12-.31,4.28-1.48,4.79-3.72a4.34,4.34,0,0,0-.89-3.62,21.18,21.18,0,0,0-2.1-2,5.15,5.15,0,0,1-1.53-4c0-.89,0,.16,0-.29,0-.21.07-.41.1-.62.09-.52.17-1.05.22-1.58a5.12,5.12,0,0,0-.68-3.18c-1.73-2.75-5.12-1.83-7.58-.81A22.67,22.67,0,0,0,24,139.71a2.56,2.56,0,0,0,3.62,3.62,16.93,16.93,0,0,1,4-2.7,13.62,13.62,0,0,1,1.93-.77,7.38,7.38,0,0,0,1.08-.32c-.07.27-.71-.6-.77-.69s0-.56,0,0c0,.12,0,.25,0,.37s0,.58,0,.3,0,.24-.05.3a14.51,14.51,0,0,0-.3,2.71,10.5,10.5,0,0,0,1.41,5,10.09,10.09,0,0,0,1.52,2,9.63,9.63,0,0,0,.83.73,7.94,7.94,0,0,0,.91.84c.26.14,0,.07,0-.1s0-.2,0-.28c0-.31.18-.43.32-.66,0,0-.44.23-.07.07a3.22,3.22,0,0,1-.5.16c-.15,0-.93.16-.62.12a13.38,13.38,0,0,1-13.65-7.87,2.57,2.57,0,0,0-3.49-.92,2.63,2.63,0,0,0-.92,3.5Z"/><path class="cls-1" d="M73.88,30.38A139.88,139.88,0,0,0,99.42,29a2.55,2.55,0,0,0,1.78-3.14,2.63,2.63,0,0,0-3.14-1.79,133.92,133.92,0,0,1-24.18,1.17c-3.29-.13-3.28,5,0,5.11Z"/><path class="cls-1" d="M69.52,43.06C74.63,40.76,80.7,42,86,42.72c6.14.84,12.33,1.39,18.09-1.39a2.56,2.56,0,1,0-2.58-4.42c-5.06,2.45-11.08,1.3-16.4.57C79,36.62,72.79,36,66.94,38.64a2.57,2.57,0,0,0-.92,3.5,2.63,2.63,0,0,0,3.5.92Z"/><path class="cls-1" d="M76.18,62.38a32.73,32.73,0,0,1,7.7-2.19,30.68,30.68,0,0,1,3.53-.29,32.75,32.75,0,0,1,4.08.16A2.56,2.56,0,0,0,94,57.5a2.62,2.62,0,0,0-2.55-2.56,34.71,34.71,0,0,0-16.67,2.51A2.62,2.62,0,0,0,73,60.59c.39,1.18,1.83,2.34,3.15,1.79Z"/><path class="cls-1" d="M76.26,73.36a170.66,170.66,0,0,1,30.41.56,2.57,2.57,0,0,0,2.55-2.56,2.61,2.61,0,0,0-2.55-2.55,169.73,169.73,0,0,0-30.41-.56,2.62,2.62,0,0,0-2.55,2.56,2.57,2.57,0,0,0,2.55,2.55Z"/><path class="cls-1" d="M73.76,104.84a65.22,65.22,0,0,1,14.33-6,2.56,2.56,0,0,0-1.36-4.94,74.28,74.28,0,0,0-15.55,6.48,2.56,2.56,0,0,0,2.58,4.42Z"/><path class="cls-1" d="M65.72,112.73c7.85-1.56,15.93-.39,23.77.65,8.08,1.07,16.18,2,24.27.51A2.56,2.56,0,0,0,112.4,109c-7.87,1.46-16,.23-23.8-.8-8.07-1.07-16.17-2-24.24-.35a2.56,2.56,0,1,0,1.36,4.93Z"/><path class="cls-1" d="M73.06,136.57A71.3,71.3,0,0,1,93.92,138a2.63,2.63,0,0,0,3.15-1.79,2.58,2.58,0,0,0-1.79-3.14,75.77,75.77,0,0,0-22.22-1.59A2.63,2.63,0,0,0,70.5,134a2.57,2.57,0,0,0,2.56,2.55Z"/><path class="cls-1" d="M69.83,149.05a400.51,400.51,0,0,1,61.67-.11,2.58,2.58,0,0,0,2.56-2.55,2.61,2.61,0,0,0-2.56-2.56,400.51,400.51,0,0,0-61.67.1,2.63,2.63,0,0,0-2.56,2.56,2.58,2.58,0,0,0,2.56,2.56Z"/></g></g></svg>